<?xml version="1.0" encoding="utf-8"?>
<!-- Generator: Adobe Illustrator 16.0.0, SVG Export Plug-In . SVG Version: 6.00 Build 0)  -->
<!DOCTYPE svg PUBLIC "-//W3C//DTD SVG 1.1 Tiny//EN" "http://www.w3.org/Graphics/SVG/1.1/DTD/svg11-tiny.dtd">
<svg version="1.1" baseProfile="tiny" id="Layer_1" xmlns="http://www.w3.org/2000/svg" xmlns:xlink="http://www.w3.org/1999/xlink"
	 x="0px" y="0px" width="40px" height="206.795px" viewBox="0 0 40 206.795" xml:space="preserve">
<g>
	<g>
		<path fill="#1B1E23" d="M20,27.373c-0.272,0-0.492-0.22-0.492-0.491V13.118c0-0.271,0.22-0.491,0.492-0.491
			c0.271,0,0.49,0.22,0.49,0.491v13.764C20.491,27.153,20.271,27.373,20,27.373z"/>
	</g>
	<g>
		<path fill="#1B1E23" d="M26.881,20.491H13.119c-0.271,0-0.492-0.22-0.492-0.491c0-0.271,0.221-0.491,0.492-0.491h13.763
			c0.271,0,0.491,0.22,0.491,0.491C27.373,20.271,27.153,20.491,26.881,20.491z"/>
	</g>
	<g>
		<g>
			<path fill="#1B1E23" d="M20,0.982c2.47,0,4.878,0.469,7.155,1.393c2.36,0.956,4.476,2.362,6.291,4.178s3.222,3.933,4.178,6.291
				c0.924,2.278,1.393,4.686,1.393,7.156c0,2.471-0.469,4.879-1.393,7.157c-0.956,2.358-2.362,4.475-4.178,6.291
				s-3.931,3.221-6.291,4.178c-2.277,0.924-4.686,1.392-7.155,1.392c-2.471,0-4.88-0.468-7.157-1.392
				c-2.359-0.957-4.476-2.362-6.29-4.178c-1.817-1.816-3.222-3.932-4.178-6.291C1.452,24.879,0.983,22.471,0.983,20
				c0-2.47,0.469-4.878,1.393-7.156c0.956-2.358,2.36-4.476,4.178-6.291c1.814-1.815,3.931-3.222,6.29-4.178
				C15.121,1.451,17.53,0.982,20,0.982 M20,0C14.882,0,9.763,1.953,5.858,5.858c-7.811,7.811-7.811,20.474,0,28.284
				C9.763,38.048,14.882,40,20,40c5.117,0,10.235-1.952,14.142-5.857c7.811-7.811,7.811-20.474,0-28.284C30.236,1.953,25.118,0,20,0
				L20,0z"/>
		</g>
	</g>
</g>
<g>
	<g>
		<g>
			<path fill="#1B1E23" d="M20,167.777c2.567,0,5.059,0.503,7.402,1.494c2.264,0.958,4.298,2.329,6.045,4.075
				c1.747,1.748,3.118,3.781,4.076,6.046c0.991,2.344,1.494,4.835,1.494,7.402s-0.503,5.058-1.494,7.401
				c-0.958,2.266-2.329,4.299-4.076,6.046s-3.781,3.118-6.045,4.076c-2.344,0.991-4.835,1.493-7.402,1.493
				c-2.568,0-5.059-0.502-7.402-1.493c-2.264-0.958-4.299-2.329-6.045-4.076c-1.747-1.747-3.118-3.78-4.076-6.046
				c-0.991-2.344-1.494-4.834-1.494-7.401s0.503-5.059,1.494-7.402c0.958-2.265,2.329-4.298,4.076-6.046
				c1.746-1.746,3.781-3.117,6.045-4.075C14.942,168.28,17.432,167.777,20,167.777 M20,166.795c-11.046,0-20,8.954-20,20
				s8.954,20,20,20s20-8.954,20-20S31.046,166.795,20,166.795L20,166.795z"/>
		</g>
	</g>
	<g>
		<g>
			<g>
				<path fill="#1B1E23" d="M20.005,183.743c1.697,0,3.078,1.381,3.078,3.078s-1.381,3.078-3.078,3.078s-3.078-1.381-3.078-3.078
					S18.308,183.743,20.005,183.743 M20.005,182.761c-2.242,0-4.06,1.818-4.06,4.061s1.817,4.061,4.06,4.061
					s4.061-1.818,4.061-4.061S22.248,182.761,20.005,182.761L20.005,182.761z"/>
			</g>
		</g>
		<g>
			<path fill="#1B1E23" d="M22.304,200.104c-0.526,0-1-0.332-1.18-0.826l-0.36-0.99c-0.514,0.033-1.029,0.032-1.542-0.002
				l-0.359,0.987c-0.18,0.495-0.653,0.827-1.18,0.827c-0.146,0-0.291-0.026-0.429-0.076l-3.646-1.327
				c-0.314-0.114-0.566-0.345-0.708-0.648c-0.142-0.305-0.157-0.646-0.042-0.961l0.361-0.992c-0.414-0.304-0.809-0.636-1.178-0.991
				l-0.914,0.527c-0.19,0.11-0.407,0.168-0.626,0.168c-0.448,0-0.864-0.24-1.089-0.628l-1.939-3.359
				c-0.168-0.291-0.212-0.629-0.125-0.953c0.086-0.324,0.294-0.595,0.585-0.762l0.913-0.527c-0.122-0.498-0.211-1.006-0.266-1.518
				l-1.036-0.184c-0.331-0.059-0.618-0.241-0.811-0.516c-0.192-0.275-0.267-0.608-0.208-0.938l0.674-3.821
				c0.105-0.601,0.625-1.037,1.235-1.037c0.073,0,0.146,0.006,0.219,0.02l1.034,0.182c0.228-0.461,0.486-0.908,0.773-1.336
				l-0.673-0.803c-0.216-0.256-0.318-0.582-0.289-0.916s0.187-0.637,0.443-0.853l2.972-2.493c0.227-0.189,0.513-0.294,0.807-0.294
				c0.373,0,0.724,0.163,0.963,0.448l0.671,0.801c0.472-0.209,0.959-0.387,1.455-0.53v-1.04c0-0.692,0.563-1.256,1.255-1.256h3.881
				c0.691,0,1.255,0.563,1.255,1.256v1.04c0.497,0.144,0.984,0.321,1.458,0.531l0.666-0.794c0.238-0.285,0.59-0.448,0.962-0.448
				c0.294,0,0.581,0.104,0.807,0.294l2.972,2.494c0.257,0.215,0.414,0.518,0.444,0.852c0.028,0.334-0.074,0.659-0.29,0.916
				l-0.668,0.797c0.288,0.431,0.548,0.88,0.775,1.344l1.021-0.18c0.072-0.013,0.146-0.02,0.219-0.02c0.609,0,1.13,0.437,1.235,1.038
				l0.674,3.821c0.059,0.33-0.016,0.662-0.208,0.938c-0.192,0.274-0.48,0.458-0.811,0.516l-1.027,0.182
				c-0.055,0.515-0.146,1.025-0.269,1.526l0.899,0.519c0.29,0.168,0.498,0.438,0.585,0.763c0.086,0.323,0.042,0.662-0.126,0.952
				l-1.939,3.36c-0.224,0.388-0.641,0.628-1.088,0.628l0,0c-0.22,0-0.437-0.059-0.627-0.168l-0.908-0.525
				c-0.372,0.357-0.769,0.689-1.185,0.992l0.357,0.983c0.115,0.315,0.1,0.655-0.042,0.96c-0.142,0.304-0.394,0.534-0.708,0.648
				l-3.646,1.327C22.595,200.078,22.451,200.104,22.304,200.104z M21.098,197.275c0.204,0,0.39,0.128,0.461,0.323l0.488,1.343
				c0.039,0.107,0.143,0.18,0.257,0.18c0.031,0,0.063-0.006,0.093-0.017l3.646-1.327c0.068-0.024,0.123-0.075,0.154-0.142
				c0.03-0.065,0.033-0.14,0.009-0.208l-0.486-1.336c-0.077-0.211-0.001-0.448,0.186-0.574c0.583-0.396,1.128-0.853,1.62-1.356
				c0.156-0.161,0.402-0.195,0.598-0.083l1.232,0.712c0.042,0.024,0.088,0.037,0.136,0.037c0.099,0,0.188-0.051,0.237-0.137
				l1.939-3.359c0.036-0.063,0.046-0.137,0.027-0.207c-0.019-0.071-0.064-0.13-0.127-0.166l-1.225-0.707
				c-0.195-0.113-0.289-0.344-0.228-0.56c0.192-0.677,0.315-1.379,0.368-2.085c0.016-0.224,0.184-0.408,0.404-0.447l1.396-0.246
				c0.072-0.013,0.135-0.053,0.177-0.112s0.058-0.132,0.045-0.204l-0.673-3.82c-0.026-0.146-0.168-0.248-0.316-0.223l-1.391,0.246
				c-0.222,0.039-0.441-0.078-0.533-0.283c-0.289-0.643-0.646-1.26-1.06-1.834c-0.132-0.182-0.122-0.431,0.022-0.604l0.91-1.084
				c0.047-0.057,0.069-0.127,0.063-0.199c-0.006-0.072-0.04-0.139-0.096-0.186l-2.973-2.494c-0.063-0.053-0.13-0.063-0.175-0.063
				c-0.081,0-0.157,0.035-0.21,0.098l-0.907,1.081c-0.145,0.173-0.388,0.225-0.591,0.127c-0.636-0.309-1.305-0.552-1.989-0.725
				c-0.218-0.056-0.371-0.252-0.371-0.477v-1.416c0-0.15-0.122-0.273-0.272-0.273h-3.881c-0.15,0-0.272,0.123-0.272,0.273v1.416
				c0,0.225-0.152,0.421-0.37,0.477c-0.685,0.172-1.354,0.416-1.988,0.723c-0.202,0.099-0.445,0.047-0.59-0.126l-0.913-1.088
				c-0.052-0.063-0.128-0.098-0.21-0.098c-0.045,0-0.111,0.011-0.175,0.063l-2.972,2.494c-0.057,0.047-0.09,0.113-0.097,0.186
				s0.016,0.143,0.063,0.199l0.915,1.09c0.145,0.172,0.154,0.421,0.022,0.604c-0.413,0.572-0.769,1.188-1.058,1.827
				c-0.092,0.205-0.312,0.321-0.533,0.282l-1.404-0.248c-0.148-0.025-0.29,0.075-0.316,0.222l-0.673,3.821
				c-0.013,0.071,0.003,0.145,0.045,0.203c0.042,0.061,0.104,0.1,0.177,0.113l1.406,0.248c0.222,0.039,0.388,0.223,0.404,0.447
				c0.051,0.703,0.174,1.402,0.363,2.077c0.061,0.216-0.033,0.446-0.227,0.559l-1.238,0.715c-0.063,0.036-0.108,0.095-0.127,0.165
				c-0.02,0.07-0.01,0.145,0.027,0.207l1.939,3.36c0.049,0.085,0.14,0.137,0.237,0.137c0.048,0,0.093-0.013,0.136-0.036l1.238-0.715
				c0.194-0.113,0.44-0.079,0.598,0.082c0.49,0.504,1.033,0.961,1.613,1.357c0.186,0.126,0.261,0.362,0.184,0.573l-0.489,1.345
				c-0.024,0.069-0.021,0.143,0.009,0.209c0.031,0.066,0.086,0.116,0.154,0.142l3.646,1.327c0.029,0.011,0.062,0.017,0.093,0.017
				c0.114,0,0.218-0.073,0.257-0.181l0.487-1.34c0.077-0.211,0.288-0.344,0.511-0.32c0.696,0.069,1.412,0.07,2.111,0.002
				C21.065,197.276,21.082,197.275,21.098,197.275z"/>
		</g>
	</g>
</g>
<g>
	<g>
		<g>
			<path fill="#1B1E23" d="M20,112.179c2.567,0,5.059,0.503,7.402,1.494c2.264,0.958,4.298,2.33,6.045,4.076
				c1.747,1.747,3.118,3.781,4.076,6.045c0.991,2.344,1.494,4.834,1.494,7.402c0,2.568-0.503,5.059-1.494,7.402
				c-0.958,2.265-2.329,4.299-4.076,6.045c-1.747,1.748-3.781,3.119-6.045,4.076c-2.344,0.992-4.835,1.494-7.402,1.494
				c-2.568,0-5.059-0.502-7.402-1.494c-2.264-0.957-4.299-2.328-6.045-4.076c-1.747-1.746-3.118-3.78-4.076-6.045
				c-0.991-2.344-1.494-4.834-1.494-7.402c0-2.567,0.503-5.058,1.494-7.402c0.958-2.265,2.329-4.298,4.076-6.045
				c1.746-1.747,3.781-3.118,6.045-4.076C14.942,112.682,17.432,112.179,20,112.179 M20,111.196c-11.046,0-20,8.955-20,20
				c0,11.046,8.954,20,20,20s20-8.954,20-20C40,120.151,31.046,111.196,20,111.196L20,111.196z"/>
		</g>
	</g>
	<g>
		<g>
			<path fill="#1B1E23" d="M30,124.683c0.684,0,1.239,0.556,1.239,1.239v10.995c0,0.683-0.556,1.238-1.239,1.238H10
				c-0.684,0-1.239-0.556-1.239-1.238v-10.995c0-0.683,0.556-1.239,1.239-1.239H30 M30,123.7H10c-1.222,0-2.222,1-2.222,2.222
				v10.995c0,1.222,1,2.221,2.222,2.221h20c1.222,0,2.222-0.999,2.222-2.221v-10.995C32.222,124.7,31.222,123.7,30,123.7L30,123.7z"
				/>
		</g>
		<g>
			<path fill="#1B1E23" d="M20.967,143.14h-1.925c-1.81,0-3.184-0.479-3.677-1.279c-0.248-0.401-0.264-0.865-0.043-1.304l0.94-1.87
				c0.122-0.243,0.417-0.341,0.659-0.219c0.242,0.121,0.34,0.417,0.219,0.659l-0.94,1.87c-0.084,0.168-0.05,0.267,0.001,0.348
				c0.24,0.391,1.232,0.813,2.841,0.813h1.925c1.604,0,2.591-0.419,2.828-0.808c0.05-0.081,0.084-0.18-0.003-0.349l-0.958-1.871
				c-0.124-0.241-0.028-0.537,0.213-0.66c0.242-0.125,0.537-0.029,0.661,0.213l0.958,1.871c0.226,0.439,0.214,0.904-0.033,1.309
				C24.145,142.661,22.774,143.14,20.967,143.14z"/>
		</g>
	</g>
	<g>
		<path fill="#1B1E23" d="M34.99,143.929H5.02c-0.271,0-0.491-0.221-0.491-0.492c0-0.271,0.22-0.49,0.491-0.49h29.97
			c0.271,0,0.491,0.22,0.491,0.49C35.481,143.708,35.261,143.929,34.99,143.929z"/>
	</g>
</g>
<g>
	<g>
		<g>
			<g>
				<path fill="#1B1E23" d="M16.018,63.215c2.171,0,4.212,0.845,5.747,2.38c1.536,1.536,2.381,3.577,2.381,5.748
					c0,2.171-0.845,4.212-2.381,5.748c-1.535,1.535-3.576,2.381-5.747,2.381c-2.172,0-4.213-0.846-5.748-2.381
					s-2.381-3.577-2.381-5.748c0-2.171,0.846-4.212,2.381-5.748C11.805,64.06,13.846,63.215,16.018,63.215 M16.018,62.267
					c-5.013,0-9.076,4.063-9.076,9.076s4.063,9.076,9.076,9.076s9.076-4.063,9.076-9.076S21.031,62.267,16.018,62.267L16.018,62.267
					z"/>
			</g>
		</g>
		<g>
			<path fill="#1B1E23" d="M29.903,87.597c-0.498,0-0.965-0.194-1.316-0.545l-7.967-7.966c-0.185-0.185-0.185-0.485,0-0.67
				c0.186-0.185,0.485-0.185,0.67,0l7.967,7.966c0.173,0.173,0.402,0.268,0.646,0.268s0.473-0.095,0.646-0.268
				c0.356-0.356,0.356-0.936,0-1.292l-7.966-7.966c-0.186-0.185-0.186-0.485,0-0.67s0.485-0.185,0.67,0l7.967,7.966
				c0.726,0.726,0.726,1.907,0,2.633C30.867,87.403,30.399,87.597,29.903,87.597z"/>
		</g>
	</g>
	<g>
		<path fill="#1B1E23" d="M20,56.581c2.567,0,5.059,0.502,7.402,1.494c2.264,0.958,4.298,2.329,6.045,4.076
			c1.747,1.747,3.118,3.78,4.076,6.045c0.991,2.344,1.494,4.834,1.494,7.402S38.515,80.656,37.524,83
			c-0.958,2.264-2.329,4.298-4.076,6.045c-1.747,1.747-3.781,3.118-6.045,4.076c-2.344,0.991-4.835,1.494-7.402,1.494
			c-2.568,0-5.059-0.503-7.402-1.494c-2.265-0.958-4.299-2.329-6.045-4.076C4.806,87.299,3.435,85.265,2.477,83
			c-0.991-2.344-1.494-4.834-1.494-7.402s0.503-5.059,1.494-7.402c0.958-2.265,2.329-4.298,4.076-6.045
			c1.746-1.747,3.78-3.119,6.045-4.076C14.942,57.083,17.432,56.581,20,56.581 M20,55.598c-11.046,0-20,8.954-20,20s8.954,20,20,20
			s20-8.954,20-20S31.046,55.598,20,55.598L20,55.598z"/>
	</g>
</g>
</svg>
