<?xml version="1.0" encoding="utf-8"?>
<!-- Generator: Adobe Illustrator 16.0.0, SVG Export Plug-In . SVG Version: 6.00 Build 0)  -->
<!DOCTYPE svg PUBLIC "-//W3C//DTD SVG 1.1//EN" "http://www.w3.org/Graphics/SVG/1.1/DTD/svg11.dtd">
<svg version="1.1" id="Layer_1" xmlns="http://www.w3.org/2000/svg" xmlns:xlink="http://www.w3.org/1999/xlink" x="0px" y="0px"
	 width="73.801px" height="52.873px" viewBox="0 0 73.801 52.873" enable-background="new 0 0 73.801 52.873" xml:space="preserve">
<polygon points="38.542,52.873 32.453,38.559 39.493,38.035 45.493,52.873 "/>
<path d="M29.001,23.235c0.625,1.64,1.102,3.492,1.328,5.632l0.337,3.092l5.867-1.225l-0.076-0.188
	c-1.496-3.623-3.075-6.461-4.342-8.639L29.001,23.235z"/>
<g>
	<path d="M34.72,13.333c2.79-2.789,2.16-7.81-0.68-10.54c-2.62-2.91-7.58-3.93-10.65-1.2c-3.27,2.55-3.77,7.72-1.17,10.97
		c1.99,2.96,4.89,5.88,6.67,10.37l3.04-1.36c-1.79-3.08-2.87-4.8-2.01-5.58C31.09,14.934,31.82,16.244,34.72,13.333z M26.08,13.094
		c-3.62-1.979-4.18-8.17-0.23-10.04c3.03-1.76,7.04,0.77,7.79,3.91C34.72,11.554,29.87,15.464,26.08,13.094z"/>
</g>
<g>
	<path d="M63.779,29.664L36.83,31.055l-6.23,1.299l-2.81,1.021c-2.14,0.77-4.11,1.148-5.94,1.289l0.18,3.34
		c2.56,0.189,5.89,0.391,9.95,0.131l7.53-0.52l34.289-2.361C71.709,30.984,67.5,29.725,63.779,29.664z M35.64,35.145
		c-0.34,0.549-1.05,0.709-1.59,0.369c-0.55-0.33-0.71-1.051-0.37-1.59c0.34-0.551,1.05-0.711,1.59-0.369
		C35.82,33.895,35.98,34.604,35.64,35.145z"/>
</g>
<g>
	<path d="M21.66,37.975l-0.12-3.281c-4.69,0.303-8.5-0.988-11.96-1.469c-4.06-0.91-8.49,1.799-9.36,5.852
		c-1.09,3.971,1.99,7.979,5.76,9.061c3.7,1.35,8.49-0.281,9.77-4.01c1.34-3.881-0.15-3.971,0.28-5.48
		C16.35,37.543,18.27,37.725,21.66,37.975z M9.55,45.934c-3.15,0.711-7.18-1.789-6.93-5.289c-0.04-4.359,5.76-6.568,9.13-4.182
		C15.55,38.834,14.16,44.906,9.55,45.934z"/>
</g>
<rect x="34.476" y="33.702" transform="matrix(-0.9999 0.0165 -0.0165 -0.9999 69.8735 68.5038)" width="0.354" height="1.678"/>
</svg>
