<?xml version="1.0" encoding="utf-8"?>
<!-- Generator: Adobe Illustrator 16.0.0, SVG Export Plug-In . SVG Version: 6.00 Build 0)  -->
<!DOCTYPE svg PUBLIC "-//W3C//DTD SVG 1.1 Tiny//EN" "http://www.w3.org/Graphics/SVG/1.1/DTD/svg11-tiny.dtd">
<svg version="1.1" baseProfile="tiny" id="Layer_1" xmlns="http://www.w3.org/2000/svg" xmlns:xlink="http://www.w3.org/1999/xlink"
	 x="0px" y="0px" width="36.223px" height="21.38px" viewBox="0 0 36.223 21.38" xml:space="preserve">
<g>
	<path fill="#FF5637" d="M6.059,13.838l4.49,2.593c0.876,0.504,2.287,0.504,3.156-0.001c0.867-0.504,0.863-1.322-0.009-1.826
		l-0.002-0.001l-4.49-2.593l-0.002-0.001c-0.874-0.503-2.286-0.502-3.153,0.001C5.181,12.514,5.186,13.332,6.059,13.838z"/>
	<path fill="#FF5637" d="M35.564,8.462L23.811,1.675c-3.869-2.234-10.146-2.234-13.99,0c-0.957,0.557-1.674,1.2-2.151,1.886
		C6.925,4.627,6.762,5.798,7.172,6.913C7.56,7.964,8.455,8.965,9.866,9.78l6.317,3.648c1.064,0.614,1.6,1.423,1.6,2.23
		c0.002,0.804-0.521,1.605-1.575,2.218c-0.149,0.087-0.305,0.168-0.466,0.242c-2.124,0.978-5.239,0.897-7.214-0.242l-0.319-0.184
		L8.205,17.69l-4.402-2.542l-0.004-0.002c-0.874-0.501-2.283-0.501-3.15,0.002C0.213,15.401-0.002,15.732,0,16.063
		c0.001,0.331,0.222,0.662,0.658,0.914l4.726,2.729c3.87,2.234,10.146,2.234,13.99,0c0.957-0.557,1.673-1.199,2.152-1.886
		c0.742-1.066,0.907-2.237,0.497-3.353c-0.388-1.05-1.283-2.052-2.694-2.866l-6.318-3.649c-1.064-0.614-1.598-1.423-1.601-2.23
		c-0.001-0.804,0.522-1.607,1.575-2.219c0.149-0.087,0.305-0.167,0.467-0.241c2.125-0.979,5.238-0.899,7.213,0.241L32.42,10.29
		l0.004,0.002c0.875,0.503,2.284,0.503,3.15-0.002c0.435-0.252,0.65-0.584,0.648-0.913C36.22,9.045,36.001,8.713,35.564,8.462z"/>
	<path fill="#FF5637" d="M30.164,11.601l-11.52-6.65c-0.875-0.504-2.287-0.504-3.155,0c-0.867,0.505-0.863,1.322,0.009,1.827
		L15.5,6.778l11.518,6.651l0.002,0.001c0.876,0.502,2.286,0.502,3.154-0.002C31.041,12.925,31.036,12.107,30.164,11.601z"/>
</g>
</svg>
