<?xml version="1.0" encoding="utf-8"?>
<!-- Generator: Adobe Illustrator 16.0.0, SVG Export Plug-In . SVG Version: 6.00 Build 0)  -->
<!DOCTYPE svg PUBLIC "-//W3C//DTD SVG 1.1//EN" "http://www.w3.org/Graphics/SVG/1.1/DTD/svg11.dtd">
<svg version="1.1" id="Layer_1" xmlns="http://www.w3.org/2000/svg" xmlns:xlink="http://www.w3.org/1999/xlink" x="0px" y="0px"
	 width="34.294px" height="34.295px" viewBox="0 0 34.294 34.295" enable-background="new 0 0 34.294 34.295" xml:space="preserve">
<g>
	<path fill="#979EA9" d="M33.562,15.43h-2.519c-0.161-1.312-0.499-2.57-0.997-3.746l2.176-1.256c0.349-0.201,0.469-0.651,0.268-1
		l-0.985-1.707c-0.201-0.35-0.651-0.47-1-0.269l-2.18,1.259c-0.782-1.035-1.706-1.958-2.74-2.74l1.259-2.18
		c0.201-0.35,0.08-0.799-0.269-1.001l-1.707-0.985c-0.349-0.201-0.799-0.08-1.001,0.268L22.61,4.249
		c-1.175-0.498-2.433-0.837-3.746-0.997v-2.52C18.864,0.33,18.535,0,18.133,0h-1.972c-0.402,0-0.732,0.33-0.732,0.732v2.52
		c-1.313,0.16-2.571,0.499-3.746,0.997l-1.256-2.177c-0.202-0.348-0.651-0.469-1-0.268L7.72,2.79
		C7.371,2.992,7.25,3.441,7.452,3.791l1.259,2.18C7.675,6.753,6.752,7.676,5.97,8.711L3.79,7.452c-0.349-0.201-0.799-0.081-1,0.269
		L1.804,9.428c-0.202,0.349-0.081,0.799,0.268,1l2.176,1.256c-0.499,1.176-0.837,2.434-0.998,3.746H0.732
		C0.329,15.43,0,15.76,0,16.162v1.971c0,0.403,0.329,0.732,0.732,0.732h2.519c0.161,1.312,0.499,2.571,0.998,3.746l-2.176,1.256
		c-0.349,0.201-0.47,0.651-0.268,1l0.986,1.707c0.201,0.35,0.651,0.47,1,0.269l2.18-1.259c0.783,1.035,1.706,1.959,2.741,2.74
		l-1.259,2.181c-0.201,0.349-0.081,0.799,0.268,1l1.707,0.985c0.349,0.201,0.799,0.081,1-0.268l1.256-2.177
		c1.175,0.499,2.433,0.837,3.746,0.997v2.52c0,0.402,0.33,0.732,0.732,0.732h1.972c0.402,0,0.731-0.33,0.731-0.732v-2.52
		c1.313-0.16,2.571-0.498,3.746-0.997l1.256,2.177c0.202,0.349,0.652,0.469,1.001,0.268l1.707-0.985c0.349-0.201,0.47-0.651,0.269-1
		l-1.259-2.181c1.034-0.781,1.958-1.705,2.74-2.74l2.18,1.259c0.349,0.201,0.799,0.081,1-0.269l0.985-1.707
		c0.201-0.349,0.081-0.799-0.268-1l-2.176-1.256c0.498-1.175,0.836-2.434,0.997-3.746h2.519c0.403,0,0.732-0.329,0.732-0.732v-1.971
		C34.294,15.76,33.965,15.43,33.562,15.43z M17.147,27.209c-5.557,0-10.061-4.505-10.061-10.062S11.59,7.086,17.147,7.086
		c5.557,0,10.061,4.505,10.061,10.062S22.704,27.209,17.147,27.209z"/>
</g>
</svg>
