<?xml version="1.0" encoding="utf-8"?>
<!-- Generator: Adobe Illustrator 16.0.0, SVG Export Plug-In . SVG Version: 6.00 Build 0)  -->
<!DOCTYPE svg PUBLIC "-//W3C//DTD SVG 1.1//EN" "http://www.w3.org/Graphics/SVG/1.1/DTD/svg11.dtd">
<svg version="1.1" id="Layer_1" xmlns="http://www.w3.org/2000/svg" xmlns:xlink="http://www.w3.org/1999/xlink" x="0px" y="0px"
	 width="34.294px" height="24.451px" viewBox="0 0 34.294 24.451" enable-background="new 0 0 34.294 24.451" xml:space="preserve">
<path fill="#979EA9" d="M18.978,13.572v-2.711L5.185,10.869l1.909-1.903L5.177,7.049l-3.26,3.26L0,12.225l1.917,1.918l3.26,3.26
	l1.917-1.918L5.185,13.58L18.978,13.572z M33.977,0.599c-0.007-0.009-0.014-0.02-0.021-0.028c-0.018-0.021-0.037-0.041-0.055-0.062
	c-0.015-0.016-0.028-0.032-0.043-0.048c-0.015-0.015-0.031-0.029-0.047-0.043c-0.02-0.02-0.039-0.038-0.06-0.056L33.711,0.33
	c-0.024-0.02-0.05-0.039-0.075-0.057L33.601,0.25c-0.029-0.019-0.059-0.037-0.09-0.055c-0.01-0.006-0.021-0.011-0.031-0.016
	c-0.033-0.018-0.066-0.035-0.101-0.05c-0.009-0.004-0.019-0.007-0.028-0.011c-0.036-0.016-0.072-0.029-0.11-0.042
	c-0.009-0.003-0.017-0.005-0.025-0.008c-0.039-0.012-0.079-0.022-0.119-0.032c-0.008-0.001-0.016-0.002-0.024-0.004
	c-0.041-0.009-0.083-0.016-0.126-0.021c-0.007-0.001-0.015-0.001-0.022-0.002c-0.027-0.003-0.057-0.007-0.085-0.009
	C32.813,0.001,32.79,0,32.766,0c-0.02,0-0.038,0.001-0.058,0.002H11.355c-0.812,0.009-1.472,0.65-1.509,1.455
	C9.845,1.48,9.844,1.505,9.844,1.529s0.001,0.049,0.002,0.072v5.73h2.709V2.711h19.03v19.03H17.554v0.001h-5v-4.621H9.845v5.802
	c0,0.844,0.684,1.528,1.528,1.528h21.393c0.316,0,0.61-0.097,0.854-0.262c0.011-0.007,0.021-0.015,0.031-0.022
	c0.028-0.021,0.058-0.041,0.085-0.063c0.021-0.018,0.04-0.036,0.06-0.054c0.016-0.015,0.032-0.028,0.048-0.043
	c0.026-0.027,0.052-0.056,0.077-0.085c0.007-0.007,0.014-0.014,0.02-0.021c0.03-0.036,0.06-0.074,0.086-0.113
	c0.001,0,0.001-0.001,0.001-0.002c0.169-0.246,0.268-0.543,0.268-0.863V1.529C34.294,1.179,34.175,0.856,33.977,0.599z"/>
</svg>
