<?xml version="1.0" encoding="utf-8"?>
<!-- Generator: Adobe Illustrator 16.0.0, SVG Export Plug-In . SVG Version: 6.00 Build 0)  -->
<!DOCTYPE svg PUBLIC "-//W3C//DTD SVG 1.1//EN" "http://www.w3.org/Graphics/SVG/1.1/DTD/svg11.dtd">
<svg version="1.1" id="Layer_1" xmlns="http://www.w3.org/2000/svg" xmlns:xlink="http://www.w3.org/1999/xlink" x="0px" y="0px"
	 width="13.662px" height="13.662px" viewBox="0 0 13.662 13.662" enable-background="new 0 0 13.662 13.662" xml:space="preserve">
<path d="M13.125,5.391H0.537C0.243,5.391,0.005,5.627,0,5.92c0,0,0,0.006,0,0.008v1.807c0,0,0,0.006,0,0.009
	c0.004,0.293,0.243,0.528,0.537,0.528l12.587-0.002c0.295,0,0.533-0.235,0.537-0.528c0-0.003,0-0.007,0-0.007V6.831h0.001V5.928
	c0-0.002,0-0.005,0-0.005C13.658,5.627,13.42,5.391,13.125,5.391z"/>
</svg>
