<?xml version="1.0" encoding="utf-8"?>
<!-- Generator: Adobe Illustrator 16.0.0, SVG Export Plug-In . SVG Version: 6.00 Build 0)  -->
<!DOCTYPE svg PUBLIC "-//W3C//DTD SVG 1.1//EN" "http://www.w3.org/Graphics/SVG/1.1/DTD/svg11.dtd">
<svg version="1.1" id="Layer_1" xmlns="http://www.w3.org/2000/svg" xmlns:xlink="http://www.w3.org/1999/xlink" x="0px" y="0px"
	 width="36.379px" height="36.379px" viewBox="0 0 36.379 36.379" enable-background="new 0 0 36.379 36.379" xml:space="preserve">
<path fill="#D7D5CC" d="M18.189,0C8.144,0,0,8.144,0,18.189c0,10.046,8.144,18.189,18.189,18.189
	c10.046,0,18.189-8.144,18.189-18.189C36.379,8.144,28.235,0,18.189,0z M25.17,22.612l-0.837,1.537
	c-0.22,0.403-0.725,0.553-1.128,0.333l-7.081-3.855c-0.028-0.015-0.054-0.03-0.08-0.048l-0.007-0.005
	c-0.02-0.015-0.039-0.028-0.058-0.044c-0.008-0.007-0.016-0.014-0.023-0.021c-0.012-0.011-0.024-0.021-0.035-0.033
	c-0.009-0.008-0.017-0.018-0.025-0.027c-0.01-0.01-0.02-0.021-0.029-0.032c-0.007-0.009-0.014-0.019-0.02-0.028
	c-0.01-0.012-0.019-0.024-0.028-0.038c-0.005-0.007-0.01-0.015-0.014-0.022c-0.01-0.016-0.019-0.032-0.027-0.048
	c0,0-0.006-0.012-0.009-0.018c-0.009-0.019-0.018-0.037-0.026-0.057l-0.004-0.012c-0.008-0.021-0.016-0.042-0.022-0.064
	c0,0-0.001-0.007-0.002-0.01c-0.006-0.022-0.012-0.045-0.016-0.067c0,0-0.002-0.012-0.003-0.018
	c-0.003-0.021-0.007-0.041-0.009-0.062c-0.002-0.018-0.002-0.035-0.003-0.054c0-0.008-0.001-0.018-0.001-0.026V7.898
	c0-0.459,0.372-0.832,0.832-0.832h1.75c0.46,0,0.832,0.373,0.832,0.832v10.459l5.741,3.125
	C25.241,21.703,25.391,22.208,25.17,22.612z"/>
</svg>
