<?xml version="1.0" encoding="utf-8"?>
<!-- Generator: Adobe Illustrator 16.0.0, SVG Export Plug-In . SVG Version: 6.00 Build 0)  -->
<!DOCTYPE svg PUBLIC "-//W3C//DTD SVG 1.1//EN" "http://www.w3.org/Graphics/SVG/1.1/DTD/svg11.dtd">
<svg version="1.1" id="Layer_1" xmlns="http://www.w3.org/2000/svg" xmlns:xlink="http://www.w3.org/1999/xlink" x="0px" y="0px"
	 width="53.261px" height="53.261px" viewBox="0 0 53.261 53.261" enable-background="new 0 0 53.261 53.261" xml:space="preserve">
<path d="M8.358,26.629c0-0.794-0.645-1.438-1.439-1.438H1.972c-0.795,0-1.439,0.644-1.439,1.438c0,0.797,0.645,1.439,1.439,1.439
	h4.947C7.714,28.068,8.358,27.426,8.358,26.629z M26.631,8.357c0.795,0,1.439-0.644,1.439-1.438V1.971
	c0-0.795-0.645-1.438-1.439-1.438c-0.796,0-1.438,0.644-1.438,1.438v4.948C25.192,7.713,25.835,8.357,26.631,8.357z M11.675,39.551
	l-3.498,3.498c-0.562,0.562-0.562,1.473,0,2.035s1.473,0.562,2.033,0l3.5-3.5c0.562-0.561,0.562-1.471,0-2.033
	S12.237,38.988,11.675,39.551z M41.586,13.709l3.5-3.499c0.561-0.562,0.561-1.472,0-2.034c-0.562-0.562-1.473-0.562-2.035,0
	l-3.5,3.499c-0.561,0.562-0.561,1.472,0.002,2.035C40.113,14.271,41.023,14.271,41.586,13.709z M10.21,8.176
	c-0.561-0.562-1.471-0.562-2.033,0c-0.562,0.562-0.562,1.473,0,2.035l3.498,3.499c0.562,0.562,1.473,0.562,2.035,0
	c0.562-0.562,0.562-1.473,0-2.035L10.21,8.176z M51.291,25.191h-4.949c-0.795,0-1.438,0.644-1.438,1.438
	c0,0.795,0.643,1.439,1.438,1.439h4.949c0.795,0,1.438-0.645,1.438-1.439C52.729,25.835,52.086,25.191,51.291,25.191z
	 M41.586,39.551c-0.562-0.562-1.473-0.562-2.035,0c-0.561,0.562-0.561,1.473,0,2.033l3.5,3.5c0.562,0.562,1.473,0.562,2.033,0
	c0.562-0.562,0.562-1.473,0.002-2.035L41.586,39.551z M26.631,14.883c-6.487,0-11.747,5.259-11.747,11.746
	c0,6.488,5.26,11.748,11.747,11.748c6.488,0,11.746-5.26,11.746-11.748C38.377,20.143,33.119,14.883,26.631,14.883z M26.631,44.902
	c-0.796,0-1.438,0.645-1.438,1.438v4.949c0,0.795,0.643,1.439,1.438,1.439c0.795,0,1.439-0.645,1.439-1.439V46.34
	C28.07,45.547,27.426,44.902,26.631,44.902z"/>
</svg>
