<?xml version="1.0" encoding="utf-8"?>
<!-- Generator: Adobe Illustrator 16.0.0, SVG Export Plug-In . SVG Version: 6.00 Build 0)  -->
<!DOCTYPE svg PUBLIC "-//W3C//DTD SVG 1.1//EN" "http://www.w3.org/Graphics/SVG/1.1/DTD/svg11.dtd">
<svg version="1.1" id="Layer_1" xmlns="http://www.w3.org/2000/svg" xmlns:xlink="http://www.w3.org/1999/xlink" x="0px" y="0px"
	 width="53.261px" height="53.261px" viewBox="0 0 53.261 53.261" enable-background="new 0 0 53.261 53.261" xml:space="preserve">
<path d="M20.081,8.456C19.927,8.933,20.04,9.32,20.519,9.32c0.477,0,1.139-0.387,1.292-0.865c0.837-2.53-1.691-5.061-0.854-7.591
	C21.11,0.387,20.998,0,20.519,0c-0.477,0-1.139,0.387-1.292,0.865C18.39,3.395,20.917,5.925,20.081,8.456z M26.28,8.456
	c-0.153,0.478-0.042,0.865,0.438,0.865c0.477,0,1.139-0.387,1.293-0.865c0.836-2.53-1.691-5.061-0.854-7.591
	C27.31,0.387,27.197,0,26.718,0c-0.477,0-1.139,0.387-1.292,0.865C24.589,3.395,27.117,5.925,26.28,8.456z M32.479,8.456
	c-0.154,0.478-0.042,0.865,0.438,0.865c0.477,0,1.139-0.387,1.293-0.865c0.836-2.53-1.691-5.061-0.855-7.591
	C33.509,0.387,33.396,0,32.917,0c-0.477,0-1.139,0.387-1.292,0.865C30.788,3.395,33.315,5.925,32.479,8.456z M43.868,14.376H9.391
	v4.041h34.477V14.376z M26.629,43.94c15.165,0,16.989-3.83,17.208-13.118c1.3,0,2.424,0,2.424,0c3.223,0,5.835-2.612,5.835-5.834
	c0-3.223-2.612-5.834-5.835-5.834c0,0-0.933,0-2.08,0h-0.312v2.917h0.812c0.906,0,1.58,0,1.58,0c1.611,0,2.918,1.306,2.918,2.917
	c0,1.611-1.307,2.917-2.918,2.917c0,0-1.107,0-2.394,0c0.001-0.394,0.001-0.794,0.001-1.203v-3.975H9.391v3.975h0
	C9.392,38.993,9.392,43.94,26.629,43.94z M0,48.601c0,2.572,2.083,4.657,4.654,4.66h43.952c2.571-0.003,4.654-2.088,4.654-4.66H0z"
	/>
</svg>
