<?xml version="1.0" encoding="utf-8"?>
<!-- Generator: Adobe Illustrator 16.0.0, SVG Export Plug-In . SVG Version: 6.00 Build 0)  -->
<!DOCTYPE svg PUBLIC "-//W3C//DTD SVG 1.1//EN" "http://www.w3.org/Graphics/SVG/1.1/DTD/svg11.dtd">
<svg version="1.1" id="Layer_1" xmlns="http://www.w3.org/2000/svg" xmlns:xlink="http://www.w3.org/1999/xlink" x="0px" y="0px"
	 width="53.261px" height="53.261px" viewBox="0 0 53.261 53.261" enable-background="new 0 0 53.261 53.261" xml:space="preserve">
<path d="M52.411,22.214c0-2.857-0.994-5.48-2.652-7.548H36.298c-0.193,1.051-0.473,2.075-0.832,3.062
	c0.35-0.016,0.709,0.01,1.094,0.094c1.166,0.252,2.215,0.954,3.439,0.954c2.115,0,3.623-1.514,5.822-0.83
	c1.012,0.314,1.994,0.842,3.076,0.827c0.369,0.915,0.588,1.886,0.646,2.891c0.01,0.183,0.016,0.366,0.016,0.55
	c0,5.088-4.139,9.227-9.225,9.227c-4.342,0-7.99-3.016-8.967-7.062c-0.719,0.763-1.498,1.466-2.332,2.105
	c1.555,4.111,5.285,7.152,9.789,7.715v15.25c-3.445,0.279-6.039,1.498-6.039,2.959h15.096c0-1.461-2.592-2.68-6.037-2.959v-15.25
	C47.802,33.454,52.411,28.372,52.411,22.214z M28.323,23.474c1.023-0.912,1.934-1.946,2.703-3.085
	c0.145-0.213,0.281-0.43,0.416-0.649c0.055-0.088,0.104-0.179,0.156-0.269c0.16-0.276,0.314-0.555,0.461-0.84
	c0.248-0.488,0.475-0.989,0.676-1.504c0.307-0.792,0.551-1.616,0.732-2.462c0.031-0.142,0.064-0.282,0.092-0.425
	c0.188-0.997,0.285-2.025,0.285-3.077c0-0.976-0.084-1.931-0.246-2.86c-0.082-0.464-0.184-0.922-0.303-1.372
	c-0.143-0.536-0.314-1.06-0.508-1.574c-0.617-1.642-1.488-3.16-2.566-4.504H4.474C2.208,3.677,0.85,7.261,0.85,11.163
	c0,8.413,6.297,15.355,14.436,16.369v20.834c-4.707,0.381-8.249,2.045-8.249,4.041h20.623c0-1.248-1.385-2.365-3.571-3.121
	c0,0-0.001,0-0.002,0c-0.208-0.072-0.425-0.141-0.647-0.207c-0.025-0.008-0.05-0.014-0.076-0.021c-1.16-0.334-2.5-0.574-3.953-0.691
	V27.532C22.812,27.108,25.891,25.645,28.323,23.474z M17.348,23.766c-6.949,0-12.603-5.653-12.603-12.603
	c0-0.273,0.009-0.546,0.026-0.816c0.088-1.393,0.401-2.737,0.926-4.001C6.5,6.205,7.28,5.918,8.096,5.627
	c1.404-0.503,2.616-0.784,4.097-0.463c1.592,0.345,3.025,1.303,4.697,1.303c2.889,0,4.949-2.068,7.954-1.134
	c1.381,0.43,2.723,1.151,4.203,1.129c0.504,1.25,0.803,2.577,0.881,3.95c0.016,0.249,0.023,0.5,0.023,0.751
	C29.95,18.112,24.296,23.766,17.348,23.766z"/>
</svg>
