<?xml version="1.0" encoding="utf-8"?>
<!-- Generator: Adobe Illustrator 16.0.0, SVG Export Plug-In . SVG Version: 6.00 Build 0)  -->
<!DOCTYPE svg PUBLIC "-//W3C//DTD SVG 1.1//EN" "http://www.w3.org/Graphics/SVG/1.1/DTD/svg11.dtd">
<svg version="1.1" id="Layer_1" xmlns="http://www.w3.org/2000/svg" xmlns:xlink="http://www.w3.org/1999/xlink" x="0px" y="0px"
	 width="17.1px" height="26.634px" viewBox="0 0 17.1 26.634" enable-background="new 0 0 17.1 26.634" xml:space="preserve">
<path d="M15.561,2.809h-4.186C11.375,1.258,10.117,0,8.565,0s-2.81,1.258-2.81,2.809H1.539C0.689,2.809,0,3.498,0,4.348v2.093h17.1
	V4.348C17.1,3.498,16.41,2.809,15.561,2.809z M7.145,2.809c0-0.784,0.637-1.42,1.421-1.42s1.421,0.636,1.421,1.42H7.145z M0,25.095
	c0,0.85,0.689,1.539,1.539,1.539h14.021c0.85,0,1.539-0.689,1.539-1.539V8.5H0V25.095z M11.655,10.632h2.06v13.87h-2.06V10.632z
	 M7.535,10.632h2.061v13.87H7.535V10.632z M3.416,10.632h2.06v13.87h-2.06V10.632z"/>
</svg>
