<?xml version="1.0" encoding="utf-8"?>
<!-- Generated by IcoMoon.io -->
<!DOCTYPE svg PUBLIC "-//W3C//DTD SVG 1.1//EN" "http://www.w3.org/Graphics/SVG/1.1/DTD/svg11.dtd">
<svg version="1.1" xmlns="http://www.w3.org/2000/svg" xmlns:xlink="http://www.w3.org/1999/xlink" width="32" height="32" viewBox="0 0 32 32">
<path fill="#444444" d="M8.784 16.374c-0.093 0-0.187-0.036-0.258-0.108-0.142-0.144-0.142-0.377 0-0.52l14.432-14.571c0.142-0.144 0.373-0.144 0.516 0s0.142 0.377 0 0.52l-14.432 14.571c-0.071 0.072-0.164 0.108-0.258 0.108z"></path>
<path fill="#444444" d="M23.216 0.32c0.296 0 0.574 0.117 0.782 0.328 0.207 0.208 0.322 0.488 0.322 0.787s-0.116 0.579-0.325 0.789l-14.429 14.57c-0.429 0.425-1.152 0.417-1.562 0-0.208-0.209-0.324-0.49-0.324-0.788s0.116-0.579 0.325-0.79l14.431-14.569c0.207-0.21 0.484-0.327 0.78-0.327z"></path>
<path fill="#444444" d="M23.216 30.944c-0.093 0-0.187-0.036-0.258-0.108l-14.432-14.571c-0.142-0.144-0.142-0.377 0-0.52s0.373-0.144 0.516 0l14.432 14.571c0.142 0.144 0.142 0.377 0 0.52-0.071 0.072-0.165 0.108-0.258 0.108z"></path>
<path fill="#444444" d="M8.784 14.89c0.295 0 0.572 0.116 0.78 0.325l14.432 14.572c0.208 0.209 0.324 0.49 0.324 0.788s-0.116 0.579-0.325 0.789c-0.407 0.417-1.146 0.422-1.562-0.004l-14.429-14.567c-0.208-0.209-0.324-0.49-0.324-0.788s0.116-0.579 0.325-0.79c0.205-0.209 0.483-0.325 0.779-0.325z"></path>
</svg>
