<?xml version="1.0" encoding="utf-8"?>
<!-- Generated by IcoMoon.io -->
<!DOCTYPE svg PUBLIC "-//W3C//DTD SVG 1.1//EN" "http://www.w3.org/Graphics/SVG/1.1/DTD/svg11.dtd">
<svg version="1.1" xmlns="http://www.w3.org/2000/svg" xmlns:xlink="http://www.w3.org/1999/xlink" width="32" height="32" viewBox="0 0 32 32">
<path fill="#444444" d="M16 32c-4.411 0-8-3.589-8-8v-18.182h2.909v18.182c0 2.807 2.284 5.091 5.091 5.091s5.091-2.284 5.091-5.091v-18.182c0-1.605-1.305-2.909-2.909-2.909s-2.909 1.305-2.909 2.909h-0.054c0.054 0.636 0.054 1.546 0.054 2.841v15.341c0 0.262 0.133 0.435 0.212 0.514s0.252 0.213 0.514 0.213c0.402 0 0.727-0.326 0.727-0.727v-18.182h2.909v18.182c0 2.005-1.631 3.636-3.636 3.636s-3.636-1.631-3.636-3.636c0.001-0.235 0.001-17.946 0-18.175 0-3.214 2.61-5.825 5.818-5.825s5.818 2.61 5.818 5.818v18.182c0 4.411-3.589 8-8 8z"></path>
</svg>
