<?xml version="1.0" encoding="utf-8"?>
<!-- Generated by IcoMoon.io -->
<!DOCTYPE svg PUBLIC "-//W3C//DTD SVG 1.1//EN" "http://www.w3.org/Graphics/SVG/1.1/DTD/svg11.dtd">
<svg version="1.1" xmlns="http://www.w3.org/2000/svg" xmlns:xlink="http://www.w3.org/1999/xlink" width="32" height="32" viewBox="0 0 32 32">
<path fill="#444444" d="M26.4 3.2h-2.4v-2.4c0-0.442-0.358-0.8-0.8-0.8s-0.8 0.358-0.8 0.8v2.4h-12.8v-2.4c0-0.442-0.358-0.8-0.8-0.8s-0.8 0.358-0.8 0.8v2.4h-2.4c-2.206 0-4 1.794-4 4v20.8c0 2.206 1.794 4 4 4h20.8c2.206 0 4-1.794 4-4v-20.8c0-2.206-1.794-4-4-4zM3.2 7.2c0-1.323 1.077-2.4 2.4-2.4h2.4v0.8c0 0.442 0.358 0.8 0.8 0.8s0.8-0.358 0.8-0.8v-0.8h12.8v0.8c0 0.442 0.358 0.8 0.8 0.8s0.8-0.358 0.8-0.8v-0.8h2.4c1.323 0 2.4 1.077 2.4 2.4v2.4h-25.6v-2.4zM28.8 28c0 1.323-1.077 2.4-2.4 2.4h-20.8c-1.323 0-2.4-1.077-2.4-2.4v-16.8h25.6v16.8z"></path>
<path fill="#444444" d="M8 17.6h16c0.442 0 0.8-0.358 0.8-0.8s-0.358-0.8-0.8-0.8h-16c-0.442 0-0.8 0.358-0.8 0.8s0.358 0.8 0.8 0.8z"></path>
<path fill="#444444" d="M8 22.4h4c0.442 0 0.8-0.358 0.8-0.8s-0.358-0.8-0.8-0.8h-4c-0.442 0-0.8 0.358-0.8 0.8s0.358 0.8 0.8 0.8z"></path>
<path fill="#444444" d="M24 20.8h-8c-0.442 0-0.8 0.358-0.8 0.8s0.358 0.8 0.8 0.8h8c0.442 0 0.8-0.358 0.8-0.8s-0.358-0.8-0.8-0.8z"></path>
</svg>
