<?xml version="1.0" encoding="utf-8"?>
<!-- Generated by IcoMoon.io -->
<!DOCTYPE svg PUBLIC "-//W3C//DTD SVG 1.1//EN" "http://www.w3.org/Graphics/SVG/1.1/DTD/svg11.dtd">
<svg version="1.1" xmlns="http://www.w3.org/2000/svg" xmlns:xlink="http://www.w3.org/1999/xlink" width="32" height="32" viewBox="0 0 32 32">
<path fill="#444444" d="M29.074 20.366c-0.834 0-1.633-0.362-2.199-1.029l-3.182-3.223c-0.035-0.036-0.069-0.074-0.101-0.113l-16.318-0.001c-1.605 0-2.909-1.305-2.909-2.909v-10.182c0-1.604 1.304-2.909 2.909-2.909h21.818c1.604 0 2.909 1.305 2.909 2.909v14.542c0 1.253-0.764 2.33-1.946 2.745-0.324 0.114-0.654 0.17-0.98 0.17zM25.807 14.114l3.183 3.224c0.035 0.036 0.070 0.074 0.102 0.114l-0.001-14.543h-21.818v10.182h16.319c0.858 0.001 1.66 0.373 2.215 1.024z"></path>
<path fill="#444444" d="M2.908 31.997c-0.49 0-0.981-0.123-1.423-0.371-0.916-0.514-1.485-1.486-1.485-2.537v-8.725c0-1.605 1.305-2.909 2.909-2.909h16c1.605 0 2.909 1.305 2.909 2.909v5.818c0 1.605-1.305 2.909-2.909 2.909h-11.862l-2.37 2.286c-0.077 0.074-0.162 0.139-0.252 0.194-0.465 0.283-0.99 0.425-1.517 0.425zM18.909 20.362l-16 0.002v8.677l2.32-2.238c0.077-0.074 0.162-0.139 0.252-0.194 0.457-0.278 0.981-0.426 1.516-0.426h11.912v-5.821z"></path>
<path fill="#444444" d="M10.182 4.364h14.546v2.909h-14.546v-2.909z"></path>
<path fill="#444444" d="M10.182 8.727h4.364v2.909h-4.364v-2.909z"></path>
<path fill="#444444" d="M5.818 21.818h10.182v2.909h-10.182v-2.909z"></path>
<path fill="#444444" d="M17.454 8.727h7.273v2.909h-7.273v-2.909z"></path>
</svg>
