<?xml version="1.0" encoding="utf-8"?>
<!-- Generated by IcoMoon.io -->
<!DOCTYPE svg PUBLIC "-//W3C//DTD SVG 1.1//EN" "http://www.w3.org/Graphics/SVG/1.1/DTD/svg11.dtd">
<svg version="1.1" xmlns="http://www.w3.org/2000/svg" xmlns:xlink="http://www.w3.org/1999/xlink" width="32" height="32" viewBox="0 0 32 32">
<path fill="#444444" d="M14.59 29.085c-1.834-0.197-3.571-0.77-5.165-1.704-0.693-0.403-1.584-0.17-1.989 0.528-0.405 0.696-0.17 1.592 0.525 1.998 1.95 1.142 4.077 1.843 6.322 2.083 0.051 0.006 0.104 0.010 0.155 0.010 0.733 0 1.365-0.557 1.443-1.307 0.086-0.803-0.493-1.523-1.291-1.608z"></path>
<path fill="#444444" d="M9.47 4.595c0.696-0.405 0.934-1.298 0.533-1.997-0.403-0.699-1.291-0.941-1.987-0.536-1.922 1.115-3.632 2.658-4.946 4.464-0.474 0.651-0.333 1.566 0.317 2.043 0.259 0.19 0.56 0.282 0.858 0.282 0.45 0 0.891-0.206 1.176-0.6 1.074-1.478 2.475-2.742 4.050-3.656z"></path>
<path fill="#444444" d="M17.382 2.915c1.835 0.194 3.574 0.763 5.17 1.691 0.229 0.134 0.48 0.197 0.728 0.197 0.502 0 0.99-0.261 1.259-0.73 0.403-0.698 0.166-1.592-0.53-1.997-1.952-1.136-4.080-1.834-6.326-2.069-0.789-0.088-1.515 0.499-1.598 1.301-0.082 0.805 0.499 1.525 1.298 1.606z"></path>
<path fill="#444444" d="M2.909 16.002v-0.030c0-0.808-0.651-1.448-1.454-1.448s-1.454 0.67-1.454 1.478c0 2.262 0.459 4.453 1.365 6.509 0.242 0.547 0.773 0.87 1.331 0.87 0.197 0 0.397-0.040 0.589-0.125 0.734-0.325 1.067-1.189 0.741-1.928-0.741-1.682-1.117-3.474-1.117-5.326z"></path>
<path fill="#444444" d="M26.563 23.774c-1.077 1.477-2.48 2.738-4.058 3.648-0.696 0.402-0.938 1.294-0.538 1.997 0.269 0.47 0.758 0.734 1.262 0.734 0.246 0 0.494-0.062 0.723-0.194 1.954-1.128 3.621-2.626 4.955-4.453 0.475-0.653 0.334-1.566-0.314-2.045-0.648-0.48-1.557-0.336-2.032 0.312z"></path>
<path fill="#444444" d="M30.622 9.462c-0.328-0.738-1.189-1.074-1.92-0.739-0.734 0.328-1.064 1.192-0.738 1.93 0.747 1.686 1.126 3.485 1.126 5.349v0.059c0 0.808 0.651 1.432 1.454 1.432s1.454-0.683 1.454-1.491c0-2.275-0.464-4.475-1.378-6.539z"></path>
<path fill="#444444" d="M22.4 16.002c0-0.885-0.717-1.6-1.6-1.6h-3.2v-3.2c0-0.885-0.717-1.6-1.6-1.6s-1.6 0.715-1.6 1.6v3.2h-3.2c-0.883 0-1.6 0.715-1.6 1.6s0.717 1.6 1.6 1.6h3.2v3.2c0 0.885 0.717 1.6 1.6 1.6s1.6-0.715 1.6-1.6v-3.2h3.2c0.883 0 1.6-0.715 1.6-1.6z"></path>
</svg>
