<?xml version="1.0" encoding="utf-8"?>
<!-- Generated by IcoMoon.io -->
<!DOCTYPE svg PUBLIC "-//W3C//DTD SVG 1.1//EN" "http://www.w3.org/Graphics/SVG/1.1/DTD/svg11.dtd">
<svg version="1.1" xmlns="http://www.w3.org/2000/svg" xmlns:xlink="http://www.w3.org/1999/xlink" width="46" height="32" viewBox="0 0 46 32">
<path fill="#444444" d="M7.801 18.286h17.339c1.262 0 2.286-1.022 2.286-2.286s-1.024-2.286-2.286-2.286h-17.339l7.527-7.527c0.894-0.894 0.894-2.338 0-3.232s-2.338-0.894-3.232 0l-11.426 11.426c-0.213 0.213-0.379 0.464-0.496 0.745-0.231 0.558-0.231 1.189 0 1.746 0.117 0.281 0.283 0.533 0.496 0.745l11.426 11.426c0.446 0.446 1.031 0.67 1.616 0.67s1.17-0.224 1.616-0.67c0.894-0.894 0.894-2.338 0-3.232l-7.527-7.527z"></path>
<path fill="#444444" d="M29.097 0c-3.627 0-7.077 1.106-9.97 3.2-0.933 0.674-1.12 1.95-0.421 2.846 0.699 0.898 2.025 1.079 2.953 0.405 2.158-1.561 4.729-2.386 7.435-2.386 6.834 0 12.395 5.355 12.395 11.936s-5.561 11.936-12.395 11.936c-2.704 0-5.273-0.823-7.431-2.382-0.933-0.67-2.254-0.491-2.953 0.407-0.699 0.896-0.512 2.171 0.421 2.843 2.896 2.089 6.341 3.195 9.966 3.195 9.161 0 16.615-7.177 16.615-16s-7.454-16-16.615-16z"></path>
</svg>
