<?xml version="1.0" encoding="utf-8"?>
<!-- Generated by IcoMoon.io -->
<!DOCTYPE svg PUBLIC "-//W3C//DTD SVG 1.1//EN" "http://www.w3.org/Graphics/SVG/1.1/DTD/svg11.dtd">
<svg version="1.1" xmlns="http://www.w3.org/2000/svg" xmlns:xlink="http://www.w3.org/1999/xlink" width="29" height="32" viewBox="0 0 29 32">
<path fill="#444444" d="M14.306 17.453c0.032 0 0.066 0 0.098 0 2.294 0 4.458-0.88 6.101-2.488 1.666-1.63 2.597-3.813 2.622-6.144 0.053-4.811-3.821-8.768-8.632-8.821-0.032 0-0.062 0-0.094 0-4.77 0-8.675 3.854-8.726 8.634-0.026 2.331 0.859 4.531 2.49 6.197 1.63 1.667 3.813 2.598 6.142 2.622zM14.4 2.909c0.021 0 0.042 0 0.062 0 3.208 0.035 5.789 2.674 5.754 5.882-0.016 1.554-0.638 3.008-1.747 4.094-1.11 1.088-2.645 1.669-4.131 1.659-1.554-0.018-3.008-0.638-4.096-1.747-1.088-1.11-1.677-2.578-1.659-4.133 0.034-3.187 2.638-5.755 5.818-5.755z"></path>
<path fill="#444444" d="M21.958 19.245c-0.773-0.194-1.555 0.264-1.754 1.026-0.197 0.76 0.267 1.534 1.037 1.731 2.93 0.742 4.678 3.299 4.678 6.845v0.31h-23.040v-0.31c0-3.544 1.749-6.102 4.678-6.845 0.77-0.195 1.235-0.971 1.037-1.731-0.197-0.762-0.979-1.221-1.754-1.026-4.219 1.070-6.842 4.747-6.842 9.6v1.733c0 0.786 0.645 1.422 1.44 1.422h25.92c0.795 0 1.44-0.637 1.44-1.422v-1.733c0-4.853-2.622-8.53-6.842-9.6z"></path>
</svg>
