<?xml version="1.0" encoding="utf-8"?>
<!-- Generated by IcoMoon.io -->
<!DOCTYPE svg PUBLIC "-//W3C//DTD SVG 1.1//EN" "http://www.w3.org/Graphics/SVG/1.1/DTD/svg11.dtd">
<svg version="1.1" xmlns="http://www.w3.org/2000/svg" xmlns:xlink="http://www.w3.org/1999/xlink" width="32" height="32" viewBox="0 0 32 32">
<path fill="#444444" d="M17.342 16.555c0.147-0.355 0.147-0.757 0-1.112-0.074-0.179-0.181-0.339-0.315-0.474l-7.272-7.27c-0.568-0.568-1.488-0.568-2.058 0s-0.568 1.488 0 2.058l4.79 4.79h-11.034c-0.803-0.002-1.454 0.65-1.454 1.453s0.651 1.454 1.454 1.454h11.034l-4.79 4.79c-0.568 0.568-0.568 1.488 0 2.058 0.285 0.283 0.656 0.426 1.029 0.426s0.744-0.142 1.029-0.426l7.272-7.272c0.134-0.136 0.242-0.296 0.315-0.475z"></path>
<path fill="#444444" d="M24.728 0h-10.182c-0.803 0-1.454 0.651-1.454 1.454 0 0.805 0.651 1.454 1.454 1.454h10.182c2.406 0 4.363 1.957 4.363 4.363v17.454c0 2.406-1.957 4.363-4.363 4.363h-10.182c-0.803 0-1.454 0.65-1.454 1.454s0.651 1.456 1.454 1.456h10.182c4.010 0 7.272-3.262 7.272-7.272v-17.456c0-4.010-3.262-7.272-7.272-7.272z"></path>
</svg>
