<?xml version="1.0" encoding="utf-8"?>
<!-- Generated by IcoMoon.io -->
<!DOCTYPE svg PUBLIC "-//W3C//DTD SVG 1.1//EN" "http://www.w3.org/Graphics/SVG/1.1/DTD/svg11.dtd">
<svg version="1.1" xmlns="http://www.w3.org/2000/svg" xmlns:xlink="http://www.w3.org/1999/xlink" width="32" height="32" viewBox="0 0 32 32">
<path fill="#444444" d="M29.091 14.545h-7.22c-2.435 0-4.416-1.981-4.416-4.416v-7.22c0-0.804 0.652-1.455 1.455-1.455s1.455 0.65 1.455 1.455v7.22c0 0.831 0.676 1.507 1.507 1.507h7.22c0.803 0 1.455 0.65 1.455 1.455s-0.652 1.455-1.455 1.455z"></path>
<path fill="#444444" d="M27.892 32h-23.785c-2.265 0-4.108-1.843-4.108-4.108v-23.785c0-2.265 1.843-4.108 4.108-4.108h17.252c0.385 0 0.756 0.153 1.028 0.426l9.185 9.185c0.273 0.273 0.426 0.643 0.426 1.028v17.251c0 2.266-1.843 4.109-4.108 4.109zM4.108 2.909c-0.66 0-1.199 0.538-1.199 1.199v23.785c0 0.66 0.538 1.199 1.199 1.199h23.786c0.659 0 1.197-0.538 1.197-1.199v-16.65l-8.333-8.333h-16.65z"></path>
</svg>
