<?xml version="1.0" encoding="utf-8"?>
<!-- Generated by IcoMoon.io -->
<!DOCTYPE svg PUBLIC "-//W3C//DTD SVG 1.1//EN" "http://www.w3.org/Graphics/SVG/1.1/DTD/svg11.dtd">
<svg version="1.1" xmlns="http://www.w3.org/2000/svg" xmlns:xlink="http://www.w3.org/1999/xlink" width="16" height="32" viewBox="0 0 16 32">
<path fill="#444444" d="M1.455 25.455c-0.803 0-1.455-0.65-1.455-1.455v-15.273c0-0.804 0.652-1.455 1.455-1.455s1.455 0.65 1.455 1.455v15.273c0 0.804-0.652 1.455-1.455 1.455z"></path>
<path fill="#444444" d="M14.545 25.455c-0.803 0-1.455-0.65-1.455-1.455v-18.182c0-0.804 0.652-1.455 1.455-1.455s1.455 0.65 1.455 1.455v18.182c0 0.804-0.652 1.455-1.455 1.455z"></path>
<path fill="#444444" d="M10.182 25.455c-0.803 0-1.455-0.65-1.455-1.455v-15.273c0-0.804 0.652-1.455 1.455-1.455s1.455 0.65 1.455 1.455v15.273c0 0.804-0.652 1.455-1.455 1.455z"></path>
<path fill="#444444" d="M5.818 25.455c-0.803 0-1.455-0.65-1.455-1.455v-18.182c0-0.804 0.652-1.455 1.455-1.455s1.455 0.65 1.455 1.455v18.182c0 0.804-0.652 1.455-1.455 1.455z"></path>
<path fill="#444444" d="M8 32c-4.412 0-8-3.59-8-8 0-0.804 0.652-1.455 1.455-1.455s1.455 0.65 1.455 1.455c0 2.807 2.284 5.091 5.091 5.091s5.091-2.284 5.091-5.091c0-0.804 0.652-1.455 1.455-1.455s1.455 0.65 1.455 1.455c0 4.41-3.588 8-8 8z"></path>
<path fill="#444444" d="M8 27.636c-2.004 0-3.636-1.631-3.636-3.636 0-0.804 0.652-1.455 1.455-1.455s1.455 0.65 1.455 1.455c0 0.4 0.326 0.727 0.727 0.727s0.727-0.327 0.727-0.727c0-0.804 0.652-1.455 1.455-1.455s1.455 0.65 1.455 1.455c0 2.006-1.632 3.636-3.636 3.636z"></path>
<path fill="#444444" d="M14.545 7.273c-0.803 0-1.455-0.65-1.455-1.455 0-1.604-1.305-2.909-2.909-2.909s-2.909 1.305-2.909 2.909c0 0.804-0.652 1.455-1.455 1.455s-1.455-0.65-1.455-1.455c0-3.209 2.609-5.818 5.818-5.818s5.818 2.609 5.818 5.818c0 0.804-0.652 1.455-1.455 1.455z"></path>
</svg>
