<?xml version="1.0" encoding="utf-8"?>
<!-- Generated by IcoMoon.io -->
<!DOCTYPE svg PUBLIC "-//W3C//DTD SVG 1.1//EN" "http://www.w3.org/Graphics/SVG/1.1/DTD/svg11.dtd">
<svg version="1.1" xmlns="http://www.w3.org/2000/svg" xmlns:xlink="http://www.w3.org/1999/xlink" width="35" height="32" viewBox="0 0 35 32">
<path fill="#444444" d="M9.142 15.888c-0.55 0-1.085-0.283-1.382-0.792l-1.885-3.224-3.387 2.259c-0.736 0.488-1.73 0.29-2.219-0.443-0.49-0.736-0.291-1.728 0.443-2.219l4.8-3.2c0.366-0.243 0.818-0.325 1.248-0.229 0.429 0.099 0.798 0.371 1.021 0.752l2.741 4.688c0.446 0.763 0.189 1.742-0.573 2.189-0.253 0.149-0.531 0.219-0.806 0.219z"></path>
<path fill="#444444" d="M19.2 32c-8.822 0-16-7.178-16-16 0-2.899 1.098-5.68 1.75-7.078 0.374-0.802 1.326-1.146 2.126-0.771s1.146 1.326 0.771 2.128c-0.92 1.97-1.448 4.056-1.448 5.722 0 7.058 5.742 12.8 12.8 12.8s12.8-5.742 12.8-12.8-5.742-12.8-12.8-12.8c-1.507 0-2.981 0.258-4.379 0.766-0.832 0.302-1.749-0.125-2.051-0.955s0.126-1.749 0.957-2.050c1.75-0.638 3.592-0.962 5.474-0.962 8.822 0 16 7.178 16 16s-7.178 16-16 16z"></path>
</svg>
