<?xml version="1.0" encoding="utf-8"?>
<!-- Generated by IcoMoon.io -->
<!DOCTYPE svg PUBLIC "-//W3C//DTD SVG 1.1//EN" "http://www.w3.org/Graphics/SVG/1.1/DTD/svg11.dtd">
<svg version="1.1" xmlns="http://www.w3.org/2000/svg" xmlns:xlink="http://www.w3.org/1999/xlink" width="32" height="32" viewBox="0 0 32 32">
<path fill="rgb(68, 68, 68)" d="M28.99 3.757c-0.219-0.045-0.444-0.067-0.668-0.067h-24.645c-0.224 0-0.449 0.023-0.668 0.067-0.956 0.195-1.78 0.798-2.262 1.656-0.28 0.498-0.428 1.063-0.428 1.634v17.906c0 1.851 1.506 3.357 3.357 3.357h24.645c1.852 0 3.357-1.506 3.357-3.357v-17.906c0-0.571-0.148-1.136-0.428-1.634-0.482-0.858-1.307-1.461-2.262-1.656zM26.217 6.142l-10.217 8.228-10.217-8.228h20.433zM29.228 24.953c0 0.49-0.414 0.905-0.905 0.905h-24.646c-0.491 0-0.905-0.414-0.905-0.905v-18.086l13.228 10.651 13.228-10.651v18.086z"></path>
</svg>
