<?xml version="1.0" encoding="utf-8"?>
<!-- Generated by IcoMoon.io -->
<!DOCTYPE svg PUBLIC "-//W3C//DTD SVG 1.1//EN" "http://www.w3.org/Graphics/SVG/1.1/DTD/svg11.dtd">
<svg version="1.1" xmlns="http://www.w3.org/2000/svg" xmlns:xlink="http://www.w3.org/1999/xlink" width="22" height="32" viewBox="0 0 22 32">
<path fill="#444444" d="M21.962 4.789c-0.658-1.829-1.974-3.286-3.71-4.107-0.957-0.453-1.974-0.682-3.024-0.682-2.786 0-5.346 1.65-6.52 4.2l-1.818 3.947c-0.261 0.568-0.018 1.245 0.542 1.509 0.149 0.070 0.309 0.107 0.472 0.107 0.434 0 0.834-0.258 1.016-0.656l1.818-3.947c0.808-1.755 2.568-2.89 4.485-2.89 0.723 0 1.422 0.158 2.082 0.469 2.469 1.166 3.542 4.15 2.39 6.653l-1.83 3.974c-0.126 0.275-0.139 0.582-0.037 0.867s0.309 0.512 0.579 0.64c0.15 0.070 0.309 0.107 0.472 0.107 0.434 0 0.834-0.258 1.016-0.656l1.83-3.974c0.608-1.917 0.894-3.734 0.237-5.562z"></path>
<path fill="#444444" d="M13.693 27.8l1.83-3.976c0.126-0.275 0.139-0.582 0.037-0.867s-0.309-0.512-0.579-0.64c-0.15-0.070-0.309-0.107-0.472-0.107-0.434 0-0.834 0.258-1.016 0.656l-1.83 3.976c-0.808 1.755-2.568 2.89-4.485 2.89-0.723 0-1.422-0.158-2.082-0.469-1.195-0.565-2.101-1.568-2.554-2.826-0.451-1.258-0.394-2.616 0.163-3.827l1.816-3.947c0.261-0.566 0.018-1.243-0.542-1.509-0.149-0.070-0.309-0.106-0.472-0.106-0.434 0-0.834 0.258-1.016 0.656l-1.818 3.947c-0.81 1.758-0.574 3.618-0.237 5.562 0.658 1.829 1.974 3.286 3.71 4.107 0.958 0.451 1.976 0.68 3.024 0.68 2.787 0 5.347-1.65 6.522-4.2z"></path>
<path fill="#444444" d="M7.896 23.179c0.198 0.094 0.408 0.141 0.626 0.141 0.574 0 1.102-0.341 1.344-0.867l5.355-11.637c0.346-0.75 0.024-1.645-0.717-1.995-0.198-0.093-0.408-0.141-0.626-0.141-0.574 0-1.102 0.341-1.344 0.867l-5.357 11.635c-0.168 0.363-0.186 0.771-0.050 1.149 0.136 0.376 0.41 0.678 0.768 0.848z"></path>
</svg>
