<?xml version="1.0" encoding="utf-8"?>
<!-- Generated by IcoMoon.io -->
<!DOCTYPE svg PUBLIC "-//W3C//DTD SVG 1.1//EN" "http://www.w3.org/Graphics/SVG/1.1/DTD/svg11.dtd">
<svg version="1.1" xmlns="http://www.w3.org/2000/svg" xmlns:xlink="http://www.w3.org/1999/xlink" width="32" height="32" viewBox="0 0 32 32">
<path fill="#444444" d="M16 32c-8.822 0-16-7.178-16-16s7.178-16 16-16 16 7.178 16 16-7.178 16-16 16zM16 2.909c-7.217 0-13.091 5.872-13.091 13.091s5.873 13.091 13.091 13.091 13.091-5.872 13.091-13.091-5.873-13.091-13.091-13.091z"></path>
<path fill="#444444" d="M20.364 20.364h-5.818c-0.803 0-1.455-0.65-1.455-1.455v-7.273c0-0.804 0.652-1.455 1.455-1.455s1.455 0.65 1.455 1.455v5.818h4.364c0.803 0 1.455 0.65 1.455 1.455s-0.652 1.455-1.455 1.455z"></path>
</svg>
