<?xml version="1.0" encoding="utf-8"?>
<!-- Generated by IcoMoon.io -->
<!DOCTYPE svg PUBLIC "-//W3C//DTD SVG 1.1//EN" "http://www.w3.org/Graphics/SVG/1.1/DTD/svg11.dtd">
<svg version="1.1" xmlns="http://www.w3.org/2000/svg" xmlns:xlink="http://www.w3.org/1999/xlink" width="29" height="32" viewBox="0 0 29 32">
<path fill="#444444" d="M14.543 18.181c-0.033 0-0.067 0-0.1 0-5.012-0.054-9.045-4.176-8.992-9.187 0.054-5.012 4.166-9.099 9.188-8.993 2.428 0.026 4.701 0.998 6.398 2.732 1.699 1.735 2.62 4.030 2.593 6.456-0.026 2.428-0.996 4.699-2.732 6.398-1.712 1.677-3.965 2.593-6.356 2.593zM14.54 2.91c-3.377 0-6.144 2.729-6.18 6.115-0.036 3.408 2.707 6.211 6.115 6.247 0.023 0 0.045 0 0.068 0 1.626 0 3.158-0.624 4.321-1.763 1.18-1.155 1.84-2.7 1.857-4.35 0.017-1.652-0.608-3.21-1.763-4.391s-2.7-1.841-4.35-1.857c-0.023 0-0.047 0-0.068 0z"></path>
<path fill="#444444" d="M27.635 32h-26.181c-0.803 0-1.454-0.65-1.454-1.454v-1.773c0-3.661 0.678-8.158 5.963-10.468 0.736-0.324 1.594 0.013 1.916 0.75 0.321 0.736-0.015 1.594-0.75 1.914-3.037 1.328-4.219 3.515-4.219 7.805v0.319h23.272v-0.319c0-4.288-1.183-6.477-4.218-7.803-0.736-0.321-1.072-1.18-0.75-1.914 0.321-0.737 1.18-1.073 1.916-0.75 5.286 2.31 5.963 6.808 5.963 10.468v1.773c-0.001 0.803-0.653 1.453-1.456 1.453z"></path>
</svg>
