<?xml version="1.0" encoding="utf-8"?>
<!-- Generated by IcoMoon.io -->
<!DOCTYPE svg PUBLIC "-//W3C//DTD SVG 1.1//EN" "http://www.w3.org/Graphics/SVG/1.1/DTD/svg11.dtd">
<svg version="1.1" xmlns="http://www.w3.org/2000/svg" xmlns:xlink="http://www.w3.org/1999/xlink" width="23" height="32" viewBox="0 0 23 32">
<path fill="#444444" d="M21.818 32h-20.364c-0.803 0-1.455-0.65-1.455-1.455v-19.393c0-0.397 0.163-0.778 0.452-1.055l10.182-9.696c0.561-0.537 1.444-0.537 2.006 0l10.182 9.696c0.288 0.276 0.451 0.657 0.451 1.055v19.393c0 0.804-0.652 1.455-1.455 1.455zM2.909 29.091h17.455v-17.315l-8.727-8.313-8.727 8.313v17.315z"></path>
<path fill="#444444" d="M11.636 16.243c-2.473 0-4.484-2.013-4.484-4.486s2.012-4.484 4.484-4.484 4.484 2.012 4.484 4.484-2.012 4.486-4.484 4.486zM11.636 10.182c-0.87 0-1.575 0.707-1.575 1.575s0.705 1.577 1.575 1.577 1.575-0.707 1.575-1.577-0.705-1.575-1.575-1.575z"></path>
<path fill="#444444" d="M16 21.818h-8.727c-0.803 0-1.455-0.65-1.455-1.455s0.652-1.455 1.455-1.455h8.727c0.803 0 1.455 0.65 1.455 1.455s-0.652 1.455-1.455 1.455z"></path>
<path fill="#444444" d="M16 26.182h-8.727c-0.803 0-1.455-0.65-1.455-1.455s0.652-1.455 1.455-1.455h8.727c0.803 0 1.455 0.65 1.455 1.455s-0.652 1.455-1.455 1.455z"></path>
</svg>
