<?xml version="1.0" encoding="utf-8"?>
<!-- Generated by IcoMoon.io -->
<!DOCTYPE svg PUBLIC "-//W3C//DTD SVG 1.1//EN" "http://www.w3.org/Graphics/SVG/1.1/DTD/svg11.dtd">
<svg version="1.1" xmlns="http://www.w3.org/2000/svg" xmlns:xlink="http://www.w3.org/1999/xlink" width="32" height="32" viewBox="0 0 32 32">
<path fill="#444444" d="M16 32c-8.823 0-16-7.178-16-16s7.177-16 16-16 16 7.178 16 16-7.177 16-16 16zM16 1.524c-7.982 0-14.476 6.494-14.476 14.476s6.494 14.476 14.476 14.476 14.476-6.494 14.476-14.476-6.494-14.476-14.476-14.476z"></path>
<path fill="#444444" d="M19.048 10.667c-0.639 0-1.196 0-1.524 0s-0.762 0.503-0.762 0.762c0 0.258 0 1.524 0 1.524s2.020 0 2.286 0c-0.093 1.329 0 3.048 0 3.048h-2.286v6.857h-3.048v-6.857h-1.524v-3.048h1.524c0 0 0-1.144 0-1.524s-0.117-3.048 3.078-3.048c0.429 0 1.401 0 2.255 0 0 1.101 0 1.941 0 2.286z"></path>
</svg>
