<?xml version="1.0" encoding="utf-8"?>
<!-- Generated by IcoMoon.io -->
<!DOCTYPE svg PUBLIC "-//W3C//DTD SVG 1.1//EN" "http://www.w3.org/Graphics/SVG/1.1/DTD/svg11.dtd">
<svg version="1.1" xmlns="http://www.w3.org/2000/svg" xmlns:xlink="http://www.w3.org/1999/xlink" width="32" height="32" viewBox="0 0 32 32">
<path fill="#444444" d="M28.364 2.909h-0.798c-0.329-1.678-1.777-2.909-3.566-2.909h-20.364c-2.038 0-3.636 1.598-3.636 3.636v20.364c0 1.789 1.23 3.236 2.908 3.565v0.759c0 2.061 1.598 3.676 3.638 3.676h21.818c2.038 0 3.636-1.598 3.636-3.636v-21.818c0-2.039-1.598-3.637-3.636-3.637zM2.909 3.636c0-0.421 0.306-0.727 0.727-0.727h20.364c0.421 0 0.727 0.306 0.727 0.727v2.182l0.001 18.182c0 0.421-0.306 0.726-0.728 0.726h-20.364c-0.421 0-0.727-0.306-0.727-0.727v-20.363zM29.091 28.364c0 0.421-0.306 0.727-0.727 0.727h-21.818c-0.436 0-0.729-0.308-0.729-0.767v-0.687h18.183c2.040 0 3.637-1.598 3.637-3.636l-0.001-18.182h0.727c0.421 0 0.727 0.306 0.727 0.727v21.818z"></path>
<path fill="#444444" d="M5.818 5.818h16v2.909h-16v-2.909z"></path>
<path fill="#444444" d="M5.818 11.636h16v2.909h-16v-2.909z"></path>
<path fill="#444444" d="M5.818 17.454h9.454v2.909h-9.454v-2.909z"></path>
</svg>
