<?xml version="1.0" encoding="utf-8"?>
<!-- Generated by IcoMoon.io -->
<!DOCTYPE svg PUBLIC "-//W3C//DTD SVG 1.1//EN" "http://www.w3.org/Graphics/SVG/1.1/DTD/svg11.dtd">
<svg version="1.1" xmlns="http://www.w3.org/2000/svg" xmlns:xlink="http://www.w3.org/1999/xlink" width="32" height="32" viewBox="0 0 32 32">
<path fill="#444444" d="M28.071 3.68h-24.143c-1.985 0-3.609 1.616-3.609 3.591v17.457c0 1.975 1.624 3.592 3.609 3.592h24.143c1.985 0 3.609-1.616 3.609-3.591v-17.457c0-1.975-1.624-3.591-3.609-3.591zM3.929 4.447h24.143c0.211 0 0.418 0.024 0.62 0.069l-12.691 10.171-12.691-10.171c0.201-0.045 0.409-0.069 0.62-0.069zM27.994 27.553h-23.988v-16.534l11.752 9.419c0.141 0.113 0.342 0.113 0.483 0l11.752-9.419v16.534zM30.91 24.729c0 0.751-0.296 1.459-0.835 1.995-0.369 0.368-0.82 0.622-1.311 0.745v-17.25c0-0.148-0.085-0.282-0.219-0.346s-0.292-0.045-0.408 0.047l-12.137 9.727-12.137-9.727c-0.116-0.092-0.274-0.111-0.408-0.047s-0.219 0.198-0.219 0.346v17.25c-0.491-0.123-0.942-0.378-1.311-0.745-0.538-0.536-0.835-1.244-0.835-1.995v-17.457c0-0.751 0.296-1.459 0.835-1.995 0.178-0.177 0.374-0.326 0.585-0.449 0.023 0.038 0.052 0.072 0.088 0.101l13.161 10.548c0.070 0.057 0.156 0.085 0.242 0.085s0.171-0.028 0.242-0.085l13.238-10.61c0.011-0.009 0.021-0.018 0.031-0.028 0.203 0.12 0.393 0.266 0.564 0.437 0.538 0.536 0.835 1.244 0.835 1.995v17.457z"></path>
</svg>
