<?xml version="1.0" encoding="utf-8"?>
<!-- Generated by IcoMoon.io -->
<!DOCTYPE svg PUBLIC "-//W3C//DTD SVG 1.1//EN" "http://www.w3.org/Graphics/SVG/1.1/DTD/svg11.dtd">
<svg version="1.1" xmlns="http://www.w3.org/2000/svg" xmlns:xlink="http://www.w3.org/1999/xlink" width="32" height="32" viewBox="0 0 32 32">
<path fill="#444444" d="M19.061 31.68c-1.735 0-3.332-1.399-3.56-3.118l-0.235-1.77c-0.113-0.849 0.117-1.672 0.647-2.318s1.292-1.034 2.147-1.090l0.557-0.036c0.134-0.009 0.268-0.013 0.4-0.013 0.724 0 1.398 0.134 1.899 0.378 0.592 0.288 0.918 0.714 0.918 1.2-0.001 0.963-0.843 1.747-1.878 1.747-0 0-0.004 0-0.004 0-0.598 0-1.119 0.327-1.119 0.701 0 0.375 0.504 0.704 1.079 0.704h2.852c0.547 0 1.059-0.769 1.095-1.645 0.042-1.028-0.202-2.369-0.532-2.928-0.269-0.454-1.687-1.071-3.182-1.218l-0.309-0.030c-1.705-0.167-3.315-1.557-3.589-3.098-0.009-0.051-0.018-0.097-0.027-0.141-0.023 0.113-0.046 0.248-0.069 0.408l-0.185 1.286c-0.107 0.746-0.477 1.424-1.041 1.909-0.557 0.48-1.27 0.744-2.007 0.744-0.19 0-0.382-0.018-0.571-0.052l-4.62-0.848c-0.813-0.149-1.63-0.604-2.301-1.281s-1.118-1.499-1.259-2.313l-1.455-8.385c-0.148-0.851 0.055-1.658 0.572-2.271s1.276-0.951 2.14-0.951h2.049c0.642 0 1.227-0.25 1.646-0.703s0.623-1.056 0.573-1.696l-0.102-1.312c-0.067-0.854 0.208-1.661 0.773-2.272s1.349-0.948 2.205-0.948h1.803c1.758 0 3.29 0.854 3.487 1.945 0.113 0.624 1.265 1.319 2.738 1.319h6.461c1.764 0 3.199 1.435 3.199 3.199v14.017c0 1.569-0.187 4.109-0.417 5.661l-0.309 2.086c-0.254 1.716-1.872 3.115-3.607 3.118l-6.861 0.014zM19.017 24.096c-0.115 0-0.233 0.004-0.35 0.012l-0.557 0.036c-0.642 0.042-1.212 0.331-1.607 0.812s-0.566 1.098-0.481 1.736l0.235 1.77c0.086 0.651 0.428 1.266 0.961 1.733s1.188 0.724 1.844 0.724h0.005l6.854-0.014c0.659-0.001 1.32-0.261 1.863-0.73s0.895-1.087 0.992-1.738l0.309-2.086c0.226-1.522 0.409-4.011 0.409-5.549v-14.018c0-1.344-1.093-2.437-2.437-2.437h-6.461c-1.758 0-3.29-0.854-3.487-1.945-0.113-0.624-1.265-1.319-2.738-1.319h-1.803c-0.642 0-1.227 0.25-1.646 0.703s-0.623 1.056-0.573 1.696l0.102 1.312c0.067 0.854-0.208 1.661-0.773 2.272s-1.348 0.948-2.205 0.948h-2.049c-0.635 0-1.188 0.242-1.557 0.68s-0.512 1.025-0.404 1.651l1.454 8.384c0.236 1.363 1.586 2.726 2.947 2.975l4.62 0.848c0.144 0.026 0.289 0.040 0.433 0.040 1.163 0 2.127-0.841 2.294-2l0.185-1.286c0.16-1.111 0.398-1.564 0.823-1.564 0.483 0 0.659 0.612 0.776 1.273 0.215 1.206 1.549 2.339 2.914 2.473l0.309 0.030c0.781 0.077 1.592 0.273 2.282 0.551 0.52 0.21 1.198 0.56 1.48 1.036 0.407 0.687 0.687 2.157 0.638 3.347-0.025 0.61-0.217 1.188-0.541 1.629-0.353 0.481-0.82 0.746-1.315 0.746h-2.852c-1.015 0-1.841-0.658-1.841-1.466 0-0.806 0.842-1.462 1.877-1.462h0.005c0.618 0 1.119-0.442 1.12-0.985 0-0.25-0.342-0.443-0.49-0.515-0.399-0.194-0.955-0.301-1.565-0.301z"></path>
<path fill="#444444" d="M24.894 16.202c-0.015 0-0.030-0.001-0.045-0.003l-3.266-0.383c-0.209-0.024-0.358-0.214-0.334-0.422s0.213-0.358 0.422-0.334l3.266 0.383c0.209 0.024 0.358 0.214 0.334 0.422-0.022 0.194-0.187 0.336-0.378 0.336z"></path>
<path fill="#444444" d="M24.894 16.202c-0.015 0-0.030-0.001-0.045-0.003-0.209-0.024-0.358-0.214-0.334-0.422 0.039-0.335-0.054-0.666-0.264-0.93s-0.509-0.432-0.844-0.472c-0.335-0.039-0.666 0.054-0.931 0.264s-0.432 0.509-0.471 0.844c-0.025 0.209-0.214 0.359-0.422 0.334s-0.358-0.214-0.334-0.422c0.063-0.537 0.331-1.018 0.756-1.353s0.954-0.485 1.491-0.422c1.109 0.13 1.906 1.138 1.776 2.247-0.023 0.194-0.188 0.336-0.378 0.336z"></path>
<path fill="#444444" d="M6.010 6.693v0c-0.062 0-0.124-0.002-0.186-0.005l-2.342-0.136c-0.53-0.031-1.454-0.189-1.688-0.904s0.419-1.389 0.828-1.727l3.622-2.99c0.481-0.397 0.966-0.607 1.404-0.607 0.673 0 1.393 0.506 1.393 1.924v1.405c0 0.823-0.314 1.59-0.884 2.159-0.568 0.568-1.33 0.881-2.145 0.881zM7.647 1.085c-0.255 0-0.581 0.154-0.919 0.432l-3.622 2.99c-0.514 0.424-0.638 0.752-0.589 0.903s0.343 0.342 1.009 0.381l2.342 0.136c0.047 0.003 0.095 0.004 0.141 0.004v0c0.612 0 1.183-0.234 1.607-0.658 0.426-0.426 0.661-1.002 0.661-1.621v-1.405c0-1.079-0.483-1.163-0.631-1.163z"></path>
</svg>
