<?xml version="1.0" encoding="utf-8"?>
<!-- Generated by IcoMoon.io -->
<!DOCTYPE svg PUBLIC "-//W3C//DTD SVG 1.1//EN" "http://www.w3.org/Graphics/SVG/1.1/DTD/svg11.dtd">
<svg version="1.1" xmlns="http://www.w3.org/2000/svg" xmlns:xlink="http://www.w3.org/1999/xlink" width="32" height="32" viewBox="0 0 32 32">
<path fill="#444444" d="M16 24c-4.411 0-8-3.589-8-8s3.589-8 8-8 8 3.589 8 8-3.589 8-8 8zM16 9.6c-3.529 0-6.4 2.871-6.4 6.4s2.871 6.4 6.4 6.4 6.4-2.871 6.4-6.4-2.871-6.4-6.4-6.4z"></path>
<path fill="#444444" d="M16 4.8c-0.442 0-0.8-0.358-0.8-0.8v-3.2c0-0.442 0.358-0.8 0.8-0.8s0.8 0.358 0.8 0.8v3.2c0 0.442-0.358 0.8-0.8 0.8z"></path>
<path fill="#444444" d="M16 32.002c-0.442 0-0.8-0.358-0.8-0.8v-4.002c0-0.442 0.358-0.8 0.8-0.8s0.8 0.358 0.8 0.8v4.002c0 0.442-0.358 0.8-0.8 0.8z"></path>
<path fill="#444444" d="M4 16.8h-3.2c-0.442 0-0.8-0.358-0.8-0.8s0.358-0.8 0.8-0.8h3.2c0.442 0 0.8 0.358 0.8 0.8s-0.358 0.8-0.8 0.8z"></path>
<path fill="#444444" d="M31.2 16.8h-4c-0.442 0-0.8-0.358-0.8-0.8s0.358-0.8 0.8-0.8h4c0.442 0 0.8 0.358 0.8 0.8s-0.358 0.8-0.8 0.8z"></path>
<path fill="#444444" d="M7.514 8.315c-0.205 0-0.41-0.078-0.566-0.234l-2.263-2.263c-0.313-0.313-0.313-0.818 0-1.131s0.818-0.313 1.131 0l2.263 2.263c0.313 0.313 0.313 0.818 0 1.131-0.156 0.156-0.361 0.234-0.566 0.234z"></path>
<path fill="#444444" d="M26.75 27.55c-0.205 0-0.41-0.078-0.566-0.234l-2.83-2.83c-0.313-0.313-0.313-0.818 0-1.131s0.818-0.313 1.131 0l2.83 2.83c0.313 0.313 0.313 0.818 0 1.131-0.157 0.156-0.362 0.234-0.566 0.234z"></path>
<path fill="#444444" d="M5.25 27.549c-0.205 0-0.41-0.078-0.566-0.234-0.313-0.313-0.313-0.818 0-1.131l2.263-2.263c0.313-0.313 0.818-0.313 1.131 0s0.313 0.818 0 1.131l-2.263 2.263c-0.156 0.156-0.361 0.234-0.566 0.234z"></path>
<path fill="#444444" d="M23.918 8.881c-0.205 0-0.41-0.078-0.566-0.234-0.313-0.312-0.313-0.818 0-1.131l2.828-2.829c0.313-0.313 0.818-0.313 1.131 0s0.313 0.818 0 1.131l-2.828 2.829c-0.156 0.156-0.361 0.234-0.566 0.234z"></path>
</svg>
