<?xml version="1.0" encoding="utf-8"?>
<!-- Generated by IcoMoon.io -->
<!DOCTYPE svg PUBLIC "-//W3C//DTD SVG 1.1//EN" "http://www.w3.org/Graphics/SVG/1.1/DTD/svg11.dtd">
<svg version="1.1" xmlns="http://www.w3.org/2000/svg" xmlns:xlink="http://www.w3.org/1999/xlink" width="32" height="32" viewBox="0 0 32 32">
<path fill="rgb(68, 68, 68)" d="M15.845 2.405c1.84 0 3.623 0.36 5.301 1.070 1.622 0.686 3.079 1.668 4.33 2.92s2.234 2.708 2.92 4.33c0.71 1.678 1.070 3.462 1.070 5.301s-0.36 3.623-1.070 5.301c-0.686 1.622-1.668 3.079-2.92 4.33s-2.709 2.234-4.33 2.92c-1.678 0.71-3.462 1.070-5.301 1.070s-3.623-0.36-5.301-1.070c-1.622-0.686-3.079-1.668-4.33-2.92s-2.234-2.709-2.92-4.33c-0.71-1.678-1.069-3.462-1.069-5.301s0.36-3.623 1.069-5.301c0.686-1.622 1.668-3.079 2.92-4.33s2.708-2.234 4.33-2.92c1.678-0.71 3.462-1.069 5.301-1.069zM15.845 0.498c-8.576 0-15.528 6.952-15.528 15.528s6.952 15.528 15.528 15.528c8.576 0 15.528-6.952 15.528-15.528s-6.952-15.528-15.528-15.528v0z"></path>
<path fill="rgb(68, 68, 68)" d="M20.088 18.021v0h-5.721c-0.527 0-0.954-0.427-0.954-0.954v-7.851c0-0.527 0.427-0.954 0.954-0.954v0c0.527 0 0.954 0.427 0.954 0.954v6.897h4.767c0.527 0 0.954 0.427 0.954 0.954s-0.427 0.953-0.954 0.953z"></path>
</svg>
