<?xml version="1.0" encoding="utf-8"?>
<!-- Generated by IcoMoon.io -->
<!DOCTYPE svg PUBLIC "-//W3C//DTD SVG 1.1//EN" "http://www.w3.org/Graphics/SVG/1.1/DTD/svg11.dtd">
<svg version="1.1" xmlns="http://www.w3.org/2000/svg" xmlns:xlink="http://www.w3.org/1999/xlink" width="34" height="32" viewBox="0 0 34 32">
<path fill="#444444" d="M12.72 13.561l-0.002-0.001-4.172-2.409c-0.812-0.468-2.123-0.467-2.928 0.001s-0.802 1.228 0.009 1.698l4.17 2.408c0.813 0.469 2.124 0.468 2.931-0.001s0.802-1.227-0.008-1.696z"></path>
<path fill="#444444" d="M33.029 7.858l-10.916-6.302c-3.594-2.075-9.423-2.075-12.993 0-0.889 0.516-1.554 1.114-1.998 1.751-0.691 0.99-0.843 2.078-0.461 3.113 0.359 0.976 1.191 1.905 2.502 2.662l5.866 3.389c0.989 0.571 1.485 1.321 1.487 2.071 0.002 0.747-0.485 1.492-1.463 2.060-0.138 0.080-0.283 0.155-0.433 0.224-1.973 0.908-4.866 0.834-6.699-0.224l-4.393-2.536c-0.812-0.467-2.121-0.466-2.926 0.002-0.404 0.235-0.604 0.542-0.602 0.849 0.002 0.306 0.206 0.614 0.612 0.848l4.389 2.534c3.594 2.075 9.422 2.075 12.992 0 0.889-0.516 1.554-1.114 1.999-1.751 0.689-0.99 0.842-2.077 0.461-3.113-0.359-0.976-1.191-1.905-2.502-2.662l-5.867-3.388c-0.989-0.571-1.484-1.321-1.487-2.071-0.002-0.747 0.485-1.493 1.462-2.061 0.139-0.081 0.284-0.154 0.434-0.224 1.973-0.909 4.865-0.835 6.698 0.223l10.921 6.305c0.813 0.466 2.122 0.465 2.926-0.002 0.404-0.235 0.604-0.542 0.602-0.849s-0.206-0.614-0.611-0.849z"></path>
<path fill="#444444" d="M28.013 10.774l-10.697-6.176c-0.814-0.469-2.124-0.468-2.931-0.001-0.806 0.469-0.802 1.227 0.008 1.697l0.002 0.001 10.699 6.177c0.813 0.467 2.123 0.467 2.929-0.002s0.801-1.228-0.010-1.697z"></path>
<path fill="#444444" d="M2.201 31.266c0.996 0 1.494-0.327 1.494-0.982 0-0.273-0.191-0.492-0.572-0.657-0.165-0.068-0.357-0.129-0.576-0.184s-0.441-0.112-0.666-0.175c-0.225-0.063-0.447-0.134-0.666-0.213s-0.414-0.182-0.585-0.307c-0.376-0.285-0.564-0.66-0.564-1.127 0-0.501 0.188-0.911 0.564-1.23 0.41-0.347 0.959-0.521 1.648-0.521 0.62 0 1.187 0.094 1.699 0.282 0.159 0.057 0.239 0.171 0.239 0.341 0 0.085-0.030 0.167-0.090 0.243s-0.125 0.115-0.196 0.115c-0.071 0-0.169-0.023-0.295-0.068-0.37-0.131-0.794-0.196-1.272-0.196-0.438 0-0.8 0.083-1.084 0.248-0.29 0.171-0.436 0.413-0.436 0.726 0 0.324 0.188 0.569 0.564 0.734 0.171 0.080 0.364 0.145 0.581 0.196s0.438 0.105 0.666 0.162c0.228 0.057 0.45 0.124 0.666 0.201s0.41 0.178 0.581 0.303c0.376 0.273 0.564 0.666 0.564 1.178 0 0.49-0.196 0.888-0.589 1.195-0.404 0.313-0.936 0.47-1.597 0.47-0.723 0-1.4-0.137-2.032-0.41-0.063-0.028-0.118-0.074-0.167-0.137s-0.073-0.138-0.073-0.226c0-0.088 0.031-0.168 0.094-0.239s0.135-0.107 0.218-0.107c0.082 0 0.185 0.027 0.307 0.081s0.323 0.118 0.602 0.192c0.279 0.074 0.603 0.111 0.974 0.111z"></path>
<path fill="#444444" d="M9.476 25.912c0.102 0 0.195 0.030 0.278 0.090s0.138 0.138 0.167 0.235l1.443 4.697 1.434-4.714c0.063-0.205 0.191-0.307 0.384-0.307 0.114 0 0.205 0.033 0.273 0.098s0.102 0.137 0.102 0.213c0 0.077-0.009 0.147-0.026 0.209l-1.674 5.141c-0.091 0.256-0.259 0.384-0.504 0.384-0.114 0-0.218-0.036-0.312-0.107s-0.158-0.164-0.192-0.277l-1.375-4.355-1.375 4.355c-0.034 0.114-0.098 0.206-0.192 0.277s-0.198 0.107-0.312 0.107c-0.245 0-0.413-0.128-0.504-0.384l-1.674-5.141c-0.017-0.063-0.026-0.132-0.026-0.209s0.034-0.148 0.102-0.213c0.068-0.065 0.154-0.098 0.256-0.098 0.205 0 0.339 0.102 0.401 0.307l1.435 4.714 1.443-4.697c0.028-0.097 0.084-0.175 0.167-0.235s0.175-0.090 0.278-0.090z"></path>
<path fill="#444444" d="M15.325 25.912c0.108 0 0.201 0.038 0.277 0.115s0.115 0.169 0.115 0.278v5.269c0 0.108-0.038 0.199-0.115 0.273s-0.169 0.111-0.277 0.111c-0.108 0-0.199-0.037-0.273-0.111s-0.111-0.165-0.111-0.273v-5.269c0-0.108 0.037-0.201 0.111-0.278s0.165-0.115 0.273-0.115z"></path>
<path fill="#444444" d="M20.047 25.954c0.791 0 1.386 0.205 1.785 0.615 0.33 0.33 0.495 0.757 0.495 1.281s-0.165 0.951-0.495 1.281c-0.398 0.41-0.993 0.615-1.785 0.615h-1.554v1.827c0 0.108-0.038 0.199-0.115 0.273s-0.169 0.111-0.277 0.111c-0.108 0-0.199-0.037-0.273-0.111s-0.111-0.165-0.111-0.273v-5.226c0-0.108 0.037-0.201 0.111-0.277s0.165-0.115 0.273-0.115h1.947zM19.97 29.011c0.586 0 1.010-0.125 1.272-0.376 0.205-0.194 0.307-0.456 0.307-0.786 0-0.529-0.265-0.882-0.794-1.059-0.205-0.068-0.467-0.102-0.786-0.102h-1.477v2.323h1.477z"></path>
<path fill="#444444" d="M27.839 31.296c0.071 0.071 0.107 0.158 0.107 0.26s-0.036 0.188-0.107 0.256c-0.071 0.068-0.158 0.102-0.261 0.102h-3.424c-0.108 0-0.199-0.037-0.273-0.111s-0.111-0.165-0.111-0.273v-5.183c0-0.108 0.037-0.201 0.111-0.277s0.165-0.115 0.273-0.115h3.424c0.102 0 0.189 0.036 0.261 0.107s0.107 0.158 0.107 0.26c0 0.102-0.036 0.188-0.107 0.256s-0.158 0.102-0.261 0.102h-3.031v1.887h2.724c0.102 0 0.189 0.036 0.261 0.107s0.107 0.158 0.107 0.261c0 0.102-0.036 0.188-0.107 0.256s-0.158 0.102-0.261 0.102h-2.724v1.896h3.031c0.102-0 0.189 0.036 0.261 0.107z"></path>
<path fill="#444444" d="M31.361 31.266c0.996 0 1.494-0.327 1.494-0.982 0-0.273-0.191-0.492-0.572-0.657-0.165-0.068-0.357-0.129-0.576-0.184s-0.441-0.112-0.666-0.175c-0.225-0.063-0.447-0.134-0.666-0.213s-0.414-0.182-0.585-0.307c-0.376-0.285-0.564-0.66-0.564-1.127 0-0.501 0.188-0.911 0.564-1.23 0.41-0.347 0.959-0.521 1.648-0.521 0.62 0 1.187 0.094 1.699 0.282 0.159 0.057 0.239 0.171 0.239 0.341 0 0.085-0.030 0.167-0.090 0.243s-0.125 0.115-0.196 0.115c-0.071 0-0.169-0.023-0.295-0.068-0.37-0.131-0.794-0.196-1.272-0.196-0.438 0-0.8 0.083-1.084 0.248-0.29 0.171-0.436 0.413-0.436 0.726 0 0.324 0.188 0.569 0.564 0.734 0.171 0.080 0.364 0.145 0.581 0.196s0.438 0.105 0.666 0.162c0.228 0.057 0.45 0.124 0.666 0.201s0.41 0.178 0.581 0.303c0.376 0.273 0.564 0.666 0.564 1.178 0 0.49-0.196 0.888-0.589 1.195-0.404 0.313-0.936 0.47-1.597 0.47-0.723 0-1.401-0.137-2.032-0.41-0.063-0.028-0.118-0.074-0.167-0.137s-0.073-0.138-0.073-0.226c0-0.088 0.031-0.168 0.094-0.239s0.135-0.107 0.218-0.107c0.082 0 0.185 0.027 0.307 0.081s0.323 0.118 0.602 0.192c0.279 0.074 0.603 0.111 0.974 0.111z"></path>
</svg>
