<?xml version="1.0" encoding="utf-8"?>
<!-- Generated by IcoMoon.io -->
<!DOCTYPE svg PUBLIC "-//W3C//DTD SVG 1.1//EN" "http://www.w3.org/Graphics/SVG/1.1/DTD/svg11.dtd">
<svg version="1.1" xmlns="http://www.w3.org/2000/svg" xmlns:xlink="http://www.w3.org/1999/xlink" width="32" height="32" viewBox="0 0 32 32">
<path fill="#444444" d="M28.095 17.814v-3.628l-2.857-1.071c-0.174-0.558-0.399-1.094-0.667-1.603l1.264-2.781-2.566-2.565-2.781 1.264c-0.51-0.268-1.045-0.493-1.603-0.667l-1.071-2.857h-3.628l-1.071 2.857c-0.558 0.174-1.094 0.399-1.603 0.667l-2.781-1.264-2.566 2.566 1.264 2.781c-0.268 0.51-0.493 1.045-0.667 1.603l-2.857 1.071v3.628l2.857 1.071c0.174 0.558 0.399 1.094 0.667 1.603l-1.264 2.78 2.566 2.566 2.781-1.264c0.51 0.267 1.045 0.493 1.603 0.667l1.071 2.857h3.628l1.071-2.857c0.558-0.174 1.094-0.399 1.603-0.667l2.781 1.264 2.566-2.566-1.264-2.781c0.268-0.51 0.493-1.045 0.667-1.603l2.857-1.071zM20.838 16c0 2.672-2.166 4.838-4.838 4.838s-4.838-2.166-4.838-4.838c0-2.672 2.166-4.838 4.838-4.838s4.838 2.166 4.838 4.838z"></path>
</svg>
