<?xml version="1.0" encoding="utf-8"?>
<!-- Generated by IcoMoon.io -->
<!DOCTYPE svg PUBLIC "-//W3C//DTD SVG 1.1//EN" "http://www.w3.org/Graphics/SVG/1.1/DTD/svg11.dtd">
<svg version="1.1" xmlns="http://www.w3.org/2000/svg" xmlns:xlink="http://www.w3.org/1999/xlink" width="32" height="32" viewBox="0 0 32 32">
<path fill="#444444" d="M16.007 22.88c-0.004 0.002-0.075 0-0.079 0-3.793-0.043-6.847-3.164-6.808-6.956 0.038-3.751 3.121-6.803 6.871-6.803 3.873 0.043 6.926 3.163 6.888 6.956-0.038 3.751-3.122 6.803-6.872 6.803zM16.007 21.28c2.878 0.001 5.243-2.341 5.273-5.219 0.030-2.911-2.314-5.306-5.226-5.339 0 0 0 0-0.001 0-2.938 0-5.303 2.341-5.333 5.218-0.030 2.912 2.315 5.308 5.226 5.341h0.061z"></path>
<path fill="#444444" d="M8 26.4c0 1.325-1.075 2.4-2.4 2.4s-2.4-1.075-2.4-2.4c0-1.325 1.075-2.4 2.4-2.4s2.4 1.075 2.4 2.4z"></path>
<path fill="#444444" d="M15.95 32c-2.132 0-4.157-0.416-6.117-1.235-0.408-0.17-0.6-0.639-0.43-1.047s0.64-0.599 1.047-0.43c1.763 0.738 3.63 1.112 5.549 1.112 7.94 0 14.4-6.46 14.4-14.4s-6.46-14.4-14.4-14.4-14.4 6.46-14.4 14.4c0 1.902 0.369 3.755 1.097 5.51 0.169 0.408-0.025 0.876-0.433 1.046-0.41 0.169-0.877-0.025-1.046-0.433-0.808-1.95-1.218-4.010-1.218-6.123 0-8.822 7.178-16 16-16s16 7.178 16 16-7.228 16-16.050 16z"></path>
</svg>
