<?xml version="1.0" encoding="utf-8"?>
<!-- Generated by IcoMoon.io -->
<!DOCTYPE svg PUBLIC "-//W3C//DTD SVG 1.1//EN" "http://www.w3.org/Graphics/SVG/1.1/DTD/svg11.dtd">
<svg version="1.1" xmlns="http://www.w3.org/2000/svg" xmlns:xlink="http://www.w3.org/1999/xlink" width="32" height="32" viewBox="0 0 32 32">
<path fill="#444444" d="M16 32c-8.823 0-16-7.178-16-16s7.177-16 16-16 16 7.178 16 16-7.177 16-16 16zM16 1.524c-7.982 0-14.476 6.494-14.476 14.476s6.494 14.476 14.476 14.476 14.476-6.494 14.476-14.476-6.494-14.476-14.476-14.476z"></path>
<path fill="#444444" d="M21.224 24.381h-10.449c-1.32 0-2.395-1.074-2.395-2.395v-7.402c0-1.32 1.074-2.394 2.395-2.394h0.921c0.421 0 0.762 0.341 0.762 0.762s-0.341 0.762-0.762 0.762h-0.921c-0.48 0-0.871 0.391-0.871 0.871v7.402c0 0.479 0.391 0.87 0.871 0.87h10.45c0.479 0 0.87-0.391 0.87-0.871v-7.402c0-0.479-0.391-0.87-0.871-0.87h-0.921c-0.421 0-0.762-0.341-0.762-0.762s0.341-0.762 0.762-0.762h0.921c1.32 0 2.395 1.074 2.395 2.395v7.402c0 1.32-1.074 2.394-2.395 2.394z"></path>
<path fill="#444444" d="M16.003 16c-0.421 0-0.762-0.341-0.762-0.762v-7.619c0-0.421 0.341-0.762 0.762-0.762s0.762 0.341 0.762 0.762v7.619c0 0.421-0.341 0.762-0.762 0.762z"></path>
<path fill="#444444" d="M19.048 11.429c-0.195 0-0.39-0.075-0.539-0.223l-2.506-2.509-2.512 2.509c-0.297 0.298-0.779 0.298-1.077 0s-0.297-0.78 0.001-1.077l3.051-3.048c0.143-0.143 0.337-0.223 0.539-0.223v0c0.202 0 0.396 0.080 0.539 0.223l3.045 3.048c0.297 0.298 0.297 0.78-0.001 1.077-0.148 0.149-0.343 0.223-0.538 0.223z"></path>
</svg>
