<?xml version="1.0" encoding="utf-8"?>
<!-- Generated by IcoMoon.io -->
<!DOCTYPE svg PUBLIC "-//W3C//DTD SVG 1.1//EN" "http://www.w3.org/Graphics/SVG/1.1/DTD/svg11.dtd">
<svg version="1.1" xmlns="http://www.w3.org/2000/svg" xmlns:xlink="http://www.w3.org/1999/xlink" width="32" height="32" viewBox="0 0 32 32">
<path fill="#444444" d="M23.614 12.225v9.109h-15.227v-9.109h15.227zM23.868 10.701h-15.736c-0.698 0-1.269 0.571-1.269 1.269v9.618c0 0.698 0.571 1.269 1.269 1.269h15.736c0.698 0 1.269-0.571 1.269-1.269v-9.618c0-0.698-0.571-1.269-1.269-1.269v0z"></path>
<path fill="#444444" d="M16 32c-8.823 0-16-7.178-16-16s7.177-16 16-16 16 7.178 16 16-7.177 16-16 16zM16 1.524c-7.982 0-14.476 6.494-14.476 14.476s6.494 14.476 14.476 14.476 14.476-6.494 14.476-14.476-6.494-14.476-14.476-14.476z"></path>
<path fill="#444444" d="M27.429 26.667h-22.857c-0.421 0-0.762-0.341-0.762-0.762s0.341-0.762 0.762-0.762h22.857c0.421 0 0.762 0.341 0.762 0.762s-0.341 0.762-0.762 0.762z"></path>
<path fill="#444444" d="M21.080 26.667c-0.246 0-0.488-0.119-0.635-0.339l-2.313-3.47h-4.264l-2.313 3.47c-0.234 0.35-0.706 0.443-1.057 0.211-0.35-0.234-0.444-0.706-0.211-1.057l2.539-3.81c0.142-0.212 0.379-0.339 0.635-0.339h5.080c0.254 0 0.492 0.127 0.634 0.339l2.539 3.81c0.233 0.35 0.139 0.823-0.211 1.057-0.13 0.086-0.277 0.128-0.423 0.128z"></path>
</svg>
