<?xml version="1.0" encoding="utf-8"?>
<!-- Generated by IcoMoon.io -->
<!DOCTYPE svg PUBLIC "-//W3C//DTD SVG 1.1//EN" "http://www.w3.org/Graphics/SVG/1.1/DTD/svg11.dtd">
<svg version="1.1" xmlns="http://www.w3.org/2000/svg" xmlns:xlink="http://www.w3.org/1999/xlink" width="32" height="32" viewBox="0 0 32 32">
<path fill="#444444" d="M16 32c-8.823 0-16-7.178-16-16s7.177-16 16-16 16 7.178 16 16-7.177 16-16 16zM16 1.524c-7.982 0-14.476 6.494-14.476 14.476s6.494 14.476 14.476 14.476 14.476-6.494 14.476-14.476-6.494-14.476-14.476-14.476z"></path>
<path fill="#444444" d="M20.571 18.286h-6.095c-0.421 0-0.762-0.341-0.762-0.762v-8.381c0-0.421 0.341-0.762 0.762-0.762s0.762 0.341 0.762 0.762v7.619h5.333c0.421 0 0.762 0.341 0.762 0.762s-0.341 0.762-0.762 0.762z"></path>
</svg>
