<?xml version="1.0" encoding="utf-8"?>
<!-- Generated by IcoMoon.io -->
<!DOCTYPE svg PUBLIC "-//W3C//DTD SVG 1.1//EN" "http://www.w3.org/Graphics/SVG/1.1/DTD/svg11.dtd">
<svg version="1.1" xmlns="http://www.w3.org/2000/svg" xmlns:xlink="http://www.w3.org/1999/xlink" width="32" height="32" viewBox="0 0 32 32">
<path fill="#444444" d="M16 32c-8.823 0-16-7.178-16-16s7.177-16 16-16 16 7.178 16 16-7.177 16-16 16zM16 1.524c-7.982 0-14.476 6.494-14.476 14.476s6.494 14.476 14.476 14.476 14.476-6.494 14.476-14.476-6.494-14.476-14.476-14.476z"></path>
<path fill="#444444" d="M14.476 22.857c-0.164 0-0.325-0.053-0.457-0.152l-6.095-4.571c-0.337-0.252-0.405-0.73-0.152-1.066s0.73-0.405 1.067-0.152l5.467 4.101 8.691-12.312c0.242-0.343 0.718-0.424 1.062-0.183 0.344 0.243 0.426 0.718 0.183 1.063l-9.143 12.952c-0.119 0.168-0.301 0.28-0.504 0.313-0.040 0.005-0.079 0.008-0.119 0.008z"></path>
</svg>
