<?xml version="1.0" encoding="utf-8"?>
<!-- Generated by IcoMoon.io -->
<!DOCTYPE svg PUBLIC "-//W3C//DTD SVG 1.1//EN" "http://www.w3.org/Graphics/SVG/1.1/DTD/svg11.dtd">
<svg version="1.1" xmlns="http://www.w3.org/2000/svg" xmlns:xlink="http://www.w3.org/1999/xlink" width="32" height="32" viewBox="0 0 32 32">
<path fill="#444444" d="M16 32c-8.823 0-16-7.178-16-16s7.177-16 16-16 16 7.178 16 16-7.177 16-16 16zM16 1.524c-7.982 0-14.476 6.494-14.476 14.476s6.494 14.476 14.476 14.476 14.476-6.494 14.476-14.476-6.494-14.476-14.476-14.476z"></path>
<path fill="#444444" d="M13.080 8.127c3.291 0 5.968 2.677 5.968 5.968s-2.677 5.968-5.968 5.968c-3.291 0-5.968-2.677-5.968-5.968s2.677-5.968 5.968-5.968zM13.080 6.603c-4.138 0-7.492 3.355-7.492 7.492s3.355 7.492 7.492 7.492c4.138 0 7.492-3.355 7.492-7.492s-3.355-7.492-7.492-7.492v0z"></path>
<path fill="#444444" d="M23.81 25.587c-0.195 0-0.39-0.075-0.539-0.223l-5.968-5.968c-0.298-0.298-0.298-0.779 0-1.077s0.779-0.298 1.077 0l5.968 5.968c0.298 0.298 0.298 0.779 0 1.077-0.149 0.149-0.344 0.223-0.539 0.223z"></path>
</svg>
