<?xml version="1.0" encoding="utf-8"?>
<!-- Generated by IcoMoon.io -->
<!DOCTYPE svg PUBLIC "-//W3C//DTD SVG 1.1//EN" "http://www.w3.org/Graphics/SVG/1.1/DTD/svg11.dtd">
<svg version="1.1" xmlns="http://www.w3.org/2000/svg" xmlns:xlink="http://www.w3.org/1999/xlink" width="36" height="32" viewBox="0 0 36 32">
<path fill="#444444" d="M33.778 0h-26.667c-0.982 0-1.778 0.796-1.778 1.778v11.556c0 0.982 0.796 1.778 1.778 1.778h20.479c0.54 0 1.051 0.245 1.388 0.668l3.412 4.884c0.37 0.463 0.874 0.67 1.371 0.67 0.909 0 1.795-0.694 1.795-1.781v-17.774c0-0.982-0.796-1.778-1.778-1.778zM30.436 14.76c-0.022-0.032-0.045-0.062-0.069-0.092-0.678-0.848-1.691-1.334-2.776-1.334h-20.479v-11.556h26.667v17.768l-3.342-4.786z"></path>
<path fill="#444444" d="M21.333 18.667h-19.556c-0.982 0-1.778 0.796-1.778 1.778v9.775c0 1.041 0.854 1.78 1.781 1.78 0.309 0 0.627-0.083 0.923-0.263l3.144-2.417c0.279-0.171 0.599-0.26 0.926-0.26h14.559c0.982 0 1.778-0.796 1.778-1.778v-6.837c0-0.982-0.796-1.778-1.778-1.778zM21.333 27.282h-14.559c-0.653 0-1.294 0.18-1.852 0.521-0.054 0.033-0.107 0.069-0.157 0.108l-2.987 2.296v-9.762h19.556v6.837z"></path>
<path fill="#444444" d="M29.333 4.444h-18.667c-0.491 0-0.889 0.397-0.889 0.889s0.398 0.889 0.889 0.889h18.667c0.491 0 0.889-0.397 0.889-0.889s-0.398-0.889-0.889-0.889z"></path>
<path fill="#444444" d="M15.111 8.889h-4.444c-0.491 0-0.889 0.397-0.889 0.889s0.398 0.889 0.889 0.889h4.444c0.491 0 0.889-0.397 0.889-0.889s-0.398-0.889-0.889-0.889z"></path>
<path fill="#444444" d="M4.444 24.889h6.222c0.491 0 0.889-0.397 0.889-0.889s-0.398-0.889-0.889-0.889h-6.222c-0.491 0-0.889 0.397-0.889 0.889s0.398 0.889 0.889 0.889z"></path>
<path fill="#444444" d="M15.111 24.889h3.556c0.491 0 0.889-0.397 0.889-0.889s-0.398-0.889-0.889-0.889h-3.556c-0.491 0-0.889 0.397-0.889 0.889s0.398 0.889 0.889 0.889z"></path>
<path fill="#444444" d="M29.333 8.889h-9.778c-0.491 0-0.889 0.397-0.889 0.889s0.398 0.889 0.889 0.889h9.778c0.491 0 0.889-0.397 0.889-0.889s-0.398-0.889-0.889-0.889z"></path>
</svg>
