<?xml version="1.0" encoding="utf-8"?>
<!-- Generated by IcoMoon.io -->
<!DOCTYPE svg PUBLIC "-//W3C//DTD SVG 1.1//EN" "http://www.w3.org/Graphics/SVG/1.1/DTD/svg11.dtd">
<svg version="1.1" xmlns="http://www.w3.org/2000/svg" xmlns:xlink="http://www.w3.org/1999/xlink" width="32" height="32" viewBox="0 0 32 32">
<path fill="#444444" d="M16 32c-8.823 0-16-7.178-16-16s7.177-16 16-16 16 7.178 16 16-7.177 16-16 16zM16 1.524c-7.982 0-14.476 6.494-14.476 14.476s6.494 14.476 14.476 14.476 14.476-6.494 14.476-14.476-6.494-14.476-14.476-14.476z"></path>
<path fill="#444444" d="M23.619 16.762h-15.238c-0.421 0-0.762-0.341-0.762-0.762s0.341-0.762 0.762-0.762h15.238c0.421 0 0.762 0.341 0.762 0.762s-0.341 0.762-0.762 0.762z"></path>
<path fill="#444444" d="M8.381 16.762c-0.209 0-0.416-0.085-0.567-0.252-0.282-0.312-0.256-0.795 0.056-1.076l7.619-6.857c0.312-0.281 0.795-0.256 1.076 0.056s0.256 0.795-0.056 1.076l-7.619 6.857c-0.145 0.131-0.327 0.196-0.509 0.196z"></path>
<path fill="#444444" d="M16 23.619c-0.181 0-0.364-0.065-0.509-0.196l-7.619-6.857c-0.313-0.281-0.338-0.763-0.056-1.076s0.763-0.338 1.076-0.056l7.619 6.857c0.313 0.281 0.338 0.763 0.056 1.076-0.151 0.168-0.359 0.252-0.567 0.252z"></path>
</svg>
