<?xml version="1.0" encoding="utf-8"?>
<!-- Generated by IcoMoon.io -->
<!DOCTYPE svg PUBLIC "-//W3C//DTD SVG 1.1//EN" "http://www.w3.org/Graphics/SVG/1.1/DTD/svg11.dtd">
<svg version="1.1" xmlns="http://www.w3.org/2000/svg" xmlns:xlink="http://www.w3.org/1999/xlink" width="15" height="32" viewBox="0 0 15 32">
<path fill="#444444" d="M9.905 0c-2.941 0-5.333 2.393-5.333 5.333 0 0.001 0 0.002 0 0.002v19.044c0 0.001 0 0.002 0 0.002 0 1.681 1.367 3.048 3.048 3.048s3.048-1.367 3.048-3.048v-16.762c0-0.421-0.341-0.762-0.762-0.762s-0.762 0.341-0.762 0.762v16.762c0 0.84-0.683 1.524-1.524 1.524s-1.523-0.683-1.524-1.522c0-0.001 0-0.002 0-0.002v-19.048c0 0 0-0.001 0-0.002 0.001-2.1 1.71-3.808 3.81-3.808s3.81 1.709 3.81 3.81v19.048c0 3.361-2.734 6.095-6.095 6.095s-6.095-2.734-6.095-6.095v-16.762c0-0.421-0.341-0.762-0.762-0.762s-0.762 0.341-0.762 0.762v16.762c0 4.201 3.418 7.619 7.619 7.619s7.619-3.418 7.619-7.619v-19.048c0-2.94-2.392-5.333-5.333-5.333z"></path>
</svg>
