<?xml version="1.0" encoding="utf-8"?>
<!-- Generated by IcoMoon.io -->
<!DOCTYPE svg PUBLIC "-//W3C//DTD SVG 1.1//EN" "http://www.w3.org/Graphics/SVG/1.1/DTD/svg11.dtd">
<svg version="1.1" xmlns="http://www.w3.org/2000/svg" xmlns:xlink="http://www.w3.org/1999/xlink" width="32" height="32" viewBox="0 0 32 32">
<path fill="#444444" d="M16 13.968c1.122 0 2.032 0.91 2.032 2.032s-0.91 2.032-2.032 2.032-2.032-0.91-2.032-2.032 0.91-2.032 2.032-2.032zM16 12.444c-1.96 0-3.556 1.595-3.556 3.556s1.595 3.556 3.556 3.556 3.556-1.595 3.556-3.556-1.595-3.556-3.556-3.556v0z"></path>
<path fill="#444444" d="M16 32c-8.823 0-16-7.178-16-16s7.177-16 16-16 16 7.178 16 16-7.177 16-16 16zM16 1.524c-7.982 0-14.476 6.494-14.476 14.476s6.494 14.476 14.476 14.476 14.476-6.494 14.476-14.476-6.494-14.476-14.476-14.476z"></path>
<path fill="#444444" d="M17.714 26.667h-3.429c-0.302 0-0.577-0.179-0.698-0.457l-1.227-2.805c-0.169-0.386 0.007-0.834 0.392-1.003 0.386-0.17 0.835 0.008 1.003 0.393l1.027 2.347h2.432l1.027-2.347c0.168-0.386 0.618-0.562 1.003-0.393s0.562 0.618 0.392 1.003l-1.227 2.805c-0.121 0.278-0.395 0.457-0.698 0.457z"></path>
<path fill="#444444" d="M18.942 9.662c-0.293 0-0.573-0.171-0.699-0.457l-1.027-2.347h-2.432l-1.027 2.347c-0.168 0.386-0.618 0.562-1.003 0.393s-0.562-0.618-0.392-1.003l1.227-2.805c0.121-0.278 0.395-0.457 0.698-0.457h3.429c0.302 0 0.577 0.179 0.698 0.457l1.227 2.805c0.169 0.386-0.007 0.834-0.392 1.003-0.099 0.043-0.203 0.064-0.305 0.064z"></path>
<path fill="#444444" d="M23.1 13.821c-0.092 0-0.186-0.016-0.277-0.052-0.392-0.153-0.585-0.595-0.432-0.987l0.934-2.386-1.72-1.72-2.386 0.934c-0.392 0.153-0.834-0.041-0.987-0.432-0.153-0.392 0.040-0.834 0.432-0.987l2.85-1.115c0.281-0.109 0.603-0.043 0.816 0.171l2.424 2.424c0.214 0.214 0.281 0.534 0.171 0.816l-1.115 2.85c-0.118 0.299-0.405 0.484-0.71 0.484z"></path>
<path fill="#444444" d="M10.208 24.978c-0.198 0-0.393-0.078-0.539-0.223l-2.424-2.424c-0.214-0.214-0.281-0.534-0.171-0.816l1.115-2.85c0.153-0.392 0.596-0.586 0.987-0.432 0.392 0.153 0.585 0.595 0.432 0.987l-0.934 2.386 1.72 1.72 2.386-0.934c0.392-0.154 0.834 0.041 0.987 0.432 0.153 0.392-0.040 0.834-0.432 0.987l-2.85 1.115c-0.089 0.034-0.184 0.051-0.277 0.051z"></path>
<path fill="#444444" d="M8.9 13.821c-0.305 0-0.592-0.184-0.71-0.485l-1.115-2.85c-0.11-0.282-0.043-0.602 0.171-0.816l2.424-2.424c0.214-0.214 0.535-0.28 0.816-0.171l2.85 1.115c0.392 0.153 0.585 0.595 0.432 0.987s-0.595 0.587-0.987 0.432l-2.386-0.934-1.72 1.72 0.934 2.386c0.153 0.392-0.040 0.834-0.432 0.987-0.091 0.036-0.185 0.053-0.277 0.053z"></path>
<path fill="#444444" d="M21.792 24.978c-0.094 0-0.187-0.017-0.277-0.052l-2.85-1.115c-0.392-0.153-0.585-0.595-0.432-0.987s0.595-0.587 0.987-0.432l2.386 0.934 1.72-1.72-0.934-2.386c-0.153-0.392 0.040-0.834 0.432-0.987s0.834 0.041 0.987 0.432l1.115 2.85c0.11 0.282 0.043 0.602-0.171 0.816l-2.424 2.424c-0.145 0.146-0.34 0.223-0.538 0.223z"></path>
<path fill="#444444" d="M8.899 19.703c-0.102 0-0.206-0.020-0.305-0.064l-2.805-1.227c-0.277-0.121-0.456-0.395-0.456-0.698v-3.429c0-0.302 0.179-0.577 0.456-0.698l2.805-1.227c0.385-0.171 0.835 0.007 1.003 0.393s-0.007 0.834-0.392 1.003l-2.348 1.027v2.431l2.348 1.028c0.386 0.169 0.562 0.618 0.392 1.003-0.125 0.287-0.405 0.457-0.699 0.457z"></path>
<path fill="#444444" d="M23.101 19.703c-0.293 0-0.573-0.171-0.699-0.457-0.169-0.386 0.007-0.834 0.392-1.003l2.348-1.027v-2.431l-2.348-1.028c-0.386-0.169-0.562-0.618-0.392-1.003 0.168-0.386 0.619-0.563 1.003-0.393l2.805 1.227c0.277 0.121 0.456 0.395 0.456 0.698v3.429c0 0.302-0.179 0.577-0.456 0.698l-2.805 1.227c-0.099 0.044-0.203 0.064-0.305 0.064z"></path>
</svg>
