<?xml version="1.0" encoding="utf-8"?>
<!-- Generated by IcoMoon.io -->
<!DOCTYPE svg PUBLIC "-//W3C//DTD SVG 1.1//EN" "http://www.w3.org/Graphics/SVG/1.1/DTD/svg11.dtd">
<svg version="1.1" xmlns="http://www.w3.org/2000/svg" xmlns:xlink="http://www.w3.org/1999/xlink" width="32" height="32" viewBox="0 0 32 32">
<path fill="#444444" d="M16 32c-8.823 0-16-7.178-16-16s7.177-16 16-16 16 7.178 16 16-7.177 16-16 16zM16 1.524c-7.982 0-14.476 6.494-14.476 14.476s6.494 14.476 14.476 14.476 14.476-6.494 14.476-14.476-6.494-14.476-14.476-14.476z"></path>
<path fill="#444444" d="M19.048 22.095c-0.421 0-0.762-0.341-0.762-0.762v-3.81c0-0.421 0.341-0.762 0.762-0.762s0.762 0.341 0.762 0.762v3.81c0 0.421-0.341 0.762-0.762 0.762z"></path>
<path fill="#444444" d="M16 22.095c-0.421 0-0.762-0.341-0.762-0.762v-3.81c0-0.421 0.341-0.762 0.762-0.762s0.762 0.341 0.762 0.762v3.81c0 0.421-0.341 0.762-0.762 0.762z"></path>
<path fill="#444444" d="M12.952 22.095c-0.421 0-0.762-0.341-0.762-0.762v-3.81c0-0.421 0.341-0.762 0.762-0.762s0.762 0.341 0.762 0.762v3.81c0 0.421-0.341 0.762-0.762 0.762z"></path>
<path fill="#444444" d="M20.686 25.905h-9.371c-0.55 0-1.077-0.208-1.481-0.587-0.034-0.032-0.067-0.066-0.099-0.099-0.383-0.409-0.591-0.935-0.591-1.486v-9.251c0-0.421 0.341-0.762 0.762-0.762h12.19c0.421 0 0.762 0.341 0.762 0.762v9.252c0 0.552-0.208 1.077-0.587 1.481-0.037 0.039-0.070 0.072-0.104 0.104-0.405 0.378-0.931 0.586-1.481 0.586zM10.667 15.243v8.49c0 0.163 0.062 0.32 0.175 0.441 0.152 0.144 0.309 0.206 0.472 0.206h9.371c0.163 0 0.319-0.062 0.441-0.175 0.144-0.152 0.206-0.309 0.206-0.472v-8.49h-10.667z"></path>
<path fill="#444444" d="M17.653 9.272c-0.421 0-0.762-0.341-0.762-0.762 0-0.492-0.399-0.891-0.891-0.891s-0.891 0.399-0.891 0.891c0 0.421-0.341 0.762-0.762 0.762s-0.762-0.341-0.762-0.762c0-1.332 1.083-2.415 2.414-2.415s2.414 1.083 2.414 2.415c0 0.421-0.341 0.762-0.762 0.762z"></path>
<path fill="#444444" d="M22.095 12.953h-12.19c-0.421 0-0.762-0.341-0.762-0.762v-1.803c0-0.504 0.203-0.98 0.572-1.351 0.042-0.049 0.089-0.092 0.142-0.13 0.406-0.341 0.928-0.526 1.48-0.526h9.326c0.558 0 1.086 0.19 1.493 0.537 0.048 0.036 0.093 0.077 0.131 0.122 0.368 0.37 0.57 0.846 0.57 1.349v1.803c0 0.421-0.341 0.762-0.762 0.762zM10.667 11.429h10.667v-1.041c0-0.13-0.078-0.23-0.144-0.291-0.002-0.002-0.003-0.003-0.005-0.005-0.132-0.12-0.322-0.188-0.522-0.188h-9.326c-0.2 0-0.391 0.069-0.522 0.188-0.002 0.002-0.003 0.003-0.005 0.005-0.066 0.061-0.144 0.162-0.144 0.291v1.041z"></path>
</svg>
