<?xml version="1.0" encoding="utf-8"?>
<!-- Generated by IcoMoon.io -->
<!DOCTYPE svg PUBLIC "-//W3C//DTD SVG 1.1//EN" "http://www.w3.org/Graphics/SVG/1.1/DTD/svg11.dtd">
<svg version="1.1" xmlns="http://www.w3.org/2000/svg" xmlns:xlink="http://www.w3.org/1999/xlink" width="32" height="32" viewBox="0 0 32 32">
<path fill="#444444" d="M23.2 16.8h-13.6c-0.442 0-0.8 0.358-0.8 0.8s0.358 0.8 0.8 0.8h13.6c0.442 0 0.8-0.358 0.8-0.8s-0.358-0.8-0.8-0.8z"></path>
<path fill="#444444" d="M31.946 9.070c0.014-0.039 0.021-0.078 0.028-0.119 0.008-0.039 0.017-0.076 0.019-0.115 0.001-0.012 0.007-0.022 0.007-0.035s-0.006-0.023-0.007-0.035c-0.002-0.039-0.011-0.076-0.019-0.115-0.008-0.041-0.014-0.079-0.028-0.119-0.008-0.023-0.015-0.046-0.026-0.067-0.017-0.035-0.042-0.066-0.064-0.098-0.017-0.025-0.022-0.054-0.042-0.077l-4-4.8c-0.283-0.339-0.787-0.386-1.126-0.102s-0.385 0.787-0.102 1.126l2.906 3.488h-19.892c-5.294 0-9.6 4.306-9.6 9.6s4.306 9.6 9.6 9.6h7.2c0.442 0 0.8-0.358 0.8-0.8s-0.358-0.8-0.8-0.8h-7.2c-4.411 0-8-3.589-8-8s3.589-8 8-8h19.892l-2.906 3.488c-0.283 0.339-0.237 0.844 0.102 1.126 0.15 0.125 0.331 0.186 0.512 0.186 0.23 0 0.457-0.098 0.615-0.288l4-4.8c0.019-0.023 0.025-0.052 0.042-0.077 0.022-0.033 0.047-0.063 0.064-0.098 0.010-0.022 0.016-0.044 0.025-0.067z"></path>
</svg>
