<?xml version="1.0" encoding="utf-8"?>
<!-- Generated by IcoMoon.io -->
<!DOCTYPE svg PUBLIC "-//W3C//DTD SVG 1.1//EN" "http://www.w3.org/Graphics/SVG/1.1/DTD/svg11.dtd">
<svg version="1.1" xmlns="http://www.w3.org/2000/svg" xmlns:xlink="http://www.w3.org/1999/xlink" width="32" height="32" viewBox="0 0 32 32">
<path fill="#444444" d="M14.685 17.778h-9.687c-2.76 0-4.998 2.238-4.998 4.998v3.891h12.586c-0.084-0.582-0.142-1.173-0.142-1.778 0.001-2.646 0.833-5.094 2.241-7.111z"></path>
<path fill="#444444" d="M19.556 7.111c0 3.927-3.184 7.111-7.111 7.111s-7.111-3.184-7.111-7.111c0-3.927 3.184-7.111 7.111-7.111s7.111 3.184 7.111 7.111z"></path>
<path fill="#444444" d="M26.666 17.778h-3.555v5.334h-5.334v3.555h5.334v5.334h3.555v-5.334h5.334v-3.555h-5.334z"></path>
</svg>
