<?xml version="1.0" encoding="utf-8"?>
<!-- Generated by IcoMoon.io -->
<!DOCTYPE svg PUBLIC "-//W3C//DTD SVG 1.1//EN" "http://www.w3.org/Graphics/SVG/1.1/DTD/svg11.dtd">
<svg version="1.1" xmlns="http://www.w3.org/2000/svg" xmlns:xlink="http://www.w3.org/1999/xlink" width="32" height="32" viewBox="0 0 32 32">
<path fill="#444444" d="M30.8 10.6l-1.8 0.7c0.7 1.6 1 3.4 1 5.2 0 3.7-1.5 7.1-4 9.6-0.9-3-4.4-4.9-9.5-4.9s-8.7 1.8-9.5 4.9c-2.5-2.4-4-5.8-4-9.6 0-7.4 6.1-13.5 13.5-13.5 1.8 0 3.5 0.4 5.2 1l0.8-1.8c-1.9-0.8-3.9-1.2-6-1.2-8.5 0-15.5 7-15.5 15.5s7 15.5 15.5 15.5 15.5-7 15.5-15.5c0-2-0.4-4-1.2-5.9zM8.8 27.5v0c0-3.2 4.2-4.4 7.7-4.4s7.7 1.1 7.7 4.4v0c-2.2 1.6-4.8 2.5-7.7 2.5s-5.5-0.9-7.7-2.5z"></path>
<path fill="#444444" d="M26 9h2v-2h2v-2h-2v-2h-2v2h-2v2h2z"></path>
<path fill="#444444" d="M16.5 6c-3.9 0-7 3.1-7 7s3.1 7 7 7 7-3.1 7-7-3.1-7-7-7zM16.5 18c-2.8 0-5-2.2-5-5s2.2-5 5-5 5 2.2 5 5-2.2 5-5 5z"></path>
</svg>
