<?xml version="1.0" encoding="utf-8"?>
<!-- Generated by IcoMoon.io -->
<!DOCTYPE svg PUBLIC "-//W3C//DTD SVG 1.1//EN" "http://www.w3.org/Graphics/SVG/1.1/DTD/svg11.dtd">
<svg version="1.1" xmlns="http://www.w3.org/2000/svg" xmlns:xlink="http://www.w3.org/1999/xlink" width="32" height="32" viewBox="0 0 32 32">
<path fill="#444444" d="M16 32c-8.823 0-16-7.177-16-16s7.177-16 16-16 16 7.177 16 16-7.177 16-16 16zM16 2.286c-7.562 0-13.714 6.152-13.714 13.714s6.152 13.714 13.714 13.714 13.714-6.152 13.714-13.714-6.152-13.714-13.714-13.714z"></path>
<path fill="#444444" d="M13.714 22.857c-0.25 0-0.503-0.081-0.713-0.25l-5.714-4.571c-0.494-0.395-0.573-1.114-0.178-1.607 0.394-0.491 1.114-0.573 1.606-0.178l4.832 3.866 9.57-11.696c0.4-0.49 1.119-0.56 1.608-0.162 0.488 0.401 0.56 1.12 0.161 1.608l-10.286 12.571c-0.227 0.277-0.555 0.419-0.886 0.419z"></path>
</svg>
