<?xml version="1.0" encoding="utf-8"?>
<!-- Generated by IcoMoon.io -->
<!DOCTYPE svg PUBLIC "-//W3C//DTD SVG 1.1//EN" "http://www.w3.org/Graphics/SVG/1.1/DTD/svg11.dtd">
<svg version="1.1" xmlns="http://www.w3.org/2000/svg" xmlns:xlink="http://www.w3.org/1999/xlink" width="32" height="32" viewBox="0 0 32 32">
<path fill="#444444" d="M16 32c-8.823 0-16-7.177-16-16s7.177-16 16-16 16 7.177 16 16-7.177 16-16 16zM16 2.286c-7.562 0-13.714 6.152-13.714 13.714s6.152 13.714 13.714 13.714 13.714-6.152 13.714-13.714-6.152-13.714-13.714-13.714z"></path>
<path fill="#444444" d="M20.571 19.429h-5.714c-0.631 0-1.143-0.511-1.143-1.143v-6.857c0-0.632 0.512-1.143 1.143-1.143s1.143 0.511 1.143 1.143v5.714h4.571c0.631 0 1.143 0.511 1.143 1.143s-0.512 1.143-1.143 1.143z"></path>
</svg>
