<?xml version="1.0" encoding="utf-8"?>
<!-- Generated by IcoMoon.io -->
<!DOCTYPE svg PUBLIC "-//W3C//DTD SVG 1.1//EN" "http://www.w3.org/Graphics/SVG/1.1/DTD/svg11.dtd">
<svg version="1.1" xmlns="http://www.w3.org/2000/svg" xmlns:xlink="http://www.w3.org/1999/xlink" width="32" height="32" viewBox="0 0 32 32">
<path fill="#444444" d="M7.273 4.364c0 1.607-1.302 2.909-2.909 2.909s-2.909-1.302-2.909-2.909c0-1.607 1.302-2.909 2.909-2.909s2.909 1.302 2.909 2.909z"></path>
<path fill="#444444" d="M16 0c-0.541 0-1.073 0.028-1.601 0.080-0.797 0.080-1.382 0.794-1.3 1.593s0.783 1.385 1.594 1.302c0.429-0.044 0.865-0.065 1.308-0.065 7.219 0 13.091 5.872 13.091 13.091 0 3.583-1.449 6.832-3.789 9.197-1.136-1.722-3.683-3.379-9.302-3.379s-8.166 1.657-9.302 3.379c-2.34-2.365-3.789-5.615-3.789-9.197 0-0.468 0.004-0.913 0.035-1.354 0.055-0.801-0.55-1.497-1.35-1.552-0.797-0.033-1.497 0.55-1.553 1.351-0.033 0.505-0.041 1.018-0.041 1.555 0 4.977 2.285 9.43 5.862 12.367 0.529 0.435 1.095 0.823 1.677 1.188 2.458 1.54 5.353 2.445 8.461 2.445s6.003-0.905 8.461-2.445c0.582-0.365 1.148-0.753 1.677-1.188 3.577-2.937 5.862-7.389 5.862-12.367 0-8.822-7.178-16-16-16zM16 29.091c-2.577 0-4.976-0.758-7.004-2.049 1.069-2.061 5.116-2.314 7.004-2.314s5.935 0.253 7.004 2.314c-2.028 1.292-4.426 2.049-7.004 2.049z"></path>
<path fill="#444444" d="M15.99 18.909c0.023 0 0.044 0 0.067 0 3.206-0.038 5.789-2.675 5.756-5.882-0.016-1.553-0.637-3.008-1.747-4.096-1.095-1.071-2.535-1.658-4.065-1.658-0.023 0-0.057 0.010-0.067 0-3.206 0.038-5.789 2.676-5.757 5.884 0.016 1.555 0.637 3.008 1.747 4.095 1.095 1.071 2.537 1.658 4.067 1.658zM15.962 9.859c0.828-0.028 1.679 0.317 2.295 0.921s0.961 1.411 0.97 2.273c0.017 1.783-1.418 3.249-3.2 3.27-0.874-0.033-1.677-0.317-2.295-0.921-0.617-0.604-0.961-1.409-0.97-2.272-0.017-1.783 1.418-3.251 3.2-3.271z"></path>
</svg>
