<?xml version="1.0" encoding="utf-8"?>
<!-- Generated by IcoMoon.io -->
<!DOCTYPE svg PUBLIC "-//W3C//DTD SVG 1.1//EN" "http://www.w3.org/Graphics/SVG/1.1/DTD/svg11.dtd">
<svg version="1.1" xmlns="http://www.w3.org/2000/svg" xmlns:xlink="http://www.w3.org/1999/xlink" width="32" height="32" viewBox="0 0 32 32">
<path fill="#444444" d="M6.857 31.238c-0.421 0-0.762-0.341-0.762-0.762v-28.952c0-0.421 0.341-0.762 0.762-0.762s0.762 0.341 0.762 0.762v28.952c0 0.421-0.341 0.762-0.762 0.762z"></path>
<path fill="#444444" d="M26.667 32h-21.333c-2.941 0-5.333-2.393-5.333-5.333v-21.333c0-2.94 2.392-5.333 5.333-5.333h21.333c2.941 0 5.333 2.393 5.333 5.333v21.333c0 2.94-2.392 5.333-5.333 5.333zM5.333 1.524c-2.101 0-3.81 1.709-3.81 3.81v21.333c0 2.101 1.709 3.81 3.81 3.81h21.333c2.101 0 3.81-1.709 3.81-3.81v-21.333c0-2.101-1.709-3.81-3.81-3.81h-21.333z"></path>
<path fill="#444444" d="M22.857 10.703c-0.098 0-0.195-0.018-0.289-0.056-0.286-0.118-0.473-0.396-0.473-0.706v-8.418c0-0.421 0.341-0.762 0.762-0.762s0.762 0.341 0.762 0.762v6.557l0.981-0.997c0.142-0.145 0.337-0.227 0.54-0.228 0.202 0.018 0.398 0.079 0.542 0.223l0.985 0.986v-6.542c0-0.421 0.341-0.762 0.762-0.762s0.762 0.341 0.762 0.762v8.381c0 0.308-0.186 0.587-0.47 0.704-0.286 0.118-0.613 0.053-0.83-0.165l-1.743-1.742-1.746 1.774c-0.146 0.149-0.343 0.228-0.543 0.228z"></path>
</svg>
