<?xml version="1.0" encoding="utf-8"?>
<!-- Generated by IcoMoon.io -->
<!DOCTYPE svg PUBLIC "-//W3C//DTD SVG 1.1//EN" "http://www.w3.org/Graphics/SVG/1.1/DTD/svg11.dtd">
<svg version="1.1" xmlns="http://www.w3.org/2000/svg" xmlns:xlink="http://www.w3.org/1999/xlink" width="32" height="32" viewBox="0 0 32 32">
<path fill="#444444" d="M16 32c-0.216 0-0.422-0.091-0.567-0.253-0.475-0.527-11.624-13.009-11.624-19.557 0-6.836 5.355-12.19 12.19-12.19s12.19 5.355 12.19 12.19c0 6.548-11.149 19.029-11.624 19.557-0.145 0.162-0.35 0.253-0.567 0.253zM16 1.524c-6.081 0-10.667 4.586-10.667 10.667 0 5.182 8.384 15.247 10.667 17.89 2.283-2.643 10.667-12.709 10.667-17.89 0-6.081-4.586-10.667-10.667-10.667z"></path>
<path fill="#444444" d="M16 15.238c-2.521 0-4.571-2.050-4.571-4.571s2.050-4.571 4.571-4.571 4.571 2.050 4.571 4.571-2.050 4.571-4.571 4.571zM16 7.619c-1.681 0-3.048 1.367-3.048 3.048s1.367 3.048 3.048 3.048 3.048-1.367 3.048-3.048-1.367-3.048-3.048-3.048z"></path>
</svg>
