<?xml version="1.0" encoding="utf-8"?>
<!-- Generated by IcoMoon.io -->
<!DOCTYPE svg PUBLIC "-//W3C//DTD SVG 1.1//EN" "http://www.w3.org/Graphics/SVG/1.1/DTD/svg11.dtd">
<svg version="1.1" xmlns="http://www.w3.org/2000/svg" xmlns:xlink="http://www.w3.org/1999/xlink" width="32" height="32" viewBox="0 0 32 32">
<path fill="#444444" d="M16 24.381c-4.621 0-8.381-3.76-8.381-8.381s3.76-8.381 8.381-8.381 8.381 3.76 8.381 8.381-3.76 8.381-8.381 8.381zM16 9.143c-3.781 0-6.857 3.076-6.857 6.857s3.077 6.857 6.857 6.857 6.857-3.076 6.857-6.857-3.077-6.857-6.857-6.857z"></path>
<path fill="#444444" d="M16 5.333c-0.421 0-0.762-0.341-0.762-0.762v-3.81c0-0.421 0.341-0.762 0.762-0.762s0.762 0.341 0.762 0.762v3.81c0 0.421-0.341 0.762-0.762 0.762z"></path>
<path fill="#444444" d="M16 32c-0.421 0-0.762-0.341-0.762-0.762v-3.81c0-0.421 0.341-0.762 0.762-0.762s0.762 0.341 0.762 0.762v3.81c0 0.421-0.341 0.762-0.762 0.762z"></path>
<path fill="#444444" d="M3.81 16.762h-3.048c-0.421 0-0.762-0.341-0.762-0.762s0.341-0.762 0.762-0.762h3.048c0.421 0 0.762 0.341 0.762 0.762s-0.341 0.762-0.762 0.762z"></path>
<path fill="#444444" d="M31.238 16.762h-3.81c-0.421 0-0.762-0.341-0.762-0.762s0.341-0.762 0.762-0.762h3.81c0.421 0 0.762 0.341 0.762 0.762s-0.341 0.762-0.762 0.762z"></path>
<path fill="#444444" d="M7.619 8.381c-0.195 0-0.39-0.075-0.539-0.223l-2.394-2.395c-0.298-0.298-0.298-0.779 0-1.077s0.779-0.298 1.077 0l2.394 2.395c0.298 0.298 0.298 0.779 0 1.077-0.149 0.149-0.344 0.223-0.539 0.223z"></path>
<path fill="#444444" d="M26.775 27.538c-0.195 0-0.39-0.075-0.539-0.223l-2.394-2.395c-0.298-0.298-0.298-0.779 0-1.077s0.779-0.298 1.077 0l2.394 2.395c0.298 0.298 0.298 0.779 0 1.077-0.149 0.149-0.344 0.223-0.539 0.223z"></path>
<path fill="#444444" d="M5.225 27.538c-0.195 0-0.39-0.075-0.539-0.223-0.298-0.298-0.298-0.779 0-1.077l2.394-2.395c0.298-0.298 0.779-0.298 1.077 0s0.298 0.779 0 1.077l-2.394 2.395c-0.149 0.149-0.344 0.223-0.539 0.223z"></path>
<path fill="#444444" d="M24.381 8.381c-0.195 0-0.39-0.075-0.539-0.223-0.298-0.298-0.298-0.779 0-1.077l2.394-2.395c0.298-0.298 0.779-0.298 1.077 0s0.298 0.779 0 1.077l-2.394 2.395c-0.149 0.149-0.344 0.223-0.539 0.223z"></path>
</svg>
