<?xml version="1.0" encoding="utf-8"?>
<!-- Generated by IcoMoon.io -->
<!DOCTYPE svg PUBLIC "-//W3C//DTD SVG 1.1//EN" "http://www.w3.org/Graphics/SVG/1.1/DTD/svg11.dtd">
<svg version="1.1" xmlns="http://www.w3.org/2000/svg" xmlns:xlink="http://www.w3.org/1999/xlink" width="32" height="32" viewBox="0 0 32 32">
<path fill="#444444" d="M16 18.286c-5.782 0-10.667-4.927-10.667-10.76 0-2.321 0.664-5.633 2.536-7.329 0.139-0.126 0.322-0.197 0.511-0.197h15.238c0.179 0 0.352 0.063 0.489 0.178 2.226 1.864 2.558 5.281 2.558 7.151 0 5.182-4.381 10.957-10.667 10.957zM8.692 1.524c-1.266 1.346-1.835 3.941-1.835 6.002 0 4.92 4.272 9.236 9.143 9.236 5.388 0 9.143-4.971 9.143-9.433 0-1.243-0.182-4.226-1.816-5.805h-14.635z"></path>
<path fill="#444444" d="M16 32c-0.421 0-0.762-0.341-0.762-0.762v-13.714c0-0.421 0.341-0.762 0.762-0.762s0.762 0.341 0.762 0.762v13.714c0 0.421-0.341 0.762-0.762 0.762z"></path>
<path fill="#444444" d="M20.571 32h-9.143c-0.421 0-0.762-0.341-0.762-0.762s0.341-0.762 0.762-0.762h9.143c0.421 0 0.762 0.341 0.762 0.762s-0.341 0.762-0.762 0.762z"></path>
</svg>
