<?xml version="1.0" encoding="utf-8"?>
<!-- Generated by IcoMoon.io -->
<!DOCTYPE svg PUBLIC "-//W3C//DTD SVG 1.1//EN" "http://www.w3.org/Graphics/SVG/1.1/DTD/svg11.dtd">
<svg version="1.1" xmlns="http://www.w3.org/2000/svg" xmlns:xlink="http://www.w3.org/1999/xlink" width="32" height="32" viewBox="0 0 32 32">
<path fill="#444444" d="M26.667 32h-21.333c-2.941 0-5.333-2.393-5.333-5.333v-21.333c0-2.94 2.392-5.333 5.333-5.333h21.333c2.941 0 5.333 2.393 5.333 5.333v21.333c0 2.94-2.392 5.333-5.333 5.333zM5.333 1.524c-2.101 0-3.81 1.709-3.81 3.81v21.333c0 2.101 1.709 3.81 3.81 3.81h21.333c2.101 0 3.81-1.709 3.81-3.81v-21.333c0-2.101-1.709-3.81-3.81-3.81h-21.333z"></path>
<path fill="#444444" d="M30.476 7.619h-28.952c-0.421 0-0.762-0.341-0.762-0.762s0.341-0.762 0.762-0.762h28.952c0.421 0 0.762 0.341 0.762 0.762s-0.341 0.762-0.762 0.762z"></path>
<path fill="#444444" d="M22.095 13.714c-0.421 0-0.762-0.341-0.762-0.762 0-1.26-1.026-2.286-2.286-2.286s-2.286 1.026-2.286 2.286c0 0.421-0.341 0.762-0.762 0.762s-0.762-0.341-0.762-0.762c0-2.101 1.709-3.81 3.81-3.81s3.81 1.709 3.81 3.81c0 0.421-0.341 0.762-0.762 0.762z"></path>
<path fill="#444444" d="M19.048 19.81c-2.101 0-3.81-1.709-3.81-3.81 0-0.421 0.341-0.762 0.762-0.762s0.762 0.341 0.762 0.762c0 1.26 1.026 2.286 2.286 2.286s2.286-1.026 2.286-2.286c0-0.421 0.341-0.762 0.762-0.762s0.762 0.341 0.762 0.762c0 2.101-1.709 3.81-3.81 3.81z"></path>
<path fill="#444444" d="M19.048 28.19c-2.101 0-3.81-1.709-3.81-3.81 0-0.421 0.341-0.762 0.762-0.762s0.762 0.341 0.762 0.762c0 1.26 1.026 2.286 2.286 2.286s2.286-1.026 2.286-2.286v-11.429c0-0.421 0.341-0.762 0.762-0.762s0.762 0.341 0.762 0.762v11.429c0 2.101-1.709 3.81-3.81 3.81z"></path>
<path fill="#444444" d="M11.429 28.19c-0.421 0-0.762-0.341-0.762-0.762v-15.007l-1.652 2.478c-0.234 0.35-0.707 0.444-1.057 0.211s-0.444-0.706-0.211-1.057l3.048-4.571c0.187-0.28 0.534-0.404 0.855-0.306s0.541 0.394 0.541 0.729v17.524c0 0.421-0.341 0.762-0.762 0.762z"></path>
<path fill="#444444" d="M16 16.762c-0.421 0-0.762-0.341-0.762-0.762v-3.048c0-0.421 0.341-0.762 0.762-0.762s0.762 0.341 0.762 0.762v3.048c0 0.421-0.341 0.762-0.762 0.762z"></path>
</svg>
