<?xml version="1.0" encoding="utf-8"?>
<!-- Generated by IcoMoon.io -->
<!DOCTYPE svg PUBLIC "-//W3C//DTD SVG 1.1//EN" "http://www.w3.org/Graphics/SVG/1.1/DTD/svg11.dtd">
<svg version="1.1" xmlns="http://www.w3.org/2000/svg" xmlns:xlink="http://www.w3.org/1999/xlink" width="32" height="32" viewBox="0 0 32 32">
<path fill="#444444" d="M19.048 32h-9.143c-2.941 0-5.333-2.393-5.333-5.333v-14.476c0-0.421 0.341-0.762 0.762-0.762s0.762 0.341 0.762 0.762v14.476c0 2.101 1.709 3.81 3.81 3.81h9.143c2.101 0 3.81-1.709 3.81-3.81v-14.476c0-0.421 0.341-0.762 0.762-0.762s0.762 0.341 0.762 0.762v14.476c0 2.94-2.392 5.333-5.333 5.333z"></path>
<path fill="#444444" d="M7.619 7.619c-0.103 0-0.206-0.021-0.306-0.065-0.386-0.17-0.561-0.619-0.391-1.004 0.009-0.020 0.9-2.050 1.394-3.733 0.176-0.601-0.018-1.125-0.472-1.272-0.378-0.124-0.843 0.383-1.029 0.913-0.139 0.397-0.574 0.61-0.971 0.467-0.398-0.139-0.606-0.574-0.468-0.971 0.504-1.442 1.77-2.239 2.939-1.859 1.262 0.412 1.877 1.737 1.461 3.151-0.522 1.78-1.422 3.832-1.461 3.918-0.126 0.285-0.405 0.455-0.697 0.455z"></path>
<path fill="#444444" d="M14.476 7.619c-0.103 0-0.206-0.021-0.306-0.065-0.385-0.17-0.56-0.619-0.39-1.004 0.009-0.020 0.9-2.050 1.394-3.733 0.176-0.601-0.018-1.125-0.472-1.272-0.374-0.123-0.843 0.384-1.029 0.913-0.139 0.397-0.574 0.61-0.971 0.467-0.397-0.139-0.606-0.574-0.467-0.97 0.505-1.442 1.77-2.239 2.939-1.859 1.262 0.412 1.877 1.737 1.461 3.151-0.523 1.78-1.423 3.832-1.461 3.919-0.126 0.283-0.405 0.453-0.698 0.453z"></path>
<path fill="#444444" d="M21.333 7.619c-0.103 0-0.206-0.021-0.306-0.065-0.385-0.17-0.56-0.619-0.39-1.004 0.009-0.020 0.9-2.050 1.394-3.733 0.176-0.601-0.018-1.125-0.472-1.272-0.375-0.123-0.844 0.384-1.029 0.913-0.139 0.397-0.575 0.61-0.971 0.467-0.397-0.139-0.606-0.574-0.467-0.97 0.504-1.442 1.77-2.239 2.939-1.859 1.262 0.412 1.877 1.737 1.461 3.151-0.523 1.78-1.423 3.832-1.461 3.919-0.126 0.283-0.405 0.453-0.698 0.453z"></path>
<path fill="#444444" d="M23.619 22.095c-0.421 0-0.762-0.341-0.762-0.762s0.341-0.762 0.762-0.762c1.26 0 2.286-1.026 2.286-2.286s-1.026-2.286-2.286-2.286c-0.421 0-0.762-0.341-0.762-0.762s0.341-0.762 0.762-0.762c2.101 0 3.81 1.709 3.81 3.81s-1.709 3.81-3.81 3.81z"></path>
<path fill="#444444" d="M23.619 12.952h-18.286c-0.421 0-0.762-0.341-0.762-0.762s0.341-0.762 0.762-0.762h18.286c0.421 0 0.762 0.341 0.762 0.762s-0.341 0.762-0.762 0.762z"></path>
</svg>
