<?xml version="1.0" encoding="utf-8"?>
<!-- Generated by IcoMoon.io -->
<!DOCTYPE svg PUBLIC "-//W3C//DTD SVG 1.1//EN" "http://www.w3.org/Graphics/SVG/1.1/DTD/svg11.dtd">
<svg version="1.1" xmlns="http://www.w3.org/2000/svg" xmlns:xlink="http://www.w3.org/1999/xlink" width="32" height="32" viewBox="0 0 32 32">
<path fill="#444444" d="M23.621 20.571c-0.001 0-0.001 0-0.002 0h-17.524c-2.885-0.013-6.095-2.621-6.095-6.344 0-0.914 0.186-1.8 0.552-2.635 0.889-2.025 2.699-3.425 4.82-3.771 0.499-4.436 4.184-7.821 8.658-7.821h0.088c2.976 0 5.729 1.538 7.327 4.053 0.715-0.197 1.451-0.297 2.197-0.297 4.488 0 8.157 3.562 8.35 8.109 0.001 0.017 0.008 0.386 0.008 0.393-0.012 4.884-3.458 8.302-8.379 8.314zM14.029 1.524c-3.871 0-7.027 3.081-7.186 7.015-0.016 0.392-0.327 0.709-0.718 0.73-1.828 0.104-3.429 1.227-4.178 2.935-0.28 0.64-0.423 1.321-0.423 2.024 0 2.747 2.415 4.811 4.574 4.821h17.518c4.092-0.010 6.849-2.74 6.859-6.792l-0.008-0.341c-0.158-3.713-3.157-6.634-6.827-6.634-0.782 0-1.553 0.135-2.288 0.399-0.354 0.127-0.75-0.021-0.929-0.355-1.265-2.344-3.682-3.8-6.307-3.8h-0.088z"></path>
<path fill="#444444" d="M5.333 32c-0.133 0-0.269-0.035-0.392-0.109-0.361-0.216-0.478-0.684-0.261-1.045l4.571-7.619c0.216-0.361 0.683-0.478 1.045-0.261s0.478 0.684 0.261 1.045l-4.571 7.619c-0.142 0.238-0.395 0.37-0.654 0.37z"></path>
<path fill="#444444" d="M11.428 32c-0.133 0-0.269-0.035-0.392-0.109-0.361-0.216-0.478-0.684-0.261-1.045l4.571-7.619c0.216-0.361 0.684-0.478 1.045-0.261s0.478 0.684 0.261 1.045l-4.571 7.619c-0.142 0.238-0.395 0.37-0.654 0.37z"></path>
<path fill="#444444" d="M17.523 32c-0.133 0-0.269-0.035-0.392-0.109-0.361-0.216-0.478-0.684-0.261-1.045l4.571-7.619c0.216-0.361 0.684-0.478 1.045-0.261s0.478 0.684 0.261 1.045l-4.571 7.619c-0.142 0.238-0.395 0.37-0.654 0.37z"></path>
</svg>
