<?xml version="1.0" encoding="utf-8"?>
<!-- Generated by IcoMoon.io -->
<!DOCTYPE svg PUBLIC "-//W3C//DTD SVG 1.1//EN" "http://www.w3.org/Graphics/SVG/1.1/DTD/svg11.dtd">
<svg version="1.1" xmlns="http://www.w3.org/2000/svg" xmlns:xlink="http://www.w3.org/1999/xlink" width="32" height="32" viewBox="0 0 32 32">
<path fill="#444444" d="M16.235 32c-8.952 0-16.235-7.283-16.235-16.235 0-7.272 4.928-13.744 11.983-15.736 0.261-0.075 0.543-0.004 0.738 0.187s0.274 0.469 0.208 0.732c-0.371 1.474-0.573 2.701-0.617 3.751-0.164 3.938 1.198 7.621 3.835 10.37 2.775 2.893 6.638 4.451 10.853 4.309 0.333-0.010 0.664-0.013 0.991-0.016 1.079-0.010 2.098-0.019 3.039-0.285 0.263-0.074 0.543-0.004 0.738 0.187 0.195 0.189 0.274 0.469 0.208 0.732-1.781 7.070-8.255 12.005-15.742 12.005zM11.147 1.909c-5.726 2.178-9.623 7.701-9.623 13.857 0 8.112 6.599 14.711 14.711 14.711 6.367 0 11.923-3.926 13.917-9.686-0.718 0.082-1.44 0.088-2.146 0.095-0.317 0.003-0.637 0.006-0.958 0.016-4.661 0.13-8.923-1.571-11.999-4.778-2.926-3.051-4.439-7.131-4.257-11.488 0.033-0.814 0.15-1.714 0.355-2.727z"></path>
</svg>
