<?xml version="1.0" encoding="utf-8"?>
<!-- Generated by IcoMoon.io -->
<!DOCTYPE svg PUBLIC "-//W3C//DTD SVG 1.1//EN" "http://www.w3.org/Graphics/SVG/1.1/DTD/svg11.dtd">
<svg version="1.1" xmlns="http://www.w3.org/2000/svg" xmlns:xlink="http://www.w3.org/1999/xlink" width="32" height="32" viewBox="0 0 32 32">
<path fill="#444444" d="M16 12c-2.206 0-4 1.794-4 4s1.794 4 4 4 4-1.794 4-4-1.794-4-4-4zM16 18.4c-1.323 0-2.4-1.077-2.4-2.4s1.077-2.4 2.4-2.4 2.4 1.077 2.4 2.4-1.077 2.4-2.4 2.4z"></path>
<path fill="#444444" d="M31.492 12.624l-3.771-1.48 1.62-3.713c0.132-0.302 0.066-0.653-0.167-0.886l-3.72-3.72c-0.233-0.233-0.585-0.298-0.886-0.167l-3.713 1.621-1.48-3.771c-0.12-0.306-0.416-0.508-0.745-0.508h-5.261c-0.329 0-0.625 0.202-0.745 0.508l-1.48 3.771-3.713-1.621c-0.302-0.132-0.653-0.065-0.886 0.168l-3.72 3.72c-0.233 0.233-0.299 0.584-0.168 0.886l1.621 3.713-3.771 1.479c-0.306 0.121-0.508 0.416-0.508 0.745v5.262c0 0.329 0.202 0.625 0.508 0.745l3.771 1.479-1.621 3.713c-0.132 0.302-0.066 0.653 0.167 0.886l3.721 3.72c0.154 0.154 0.358 0.235 0.566 0.235 0.108 0 0.217-0.022 0.32-0.066l3.711-1.62 1.482 3.771c0.12 0.306 0.416 0.507 0.745 0.507h5.261c0.329 0 0.624-0.201 0.745-0.507l1.481-3.769 3.713 1.618c0.102 0.045 0.211 0.066 0.319 0.066 0.208 0 0.413-0.082 0.566-0.234l3.72-3.72c0.233-0.233 0.299-0.583 0.167-0.885l-1.618-3.714 3.77-1.478c0.306-0.12 0.508-0.416 0.508-0.745v-5.262c0-0.33-0.202-0.625-0.508-0.746zM19.98 25.607h-7.95l-5.63-5.63v-7.954l5.623-5.623h7.954l5.623 5.623v7.963l-5.62 5.621zM24.707 4.343l2.949 2.949-1.375 3.15-4.724-4.724 3.15-1.375zM13.915 1.6h4.17l1.255 3.2h-6.682l1.256-3.2zM7.292 4.343l3.15 1.375-4.724 4.724-1.375-3.15 2.949-2.949zM1.6 13.914l3.2-1.255v6.682l-3.2-1.255v-4.171zM7.292 27.656l-2.95-2.949 1.375-3.15 4.724 4.724-3.15 1.375zM18.085 30.4h-4.17l-1.254-3.193h6.68l-1.255 3.193zM24.708 27.657l-3.145-1.37 4.723-4.723 1.37 3.145-2.949 2.949zM30.4 18.085l-3.2 1.255v-6.682l3.2 1.255v4.171z"></path>
</svg>
