<?xml version="1.0" encoding="utf-8"?>
<!-- Generated by IcoMoon.io -->
<!DOCTYPE svg PUBLIC "-//W3C//DTD SVG 1.1//EN" "http://www.w3.org/Graphics/SVG/1.1/DTD/svg11.dtd">
<svg version="1.1" xmlns="http://www.w3.org/2000/svg" xmlns:xlink="http://www.w3.org/1999/xlink" width="32" height="32" viewBox="0 0 32 32">
<path fill="#444444" d="M23.841 31.005c0.212 0 0.411-0.131 0.488-0.341 0.098-0.269-0.041-0.567-0.31-0.665l-16.752-6.097c-0.266-0.097-0.56 0.037-0.662 0.301-0.103 0.268 0.030 0.568 0.298 0.671 0.009 0.004 0.018 0.007 0.027 0.010l16.734 6.091c0.059 0.022 0.119 0.032 0.178 0.032z"></path>
<path fill="#444444" d="M25.668 31.33c0.843 0 1.683-0.185 2.47-0.551 1.417-0.66 2.491-1.833 3.026-3.302 1.104-3.032-0.465-6.397-3.498-7.501-0.269-0.098-0.567 0.041-0.665 0.31s0.041 0.567 0.31 0.665c2.495 0.908 3.785 3.676 2.877 6.171-0.44 1.208-1.324 2.173-2.489 2.717s-2.473 0.601-3.681 0.161c-0.269-0.098-0.567 0.041-0.665 0.31s0.041 0.567 0.31 0.665c0.653 0.238 1.33 0.356 2.005 0.356z"></path>
<path fill="#444444" d="M27.489 20.981c0.222 0 0.427-0.143 0.495-0.366 0.081-0.264-0.059-0.546-0.318-0.641l-22.978-8.364c-0.269-0.098-0.567 0.041-0.665 0.31s0.041 0.567 0.31 0.665l22.959 8.356c0.014 0.006 0.028 0.011 0.043 0.015 0.051 0.016 0.102 0.023 0.153 0.023z"></path>
<path fill="#444444" d="M4.511 12.618c0.212 0 0.411-0.131 0.488-0.341 0.098-0.269-0.041-0.567-0.31-0.665-2.494-0.908-3.785-3.676-2.877-6.171s3.676-3.785 6.171-2.878c0.269 0.098 0.567-0.041 0.665-0.31s-0.041-0.567-0.31-0.665c-3.032-1.104-6.397 0.465-7.501 3.498s0.465 6.397 3.498 7.501c0.059 0.021 0.118 0.032 0.177 0.032z"></path>
<path fill="#444444" d="M9.612 31.68c0.076 0 0.153-0.017 0.226-0.052 0.258-0.125 0.365-0.436 0.24-0.693l-3.453-7.111c-0.125-0.258-0.436-0.365-0.693-0.24s-0.365 0.436-0.24 0.693l3.453 7.111c0.090 0.185 0.275 0.292 0.467 0.292z"></path>
<path fill="#444444" d="M6.159 24.569c0.071 0 0.143-0.015 0.212-0.045l7.216-3.228c0.261-0.117 0.379-0.424 0.262-0.685s-0.424-0.379-0.685-0.262l-7.216 3.228c-0.261 0.117-0.379 0.424-0.262 0.685 0.086 0.193 0.276 0.307 0.474 0.307z"></path>
<path fill="#444444" d="M23.369 8.13c0.204 0 0.396-0.121 0.479-0.319 0.11-0.264-0.015-0.569-0.279-0.679-0.013-0.005-0.027-0.011-0.040-0.015l-15.191-5.529c-0.269-0.098-0.567 0.041-0.665 0.31s0.041 0.567 0.31 0.665l15.21 5.536c0.058 0.021 0.118 0.031 0.177 0.031z"></path>
<path fill="#444444" d="M24.299 8.469c0.076 0 0.153-0.017 0.226-0.052 0.258-0.125 0.365-0.436 0.24-0.693l-3.453-7.111c-0.125-0.258-0.436-0.365-0.693-0.24s-0.365 0.436-0.24 0.693l3.453 7.111c0.090 0.185 0.275 0.292 0.467 0.292z"></path>
<path fill="#444444" d="M17.083 11.696c0.071 0 0.143-0.015 0.212-0.045l7.216-3.228c0.261-0.117 0.379-0.424 0.262-0.685s-0.424-0.379-0.685-0.262l-7.216 3.228c-0.261 0.117-0.379 0.424-0.262 0.685 0.086 0.193 0.276 0.307 0.474 0.307z"></path>
</svg>
