<?xml version="1.0" encoding="utf-8"?>
<!-- Generated by IcoMoon.io -->
<!DOCTYPE svg PUBLIC "-//W3C//DTD SVG 1.1//EN" "http://www.w3.org/Graphics/SVG/1.1/DTD/svg11.dtd">
<svg version="1.1" xmlns="http://www.w3.org/2000/svg" xmlns:xlink="http://www.w3.org/1999/xlink" width="32" height="32" viewBox="0 0 32 32">
<path fill="#444444" d="M28.19 29.714l-13.714-0.006c-2.136 0-3.81-1.655-3.81-3.767v-1.754c0-0.421 0.341-0.762 0.762-0.762s0.762 0.341 0.762 0.762v1.754c0 1.279 0.983 2.243 2.286 2.243l13.714 0.006c1.303 0 2.286-0.968 2.286-2.249v-19.894c0-1.275-0.983-2.238-2.286-2.238h-13.714c-1.138 0-2.286 0.635-2.286 2.053v2.516c0 0.421-0.341 0.762-0.762 0.762s-0.762-0.341-0.762-0.762v-2.516c0-2.072 1.602-3.577 3.81-3.577h13.714c2.136 0 3.81 1.652 3.81 3.762v19.894c0 2.116-1.673 3.773-3.81 3.773z"></path>
<path fill="#444444" d="M19.81 16.756h-19.048c-0.421 0-0.762-0.341-0.762-0.762s0.341-0.762 0.762-0.762h19.048c0.421 0 0.762 0.341 0.762 0.762s-0.341 0.762-0.762 0.762z"></path>
<path fill="#444444" d="M6.857 22.851c-0.195 0-0.39-0.075-0.539-0.223l-6.095-6.095c-0.298-0.298-0.298-0.779 0-1.077l6.095-6.095c0.298-0.298 0.779-0.298 1.077 0s0.298 0.779 0 1.077l-5.557 5.557 5.557 5.557c0.298 0.298 0.298 0.779 0 1.077-0.149 0.149-0.344 0.223-0.539 0.223z"></path>
</svg>
