<?xml version="1.0" encoding="utf-8"?>
<!-- Generated by IcoMoon.io -->
<!DOCTYPE svg PUBLIC "-//W3C//DTD SVG 1.1//EN" "http://www.w3.org/Graphics/SVG/1.1/DTD/svg11.dtd">
<svg version="1.1" xmlns="http://www.w3.org/2000/svg" xmlns:xlink="http://www.w3.org/1999/xlink" width="32" height="32" viewBox="0 0 32 32">
<path fill="#444444" d="M16 32c-8.823 0-16-7.178-16-16s7.177-16 16-16 16 7.178 16 16-7.177 16-16 16zM16 1.524c-7.982 0-14.476 6.494-14.476 14.476s6.494 14.476 14.476 14.476 14.476-6.494 14.476-14.476-6.494-14.476-14.476-14.476z"></path>
<path fill="#444444" d="M12.28 13.801c-0.29 0-0.567-0.166-0.694-0.447-0.496-1.094-0.526-2.326-0.085-3.469 0.474-1.226 1.465-2.24 2.719-2.781 2.507-1.084 5.414-0.058 6.477 2.287 0.174 0.383 0.004 0.835-0.379 1.009s-0.835 0.004-1.009-0.379c-0.723-1.594-2.736-2.275-4.486-1.518-0.882 0.38-1.574 1.084-1.902 1.931-0.293 0.758-0.275 1.571 0.051 2.29 0.174 0.383 0.004 0.835-0.379 1.008-0.101 0.047-0.208 0.069-0.313 0.069z"></path>
<path fill="#444444" d="M15.899 20.385c-0.368 0-0.692-0.267-0.751-0.642-0.325-2.037 0.112-4.551 2.312-5.499 0.888-0.363 1.554-1.025 1.89-1.87 0.309-0.778 0.295-1.612-0.040-2.352-0.174-0.383-0.004-0.835 0.379-1.008 0.382-0.175 0.834-0.005 1.009 0.379 0.508 1.12 0.533 2.379 0.069 3.544-0.491 1.234-1.456 2.197-2.716 2.712-1.79 0.773-1.478 3.347-1.397 3.855 0.066 0.415-0.217 0.806-0.632 0.872-0.042 0.006-0.082 0.009-0.122 0.009z"></path>
<path fill="#444444" d="M16 25.143c-0.63 0-1.143-0.513-1.143-1.143s0.513-1.143 1.143-1.143 1.143 0.513 1.143 1.143-0.513 1.143-1.143 1.143z"></path>
</svg>
