<?xml version="1.0" encoding="utf-8"?>
<!-- Generated by IcoMoon.io -->
<!DOCTYPE svg PUBLIC "-//W3C//DTD SVG 1.1//EN" "http://www.w3.org/Graphics/SVG/1.1/DTD/svg11.dtd">
<svg version="1.1" xmlns="http://www.w3.org/2000/svg" xmlns:xlink="http://www.w3.org/1999/xlink" width="32" height="32" viewBox="0 0 32 32">
<path fill="#444444" d="M24.381 27.429h-21.333c-1.709 0-3.048-1.339-3.048-3.048v-21.333c0-1.709 1.339-3.048 3.048-3.048h21.333c1.709 0 3.048 1.339 3.048 3.048v21.334c0 1.708-1.339 3.047-3.048 3.047zM3.048 1.524c-0.855 0-1.524 0.67-1.524 1.524v21.333c0 0.854 0.669 1.524 1.524 1.524h21.333c0.855 0 1.524-0.669 1.524-1.523v-21.334c0-0.854-0.669-1.524-1.524-1.524h-21.333z"></path>
<path fill="#444444" d="M28.952 32h-22.857c-1.71 0-3.049-1.357-3.049-3.090v-2.244c0-0.421 0.341-0.762 0.762-0.762s0.762 0.341 0.762 0.762v2.244c0 0.892 0.655 1.566 1.525 1.566h22.857c0.855 0 1.524-0.67 1.524-1.524v-22.857c0-0.854-0.669-1.524-1.524-1.524h-2.286c-0.421 0-0.762-0.341-0.762-0.762s0.341-0.762 0.762-0.762h2.286c1.709 0 3.048 1.339 3.048 3.048v22.857c0 1.709-1.339 3.048-3.048 3.048z"></path>
<path fill="#444444" d="M22.095 8.381h-16.762c-0.421 0-0.762-0.341-0.762-0.762s0.341-0.762 0.762-0.762h16.762c0.421 0 0.762 0.341 0.762 0.762s-0.341 0.762-0.762 0.762z"></path>
<path fill="#444444" d="M22.095 12.19h-16.762c-0.421 0-0.762-0.341-0.762-0.762s0.341-0.762 0.762-0.762h16.762c0.421 0 0.762 0.341 0.762 0.762s-0.341 0.762-0.762 0.762z"></path>
<path fill="#444444" d="M22.095 16h-16.762c-0.421 0-0.762-0.341-0.762-0.762s0.341-0.762 0.762-0.762h16.762c0.421 0 0.762 0.341 0.762 0.762s-0.341 0.762-0.762 0.762z"></path>
<path fill="#444444" d="M13.714 19.81h-8.381c-0.421 0-0.762-0.341-0.762-0.762s0.341-0.762 0.762-0.762h8.381c0.421 0 0.762 0.341 0.762 0.762s-0.341 0.762-0.762 0.762z"></path>
</svg>
