<?xml version="1.0" encoding="utf-8"?>
<!-- Generated by IcoMoon.io -->
<!DOCTYPE svg PUBLIC "-//W3C//DTD SVG 1.1//EN" "http://www.w3.org/Graphics/SVG/1.1/DTD/svg11.dtd">
<svg version="1.1" xmlns="http://www.w3.org/2000/svg" xmlns:xlink="http://www.w3.org/1999/xlink" width="32" height="32" viewBox="0 0 32 32">
<path fill="#444444" d="M16 19.81c-2.101 0-3.81-1.709-3.81-3.81s1.709-3.81 3.81-3.81 3.81 1.709 3.81 3.81-1.709 3.81-3.81 3.81zM16 13.714c-1.26 0-2.286 1.026-2.286 2.286s1.026 2.286 2.286 2.286 2.286-1.026 2.286-2.286-1.026-2.286-2.286-2.286z"></path>
<path fill="#444444" d="M18.637 32h-5.275c-0.302 0-0.577-0.179-0.698-0.457l-1.888-4.314c-0.169-0.386 0.007-0.834 0.392-1.003 0.386-0.171 0.835 0.007 1.003 0.393l1.688 3.857h4.278l1.688-3.857c0.168-0.386 0.618-0.564 1.003-0.393 0.386 0.169 0.562 0.618 0.392 1.003l-1.887 4.314c-0.121 0.278-0.395 0.457-0.698 0.457z"></path>
<path fill="#444444" d="M20.525 5.838c-0.293 0-0.573-0.171-0.699-0.457l-1.687-3.857h-4.278l-1.688 3.857c-0.168 0.386-0.618 0.564-1.003 0.393-0.386-0.169-0.562-0.618-0.392-1.003l1.887-4.314c0.121-0.278 0.395-0.457 0.698-0.457h5.275c0.302 0 0.577 0.179 0.698 0.457l1.888 4.314c0.169 0.386-0.007 0.834-0.392 1.003-0.101 0.044-0.204 0.064-0.306 0.064z"></path>
<path fill="#444444" d="M26.923 12.238c-0.092 0-0.186-0.016-0.277-0.052-0.392-0.153-0.585-0.595-0.432-0.987l1.534-3.921-3.025-3.026-3.921 1.534c-0.392 0.154-0.834-0.041-0.987-0.432-0.153-0.392 0.040-0.834 0.432-0.987l4.385-1.716c0.281-0.11 0.602-0.043 0.816 0.171l3.73 3.73c0.213 0.213 0.28 0.533 0.17 0.815l-1.716 4.386c-0.117 0.3-0.405 0.485-0.71 0.485z"></path>
<path fill="#444444" d="M7.090 29.402c-0.198 0-0.393-0.078-0.539-0.223l-3.73-3.73c-0.214-0.214-0.281-0.534-0.171-0.816l1.716-4.386c0.153-0.392 0.595-0.585 0.987-0.432s0.585 0.595 0.432 0.987l-1.534 3.921 3.025 3.026 3.921-1.534c0.392-0.153 0.834 0.041 0.987 0.432 0.153 0.392-0.040 0.834-0.432 0.987l-4.384 1.716c-0.090 0.035-0.184 0.053-0.277 0.053z"></path>
<path fill="#444444" d="M5.077 12.238c-0.305 0-0.592-0.184-0.71-0.485l-1.716-4.386c-0.11-0.282-0.043-0.602 0.171-0.816l3.73-3.73c0.213-0.214 0.534-0.28 0.816-0.171l4.385 1.716c0.392 0.153 0.585 0.595 0.432 0.987s-0.595 0.587-0.987 0.432l-3.922-1.534-3.025 3.026 1.534 3.921c0.153 0.392-0.040 0.834-0.432 0.987-0.091 0.036-0.185 0.053-0.277 0.053z"></path>
<path fill="#444444" d="M24.91 29.402c-0.094 0-0.187-0.017-0.277-0.052l-4.385-1.716c-0.392-0.153-0.585-0.595-0.432-0.987s0.595-0.585 0.987-0.432l3.921 1.534 3.026-3.026-1.534-3.921c-0.153-0.392 0.040-0.834 0.432-0.987s0.834 0.041 0.987 0.432l1.716 4.386c0.11 0.282 0.043 0.602-0.171 0.816l-3.73 3.73c-0.145 0.145-0.339 0.222-0.538 0.222z"></path>
<path fill="#444444" d="M5.076 21.286c-0.102 0-0.206-0.020-0.305-0.064l-4.314-1.887c-0.278-0.12-0.457-0.395-0.457-0.697v-5.275c0-0.302 0.179-0.577 0.456-0.698l4.314-1.887c0.385-0.17 0.835 0.007 1.003 0.393s-0.007 0.835-0.392 1.003l-3.858 1.688v4.278l3.858 1.688c0.386 0.168 0.562 0.618 0.392 1.003-0.125 0.287-0.405 0.457-0.698 0.457z"></path>
<path fill="#444444" d="M26.924 21.286c-0.293 0-0.573-0.171-0.699-0.457-0.169-0.386 0.007-0.835 0.392-1.003l3.858-1.687v-4.278l-3.858-1.688c-0.386-0.168-0.562-0.618-0.392-1.003 0.168-0.386 0.618-0.562 1.003-0.393l4.314 1.887c0.277 0.12 0.456 0.395 0.456 0.697v5.275c0 0.302-0.179 0.577-0.456 0.698l-4.314 1.887c-0.1 0.043-0.203 0.063-0.306 0.063z"></path>
</svg>
