<?xml version="1.0" encoding="utf-8"?>
<!-- Generated by IcoMoon.io -->
<!DOCTYPE svg PUBLIC "-//W3C//DTD SVG 1.1//EN" "http://www.w3.org/Graphics/SVG/1.1/DTD/svg11.dtd">
<svg version="1.1" xmlns="http://www.w3.org/2000/svg" xmlns:xlink="http://www.w3.org/1999/xlink" width="67" height="32" viewBox="0 0 67 32">
<path fill="#444444" d="M10.099 10.455c-0.074-0.495-0.823-0.284-0.749 0.206 0.548 3.649 1.047 7.305 1.661 10.945 0.084 0.493 0.833 0.282 0.751-0.207-0.614-3.639-1.114-7.296-1.663-10.944z"></path>
<path fill="#444444" d="M18.765 0.209c-3.228 1.277-6.228 3.016-9.242 4.724-2.98 1.686-5.981 3.776-9.254 4.835-0.474 0.154-0.271 0.904 0.206 0.748 3.126-1.010 5.927-2.946 8.776-4.539 3.184-1.781 6.317-3.673 9.719-5.019 0.461-0.183 0.26-0.934-0.206-0.749z"></path>
<path fill="#444444" d="M15.818 17.071c-0.149-0.134-0.407-0.167-0.55 0-0.308 0.357-0.495 0.753-0.62 1.171-0.36-2.333-0.687-4.67-1.294-6.956-0.128-0.484-0.878-0.279-0.75 0.206 0.802 3.024 1.115 6.139 1.663 9.213 0.066 0.372 0.684 0.373 0.75 0 0.153-0.869 0.111-1.907 0.54-2.704 0.321 0.63 0.174 1.502 0.026 2.15-0.111 0.488 0.638 0.695 0.75 0.206 0.245-1.073 0.386-2.475-0.515-3.286z"></path>
<path fill="#444444" d="M19.075 20.213c-1.253 0.126-1.845-1.681-1.236-2.632-0.021 0.128-0.074 0.258-0.137 0.399-0.204 0.454 0.465 0.849 0.671 0.392 0.256-0.571 0.402-1.171 0-1.707-0.126-0.169-0.334-0.257-0.532-0.14-1.807 1.065-1.022 4.691 1.234 4.464 0.494-0.050 0.499-0.826 0-0.776z"></path>
<path fill="#444444" d="M25.157 11.579c-0.31-1.133 0.251-2.385 0.736-3.382 0.298-0.615 0.665-1.202 1.097-1.731 0.193-0.237 0.418-0.455 0.66-0.639 0.096-0.068 0.197-0.129 0.302-0.183 0.045-0.003 0.084-0.008 0.114-0.015 0.14 0.283 0.697 0.213 0.748-0.199 0.026-0.207-0.012-0.295-0.123-0.473-0.068-0.11-0.197-0.201-0.335-0.192-1.921 0.132-3.064 2.695-3.651 4.228-0.771 2.013-0.308 3.845 1.424 5.157 0.992 0.754 5.235 2.47 3.026 3.984-1.354 0.927-3.738 1.379-5.336 0.984-0.486-0.121-0.693 0.629-0.206 0.748 1.827 0.453 8.927-0.662 6.552-3.8-1.384-1.828-4.344-2.064-5.009-4.488z"></path>
<path fill="#444444" d="M35.256 13.987c-0.149 0.864-0.114 1.913-0.623 2.657-0.217-0.497-0.166-1.141-0.207-1.654-0.036-0.415-0.657-0.553-0.764-0.103-0.167 0.706-0.238 1.551-0.6 2.209-0.478-0.827-0.506-1.94-0.729-2.833-0.122-0.485-0.872-0.28-0.75 0.206 0.303 1.213 0.329 2.592 1.208 3.566 0.137 0.15 0.414 0.152 0.55 0 0.278-0.313 0.465-0.671 0.602-1.051 0.088 0.203 0.207 0.394 0.372 0.565 0.154 0.162 0.392 0.137 0.55 0 0.976-0.846 0.937-2.181 1.139-3.357 0.084-0.49-0.664-0.7-0.749-0.206z"></path>
<path fill="#444444" d="M37.183 15.165c-0.121-0.487-0.872-0.28-0.75 0.206 0.129 0.516 0.261 1.032 0.332 1.559 0.028 0.211 0.155 0.39 0.39 0.39 0.19 0 0.417-0.179 0.388-0.39-0.079-0.597-0.214-1.18-0.36-1.765z"></path>
<path fill="#444444" d="M36.479 13.344c0.019-0.018 0.039-0.035 0.059-0.053 0.006-0.005 0.014-0.011 0.020-0.016-0.064 0.050-0.052 0.040 0.041-0.032 0.025-0.018 0.046-0.036 0.066-0.056 0.154-0.146 0.147-0.404 0-0.55-0.152-0.153-0.394-0.145-0.549 0-0.018 0.017-0.098 0.080-0.007 0.010-0.048 0.036-0.095 0.072-0.141 0.111-0.075 0.064-0.141 0.147-0.189 0.235-0.102 0.185-0.047 0.422 0.139 0.532 0.18 0.105 0.429 0.046 0.532-0.14 0.005-0.009 0.020-0.029 0.029-0.042z"></path>
<path fill="#444444" d="M40.607 13.515c-0.412-0.293-0.894-0.271-1.347-0.118-0.192-0.238-0.686-0.055-0.683 0.324-0.057 0.034-0.112 0.069-0.165 0.103-0.376 0.247-0.095 0.82 0.272 0.725 0.093 0.685 0.187 1.371 0.279 2.059-0.052-0.023-0.104-0.050-0.157-0.082-0.43-0.261-0.821 0.412-0.393 0.671 0.23 0.139 0.45 0.225 0.662 0.269 0.602 4.663 1.042 9.393 0.337 14.047-0.074 0.49 0.674 0.7 0.75 0.206 0.718-4.749 0.29-9.546-0.317-14.295 0.786-0.262 1.322-1.178 1.412-2.147 0.059-0.63-0.107-1.376-0.65-1.761zM40.48 15.276c-0.040 0.576-0.31 1.143-0.739 1.35-0.109-0.826-0.222-1.65-0.333-2.473 0.271-0.113 0.558-0.163 0.769 0.006 0.315 0.255 0.328 0.749 0.303 1.117z"></path>
<path fill="#444444" d="M45.923 13.821c-0.087-0.078-0.173-0.16-0.256-0.243 0.148-0.41 0.242-0.827 0.258-1.219 0.009-0.191-0.183-0.415-0.387-0.388-1.032 0.136-1.5 0.804-0.823 1.7 0.015 0.021 0.032 0.040 0.048 0.060-0.282 0.573-0.687 1.101-1.102 1.481-0.376 0.345-1.009 0.471-1.192-0.090 0.101 0.053 0.225 0.063 0.355-0.002 0.503-0.254 0.836-0.795 0.766-1.362-0.052-0.42-0.574-0.909-1.028-0.749-0.886 0.31-1.16 1.843-0.748 2.605 0.572 1.057 1.804 0.691 2.516 0.038 0.376-0.345 0.724-0.809 1-1.319 0.179 0.165 0.365 0.324 0.55 0.479 0.119 0.101 0.248 0.198 0.352 0.316 0.706 0.803-0.591 0.943-1.077 1.013-0.493 0.071-0.283 0.819 0.208 0.749 1.313-0.19 2.552-1.026 1.417-2.312-0.248-0.282-0.578-0.504-0.856-0.756zM42.462 14.429c0.020-0.095 0.043-0.189 0.067-0.277 0.159-0.579 0.412 0.004-0.067 0.277z"></path>
<path fill="#444444" d="M53.128 5.917c-0.043-0.496-0.819-0.5-0.777 0 0.24 2.862 0.532 5.721 0.691 8.59 0.028 0.498 0.807 0.501 0.778 0-0.161-2.868-0.452-5.727-0.693-8.59z"></path>
<path fill="#444444" d="M46.852 5.474c1.975 0.158 3.879-1.067 5.663-1.746 2.436-0.925 4.838-1.938 7.21-3.016 0.455-0.208 0.059-0.878-0.393-0.672-2.311 1.054-4.653 2.030-7.023 2.94-1.713 0.657-3.569 1.869-5.457 1.718-0.5-0.040-0.497 0.738-0 0.777z"></path>
<path fill="#444444" d="M56.728 12.879c-0.041 0.134-0.084 0.26-0.187 0.358-0.002 0.002-0.025 0.004-0.093-0.029-0.26-0.13-0.43-0.428-0.559-0.679-0.003-0.006-0.006-0.013-0.009-0.019 0.090-0.019 0.176-0.070 0.242-0.163 0.428-0.604 0.813-1.253 0.485-1.986-0.074-0.164-0.281-0.211-0.438-0.179-1.396 0.283-1.462 1.735-0.918 2.803 0.219 0.428 0.594 0.881 1.081 1.001 0.611 0.152 0.99-0.39 1.145-0.901 0.146-0.481-0.603-0.686-0.749-0.207zM55.946 11.13c-0.047 0.166-0.147 0.335-0.251 0.488 0.025-0.19 0.104-0.361 0.251-0.488z"></path>
<path fill="#444444" d="M62.54 12.122c-0.898-0.301-1.586-0.95-2.368-1.453-0.046-0.16-0.111-0.314-0.195-0.455-0.337-0.566-0.965-0.386-1.201 0.147-0.005 0.012-0.007 0.023-0.012 0.033-0.069 0.010-0.139 0.040-0.204 0.096-0.522 0.447-0.704 1.3-0.261 1.868 0.445 0.572 1.317 0.374 1.684-0.197 0.114-0.176 0.189-0.373 0.23-0.577 0.677 0.47 1.313 1.016 2.121 1.286 0.476 0.159 0.679-0.591 0.205-0.75zM59.441 11.511c-0.052 0.246-0.451 0.638-0.588 0.253-0.101-0.281 0.052-0.547 0.256-0.724 0.019-0.016 0.035-0.032 0.049-0.049 0.106 0.043 0.21 0.089 0.311 0.14 0.007 0.127-0.003 0.255-0.028 0.38z"></path>
<path fill="#444444" d="M66.274 9.141c-0.59 0.133-1.147 0.61-1.593 1.148-0.038-0.16-0.095-0.319-0.178-0.482-0.098-0.197-0.35-0.23-0.531-0.139-0.233 0.118-0.421 0.273-0.576 0.452-0.036-0.128-0.083-0.256-0.139-0.382-0.211-0.454-0.881-0.059-0.671 0.393 0.243 0.529 0.16 1.177 0.155 1.743-0.005 0.515 0.715 0.482 0.777 0 0.056-0.441 0.168-0.892 0.449-1.22 0.032 0.287-0.013 0.578-0.048 0.874-0.047 0.394 0.547 0.516 0.724 0.195 0.324-0.591 0.777-1.125 1.313-1.538 0.165-0.126 0.385-0.288 0.599-0.31 0.13-0.013-0.044 0.922-0.060 0.995-0.106 0.488 0.643 0.696 0.751 0.206 0.173-0.796 0.265-2.214-0.971-1.936z"></path>
</svg>
