<?xml version="1.0" encoding="utf-8"?>
<!-- Generated by IcoMoon.io -->
<!DOCTYPE svg PUBLIC "-//W3C//DTD SVG 1.1//EN" "http://www.w3.org/Graphics/SVG/1.1/DTD/svg11.dtd">
<svg version="1.1" xmlns="http://www.w3.org/2000/svg" xmlns:xlink="http://www.w3.org/1999/xlink" width="32" height="32" viewBox="0 0 32 32">
<path fill="#444444" d="M16 0c-2.77 0-5.506 0.724-7.908 2.093-0.384 0.219-0.518 0.707-0.299 1.091s0.707 0.518 1.091 0.299c2.162-1.232 4.622-1.883 7.116-1.883 7.94 0 14.4 6.46 14.4 14.4s-6.46 14.4-14.4 14.4c-2.494 0-4.954-0.651-7.116-1.883-0.384-0.22-0.873-0.086-1.091 0.299s-0.085 0.872 0.299 1.091c2.402 1.369 5.138 2.093 7.908 2.093 8.822 0 16-7.178 16-16s-7.178-16-16-16z"></path>
<path fill="#444444" d="M15.434 21.080c-0.313 0.313-0.313 0.818 0 1.131 0.156 0.156 0.361 0.234 0.566 0.234s0.41-0.078 0.566-0.234l5.646-5.646c0.074-0.074 0.132-0.162 0.173-0.26 0.081-0.196 0.081-0.416 0-0.611-0.041-0.098-0.099-0.186-0.173-0.26l-5.646-5.646c-0.313-0.313-0.818-0.313-1.131 0s-0.313 0.818 0 1.131l4.28 4.28h-18.914c-0.442 0-0.8 0.358-0.8 0.8s0.358 0.8 0.8 0.8h18.914l-4.28 4.28z"></path>
</svg>
