<?xml version="1.0" encoding="utf-8"?>
<!-- Generated by IcoMoon.io -->
<!DOCTYPE svg PUBLIC "-//W3C//DTD SVG 1.1//EN" "http://www.w3.org/Graphics/SVG/1.1/DTD/svg11.dtd">
<svg version="1.1" xmlns="http://www.w3.org/2000/svg" xmlns:xlink="http://www.w3.org/1999/xlink" width="30" height="32" viewBox="0 0 30 32">
<path fill="#444444" d="M14.933 17.069c-0.032 0-0.062 0-0.092 0-4.708-0.051-8.493-3.923-8.442-8.627 0.049-4.674 3.87-8.442 8.533-8.442 0.032 0 0.062 0 0.092 0v0c4.708 0.051 8.493 3.923 8.442 8.627-0.049 4.674-3.87 8.442-8.533 8.442zM14.933 3.793c-2.592 0-4.713 2.093-4.74 4.689-0.015 1.267 0.467 2.462 1.353 3.366 0.885 0.907 2.071 1.412 3.337 1.425 0.019 0 0.034 0 0.051 0 1.246 0 2.423-0.48 3.315-1.353 0.907-0.887 1.412-2.071 1.425-3.337 0.030-2.613-2.074-4.762-4.689-4.791-0.017 0-0.036 0-0.051 0z"></path>
<path fill="#444444" d="M27.821 32h-25.775c-1.131 0-2.046-0.828-2.046-1.854v-1.583c0-4.695 2.782-8.258 7.264-9.303 1.097-0.25 2.208 0.343 2.49 1.333 0.282 0.992-0.378 2.003-1.472 2.259-3.561 0.83-4.13 3.893-4.188 5.438h21.677c-0.055-1.545-0.627-4.608-4.19-5.438-1.092-0.256-1.751-1.267-1.472-2.259 0.282-0.992 1.399-1.585 2.492-1.335 4.48 1.043 7.266 4.608 7.266 9.303v1.583c0 1.028-0.915 1.856-2.046 1.856z"></path>
</svg>
