<?xml version="1.0" encoding="utf-8"?>
<!-- Generated by IcoMoon.io -->
<!DOCTYPE svg PUBLIC "-//W3C//DTD SVG 1.1//EN" "http://www.w3.org/Graphics/SVG/1.1/DTD/svg11.dtd">
<svg version="1.1" xmlns="http://www.w3.org/2000/svg" xmlns:xlink="http://www.w3.org/1999/xlink" width="32" height="32" viewBox="0 0 32 32">
<path fill="rgb(68, 68, 68)" d="M30.773 26.246h-29.546c-0.501 0-0.907-0.406-0.907-0.907s0.406-0.907 0.907-0.907h29.546c0.501 0 0.907 0.406 0.907 0.907s-0.406 0.907-0.908 0.907z"></path>
<path fill="rgb(68, 68, 68)" d="M30.773 16.838h-29.546c-0.501 0-0.907-0.406-0.907-0.907s0.406-0.907 0.907-0.907h29.546c0.501 0 0.907 0.406 0.907 0.907s-0.406 0.907-0.908 0.907z"></path>
<path fill="rgb(68, 68, 68)" d="M30.773 7.568h-29.546c-0.501 0-0.907-0.406-0.907-0.907s0.406-0.907 0.907-0.907h29.546c0.501 0 0.907 0.406 0.907 0.907s-0.406 0.907-0.908 0.907z"></path>
</svg>
