<?xml version="1.0" encoding="utf-8"?>
<!-- Generated by IcoMoon.io -->
<!DOCTYPE svg PUBLIC "-//W3C//DTD SVG 1.1//EN" "http://www.w3.org/Graphics/SVG/1.1/DTD/svg11.dtd">
<svg version="1.1" xmlns="http://www.w3.org/2000/svg" xmlns:xlink="http://www.w3.org/1999/xlink" width="32" height="32" viewBox="0 0 32 32">
<path fill="#444444" d="M16 32c-8.822 0-16-7.178-16-16 0-7.090 4.762-13.41 11.58-15.368 0.279-0.081 0.581-0.003 0.786 0.203s0.283 0.507 0.203 0.786c-0.378 1.316-0.57 2.654-0.57 3.978 0 7.94 6.46 14.4 14.4 14.4 1.324 0 2.662-0.192 3.978-0.57 0.28-0.082 0.581-0.002 0.786 0.203s0.283 0.506 0.203 0.786c-1.958 6.818-8.278 11.58-15.368 11.58zM10.686 2.626c-5.414 2.154-9.086 7.467-9.086 13.374 0 7.94 6.46 14.4 14.4 14.4 5.906 0 11.219-3.672 13.374-9.086-0.989 0.19-1.984 0.286-2.974 0.286-8.822 0-16-7.178-16-16 0-0.99 0.096-1.985 0.286-2.974z"></path>
</svg>
