<?xml version="1.0" encoding="utf-8"?>
<!-- Generated by IcoMoon.io -->
<!DOCTYPE svg PUBLIC "-//W3C//DTD SVG 1.1//EN" "http://www.w3.org/Graphics/SVG/1.1/DTD/svg11.dtd">
<svg version="1.1" xmlns="http://www.w3.org/2000/svg" xmlns:xlink="http://www.w3.org/1999/xlink" width="32" height="32" viewBox="0 0 32 32">
<path fill="#444444" d="M16 32c-8.823 0-16-7.178-16-16s7.177-16 16-16 16 7.178 16 16-7.177 16-16 16zM16 1.524c-7.982 0-14.476 6.494-14.476 14.476s6.494 14.476 14.476 14.476 14.476-6.494 14.476-14.476-6.494-14.476-14.476-14.476z"></path>
<path fill="#444444" d="M21.333 13.714c0.342 3.594-2.406 8.344-8.008 8.381-1.529 0.010-2.959-0.424-4.182-1.162 0.034 0 2.114 0.146 4.043-1.282-1.261-0.062-2.316-0.906-2.702-2.060 0.242 0.063 0.869 0.176 1.391 0.028-1.304-0.283-2.295-1.416-2.37-2.795 0.353 0.155 0.741 0.244 1.149 0.251-0.702-0.555-1.727-2.11-0.749-3.903 1.365 1.778 3.486 2.937 5.877 2.989-0.009-0.026-0.062-0.486-0.062-0.597 0-1.427 1.096-2.898 2.876-2.898 0.843 0 1.599 0.365 2.126 0.946 0.806-0.152 1.633-0.621 1.804-0.727-0.225 0.664-0.682 1.219-1.273 1.568 0.004 0.010 0.008 0.020 0.013 0.030 0.558-0.069 1.093-0.216 1.59-0.434-0.285 0.618-0.91 1.377-1.523 1.665z"></path>
</svg>
