<?xml version="1.0" encoding="utf-8"?>
<!-- Generated by IcoMoon.io -->
<!DOCTYPE svg PUBLIC "-//W3C//DTD SVG 1.1//EN" "http://www.w3.org/Graphics/SVG/1.1/DTD/svg11.dtd">
<svg version="1.1" xmlns="http://www.w3.org/2000/svg" xmlns:xlink="http://www.w3.org/1999/xlink" width="32" height="32" viewBox="0 0 32 32">
<path fill="#444444" d="M16 32c-8.822 0-16-7.178-16-16s7.178-16 16-16 16 7.178 16 16-7.178 16-16 16zM16 1.6c-7.94 0-14.4 6.46-14.4 14.4s6.46 14.4 14.4 14.4 14.4-6.46 14.4-14.4-6.46-14.4-14.4-14.4z"></path>
<path fill="#444444" d="M10.343 22.457c-0.205 0-0.41-0.078-0.566-0.234-0.313-0.313-0.313-0.818 0-1.131l11.314-11.314c0.313-0.313 0.818-0.313 1.131 0s0.313 0.818 0 1.131l-11.314 11.314c-0.157 0.157-0.361 0.234-0.566 0.234z"></path>
<path fill="#444444" d="M17.131 23.588c-0.205 0-0.41-0.078-0.566-0.234-0.313-0.313-0.313-0.818 0-1.131l5.657-5.657c0.313-0.313 0.818-0.313 1.131 0s0.313 0.818 0 1.131l-5.657 5.657c-0.156 0.157-0.361 0.234-0.566 0.234z"></path>
<path fill="#444444" d="M9.212 15.669c-0.205 0-0.41-0.078-0.566-0.234-0.313-0.313-0.313-0.818 0-1.131l5.657-5.657c0.313-0.313 0.818-0.313 1.131 0s0.313 0.818 0 1.131l-5.657 5.657c-0.157 0.156-0.361 0.234-0.566 0.234z"></path>
</svg>
