<?xml version="1.0" encoding="utf-8"?>
<!-- Generated by IcoMoon.io -->
<!DOCTYPE svg PUBLIC "-//W3C//DTD SVG 1.1//EN" "http://www.w3.org/Graphics/SVG/1.1/DTD/svg11.dtd">
<svg version="1.1" xmlns="http://www.w3.org/2000/svg" xmlns:xlink="http://www.w3.org/1999/xlink" width="32" height="32" viewBox="0 0 32 32">
<path fill="#444444" d="M27.2 9.6c2.647 0 4.8-2.153 4.8-4.8s-2.153-4.8-4.8-4.8-4.8 2.153-4.8 4.8 2.153 4.8 4.8 4.8zM27.2 1.6c1.765 0 3.2 1.435 3.2 3.2s-1.435 3.2-3.2 3.2-3.2-1.435-3.2-3.2 1.435-3.2 3.2-3.2z"></path>
<path fill="#444444" d="M27.766 13.034c-0.074-0.074-0.162-0.132-0.26-0.173-0.195-0.081-0.416-0.081-0.611 0-0.098 0.041-0.186 0.099-0.26 0.173l-4 4c-0.313 0.313-0.313 0.818 0 1.131s0.818 0.313 1.131 0l2.634-2.634v12.469c0 1.323-1.077 2.4-2.4 2.4h-20c-1.323 0-2.4-1.077-2.4-2.4v-20c0-1.323 1.077-2.4 2.4-2.4h14.4c0.442 0 0.8-0.358 0.8-0.8s-0.358-0.8-0.8-0.8h-14.4c-2.206 0-4 1.794-4 4v20c0 2.206 1.794 4 4 4h20c2.206 0 4-1.794 4-4v-12.469l2.634 2.634c0.156 0.156 0.361 0.234 0.566 0.234s0.41-0.078 0.566-0.234c0.313-0.313 0.313-0.818 0-1.131l-4-4z"></path>
</svg>
