<?xml version="1.0" encoding="utf-8"?>
<!-- Generator: Adobe Illustrator 16.0.0, SVG Export Plug-In . SVG Version: 6.00 Build 0)  -->
<!DOCTYPE svg PUBLIC "-//W3C//DTD SVG 1.1//EN" "http://www.w3.org/Graphics/SVG/1.1/DTD/svg11.dtd">
<svg version="1.1" id="Layer_1" xmlns="http://www.w3.org/2000/svg" xmlns:xlink="http://www.w3.org/1999/xlink" x="0px" y="0px"
	 width="33.924px" height="17.766px" viewBox="0 0 33.924 17.766" enable-background="new 0 0 33.924 17.766" xml:space="preserve">
<path d="M25.301,0.261l0.006,0.006l5.19,5.19l3.427,3.426l-3.427,3.428l-5.19,5.189l-0.006,0.006c-0.162,0.16-0.386,0.26-0.633,0.26
	c-0.232,0-0.444-0.09-0.604-0.234l-0.059-0.059l-2.099-2.099l-0.058-0.058c-0.146-0.16-0.235-0.372-0.235-0.605
	c0-0.241,0.096-0.459,0.249-0.621l0.029-0.028l2.755-2.755L0.9,11.291H0.899H0.897c-0.491-0.001-0.89-0.396-0.896-0.885
	C0.001,10.4,0,10.396,0,10.396c0-0.009,0.001-0.014,0.001-0.014v-1.5V7.387L0,7.374c0,0,0.001-0.009,0.001-0.013
	c0.007-0.49,0.405-0.886,0.896-0.887h0.001H0.9L24.647,6.46l-2.755-2.755l-0.029-0.029c-0.153-0.161-0.249-0.379-0.249-0.62
	c0-0.233,0.09-0.446,0.235-0.606l0.058-0.057l2.099-2.099l0.059-0.058C24.224,0.09,24.436,0,24.668,0
	C24.916,0,25.139,0.1,25.301,0.261z"/>
</svg>
