<?xml version="1.0" encoding="utf-8"?>
<!-- Generator: Adobe Illustrator 16.0.0, SVG Export Plug-In . SVG Version: 6.00 Build 0)  -->
<!DOCTYPE svg PUBLIC "-//W3C//DTD SVG 1.1//EN" "http://www.w3.org/Graphics/SVG/1.1/DTD/svg11.dtd">
<svg version="1.1" id="Layer_1" xmlns="http://www.w3.org/2000/svg" xmlns:xlink="http://www.w3.org/1999/xlink" x="0px" y="0px"
	 width="25.061px" height="19.502px" viewBox="0 0 25.061 19.502" enable-background="new 0 0 25.061 19.502" xml:space="preserve">
<path fill="#D7D5CC" d="M15.595,19.216l0.007-0.007l5.697-5.696l3.761-3.762l-3.761-3.762l-5.697-5.696l-0.007-0.007
	C15.417,0.108,15.172,0,14.901,0c-0.256,0-0.488,0.099-0.664,0.259l-0.063,0.064L11.87,2.626l-0.063,0.062
	c-0.16,0.176-0.259,0.408-0.259,0.664c0,0.266,0.104,0.504,0.274,0.683l0.031,0.03l3.024,3.024L0.989,7.089c0,0-0.002,0-0.003,0
	H0.984C0.445,7.09,0.007,7.524,0,8.062c0,0.004,0,0.01,0,0.015c0,0.006,0,0.01,0,0.016v1.659v1.659c0,0.005,0,0.01,0,0.015
	s0,0.009,0,0.015c0.008,0.537,0.444,0.972,0.983,0.973h0.002c0.001,0,0.003,0,0.003,0h13.89l-3.024,3.023l-0.031,0.031
	c-0.17,0.177-0.274,0.417-0.274,0.682c0,0.256,0.099,0.488,0.259,0.664l0.063,0.063l2.303,2.303l0.063,0.064
	c0.176,0.159,0.408,0.259,0.664,0.259C15.172,19.502,15.417,19.393,15.595,19.216z"/>
</svg>
