<?xml version="1.0" encoding="utf-8"?>
<!-- Generator: Adobe Illustrator 16.0.0, SVG Export Plug-In . SVG Version: 6.00 Build 0)  -->
<!DOCTYPE svg PUBLIC "-//W3C//DTD SVG 1.1//EN" "http://www.w3.org/Graphics/SVG/1.1/DTD/svg11.dtd">
<svg version="1.1" id="Layer_1" xmlns="http://www.w3.org/2000/svg" xmlns:xlink="http://www.w3.org/1999/xlink" x="0px" y="0px"
	 width="25.061px" height="19.502px" viewBox="0 0 25.061 19.502" enable-background="new 0 0 25.061 19.502" xml:space="preserve">
<path fill="#D7D5CC" d="M9.465,0.286L9.458,0.293L3.761,5.989L0,9.751l3.761,3.762l5.697,5.696l0.007,0.007
	c0.178,0.177,0.423,0.286,0.694,0.286c0.256,0,0.489-0.099,0.664-0.259l0.064-0.064l2.303-2.303l0.063-0.063
	c0.16-0.176,0.259-0.408,0.259-0.664c0-0.265-0.104-0.504-0.274-0.682l-0.032-0.031l-3.024-3.024l13.89,0.001c0,0,0.001,0,0.002,0
	h0.002c0.539-0.001,0.977-0.435,0.984-0.972c0-0.005,0-0.01,0-0.015c0-0.006,0-0.01,0-0.016V9.751V8.092c0-0.005,0-0.01,0-0.015
	s0-0.009,0-0.015c-0.008-0.537-0.445-0.971-0.984-0.972h-0.002c-0.001,0-0.002,0-0.002,0h-13.89l3.024-3.024l0.032-0.031
	c0.169-0.177,0.274-0.417,0.274-0.682c0-0.256-0.099-0.488-0.259-0.664L13.19,2.626l-2.303-2.303l-0.064-0.064
	C10.648,0.099,10.415,0,10.159,0C9.888,0,9.643,0.109,9.465,0.286z"/>
</svg>
