<?xml version="1.0" encoding="utf-8"?>
<!-- Generator: Adobe Illustrator 16.0.0, SVG Export Plug-In . SVG Version: 6.00 Build 0)  -->
<!DOCTYPE svg PUBLIC "-//W3C//DTD SVG 1.1//EN" "http://www.w3.org/Graphics/SVG/1.1/DTD/svg11.dtd">
<svg version="1.1" id="Layer_1" xmlns="http://www.w3.org/2000/svg" xmlns:xlink="http://www.w3.org/1999/xlink" x="0px" y="0px"
	 width="33.924px" height="17.766px" viewBox="0 0 33.924 17.766" enable-background="new 0 0 33.924 17.766" xml:space="preserve">
<path d="M8.623,17.505l-0.006-0.006l-5.19-5.19L0,8.883l3.427-3.428l5.19-5.189L8.623,0.26C8.785,0.1,9.008,0,9.255,0
	C9.488,0,9.7,0.09,9.86,0.234l0.059,0.059l2.099,2.099l0.058,0.058c0.146,0.16,0.235,0.372,0.235,0.605
	c0,0.241-0.095,0.459-0.249,0.621l-0.029,0.028L9.277,6.459l23.747,0.016h0.001h0.002c0.491,0.001,0.89,0.396,0.896,0.885
	c0,0.006,0.001,0.01,0.001,0.01c0,0.009-0.001,0.014-0.001,0.014v1.5v1.496l0.001,0.013c0,0-0.001,0.009-0.001,0.013
	c-0.007,0.49-0.405,0.886-0.896,0.887h-0.001h-0.002L9.277,11.306l2.755,2.755l0.029,0.029c0.154,0.161,0.249,0.379,0.249,0.62
	c0,0.233-0.09,0.446-0.235,0.606l-0.058,0.057l-2.099,2.099L9.86,17.529c-0.16,0.146-0.372,0.236-0.604,0.236
	C9.008,17.766,8.785,17.666,8.623,17.505z"/>
</svg>
