<?xml version="1.0" encoding="utf-8"?>
<!-- Generator: Adobe Illustrator 16.0.0, SVG Export Plug-In . SVG Version: 6.00 Build 0)  -->
<!DOCTYPE svg PUBLIC "-//W3C//DTD SVG 1.1//EN" "http://www.w3.org/Graphics/SVG/1.1/DTD/svg11.dtd">
<svg version="1.1" id="Layer_1" xmlns="http://www.w3.org/2000/svg" xmlns:xlink="http://www.w3.org/1999/xlink" x="0px" y="0px"
	 width="74.713px" height="74.714px" viewBox="0 0 74.713 74.714" enable-background="new 0 0 74.713 74.714" xml:space="preserve">
<path d="M37.357,0C16.726,0,0,16.726,0,37.357c0,20.631,16.726,37.356,37.357,37.356c20.632,0,37.356-16.726,37.356-37.356
	C74.713,16.726,57.989,0,37.357,0z M59.37,59.37c-5.88,5.88-13.697,9.118-22.013,9.118c-8.315,0-16.133-3.238-22.012-9.118
	c-5.88-5.88-9.118-13.697-9.118-22.013s3.238-16.133,9.118-22.013c5.879-5.88,13.697-9.118,22.012-9.118
	c8.315,0,16.133,3.238,22.013,9.118s9.117,13.697,9.117,22.013S65.25,53.49,59.37,59.37z M49.061,44.08l-10.393-5.658V19.486
	c0-0.832-0.674-1.506-1.506-1.506h-3.169c-0.832,0-1.506,0.674-1.506,1.506v21.715c0,0.016,0.001,0.032,0.002,0.048
	c0.001,0.032,0.001,0.064,0.005,0.097c0.003,0.037,0.009,0.074,0.016,0.11c0.002,0.011,0.005,0.032,0.005,0.032
	c0.008,0.041,0.019,0.082,0.03,0.122c0.002,0.006,0.005,0.019,0.005,0.019c0.012,0.039,0.025,0.078,0.04,0.116l0.008,0.021
	c0.014,0.035,0.03,0.069,0.047,0.103C32.65,41.88,32.66,41.9,32.66,41.9c0.015,0.029,0.033,0.058,0.05,0.086
	c0.008,0.014,0.017,0.028,0.025,0.042c0.016,0.024,0.033,0.047,0.05,0.069c0.012,0.018,0.024,0.034,0.037,0.05
	c0.017,0.021,0.035,0.04,0.052,0.06c0.015,0.018,0.03,0.034,0.045,0.05c0.021,0.021,0.042,0.04,0.064,0.06
	c0.015,0.014,0.028,0.026,0.042,0.039c0.033,0.028,0.068,0.054,0.104,0.079l0.013,0.009c0.046,0.031,0.094,0.061,0.145,0.087
	l12.818,6.979c0.731,0.397,1.646,0.128,2.043-0.603l1.516-2.784C50.061,45.393,49.792,44.479,49.061,44.08z"/>
</svg>
