<?xml version="1.0" encoding="utf-8"?>
<!-- Generator: Adobe Illustrator 16.0.0, SVG Export Plug-In . SVG Version: 6.00 Build 0)  -->
<!DOCTYPE svg PUBLIC "-//W3C//DTD SVG 1.1//EN" "http://www.w3.org/Graphics/SVG/1.1/DTD/svg11.dtd">
<svg version="1.1" id="Layer_1" xmlns="http://www.w3.org/2000/svg" xmlns:xlink="http://www.w3.org/1999/xlink" x="0px" y="0px"
	 width="16.906px" height="16.905px" viewBox="0 0 16.906 16.905" enable-background="new 0 0 16.906 16.905" xml:space="preserve">
<path d="M13.608,0.236L13.608,0.236l-3.452,3.452h-0.001L8.453,5.392L6.75,3.688l0,0L3.299,0.237L3.298,0.236L3.296,0.235
	C2.984-0.076,2.479-0.078,2.164,0.229C2.161,0.231,2.158,0.233,2.155,0.236S2.149,0.242,2.147,0.245L1.196,1.196l-0.951,0.95
	C0.243,2.149,0.239,2.151,0.236,2.155C0.233,2.157,0.231,2.161,0.229,2.164c-0.307,0.315-0.305,0.819,0.007,1.133l0.001,0.001
	l0.001,0.001L3.689,6.75l0,0l1.702,1.702l-1.702,1.703l0,0l-3.452,3.451l-0.001,0.002H0.235c-0.312,0.313-0.314,0.817-0.007,1.133
	c0.002,0.004,0.005,0.007,0.008,0.01c0.003,0.002,0.006,0.005,0.009,0.008l0.951,0.951l0.951,0.95
	c0.003,0.003,0.005,0.006,0.008,0.009s0.006,0.006,0.009,0.008c0.316,0.307,0.82,0.305,1.133-0.007l0.001-0.001l0.001-0.001
	l3.452-3.452l0,0l1.702-1.702l1.702,1.702h0.001l3.451,3.452v0.001l0.002,0.001c0.312,0.312,0.816,0.313,1.133,0.007
	c0.003-0.002,0.006-0.005,0.009-0.008s0.005-0.006,0.009-0.009l0.95-0.95l0.95-0.951c0.004-0.003,0.006-0.006,0.01-0.008
	c0.002-0.003,0.005-0.006,0.008-0.01c0.307-0.315,0.305-0.819-0.008-1.133l0,0l-0.002-0.002l-3.451-3.451l0,0l-1.702-1.703
	l1.702-1.702l0,0l3.451-3.451l0.001-0.001l0.001-0.001c0.312-0.313,0.314-0.817,0.008-1.133c-0.003-0.003-0.006-0.007-0.008-0.009
	c-0.004-0.004-0.006-0.006-0.01-0.009l-0.95-0.95l-0.95-0.951c-0.004-0.003-0.006-0.006-0.009-0.009s-0.006-0.005-0.009-0.008
	C14.425-0.078,13.921-0.076,13.608,0.236L13.608,0.236z"/>
</svg>
