<?xml version="1.0" encoding="utf-8"?>
<!-- Generator: Adobe Illustrator 16.0.0, SVG Export Plug-In . SVG Version: 6.00 Build 0)  -->
<!DOCTYPE svg PUBLIC "-//W3C//DTD SVG 1.1//EN" "http://www.w3.org/Graphics/SVG/1.1/DTD/svg11.dtd">
<svg version="1.1" id="Layer_1" xmlns="http://www.w3.org/2000/svg" xmlns:xlink="http://www.w3.org/1999/xlink" x="0px" y="0px"
	 width="155.794px" height="31.079px" viewBox="0 0 155.794 31.079" enable-background="new 0 0 155.794 31.079"
	 xml:space="preserve">
<g>
	<path fill="#78B29A" d="M0,10.029h3.127V6.845c0-3.292,1.118-5.39,3.355-6.292C7.41,0.185,8.415,0,9.495,0h4.843v5.32h-2.879
		c-0.813,0-1.344,0.171-1.592,0.515S9.495,6.769,9.495,7.608v2.421h4.919l-0.591,5.358H9.495v15.425H3.127V15.387H0V10.029z"/>
	<path fill="#78B29A" d="M16.245,24.807c0-2.518,0.886-4.189,2.657-5.015c0.711-0.483,2.542-0.725,5.491-0.725h3.012v-0.702
		c0-1.455-0.209-2.283-0.629-2.485c-0.483-0.341-1.29-0.512-2.421-0.512h-6.007l0.588-5.339h6.444c0.89,0,1.703,0.048,2.44,0.143
		s1.379,0.216,1.926,0.362s1.033,0.353,1.459,0.62s0.781,0.531,1.067,0.791c0.286,0.261,0.531,0.591,0.734,0.992
		s0.359,0.766,0.467,1.096c0.108,0.331,0.191,0.747,0.248,1.249c0.058,0.502,0.092,0.941,0.104,1.315
		c0.013,0.375,0.02,0.842,0.02,1.401v12.813h-5.301c-0.025-0.039-0.045-0.102-0.057-0.191c-0.013-0.025-0.026-0.054-0.038-0.086
		c-0.014-0.031-0.022-0.054-0.029-0.066c-0.006-0.013-0.009-0.025-0.009-0.038c-0.064-0.152-0.128-0.458-0.191-0.915
		c-1.97,1.018-3.883,1.525-5.739,1.525H21.93c-1.906,0-3.423-0.737-4.548-2.212c-0.758-1.169-1.137-2.46-1.137-3.87V24.807z
		 M24.425,26.521c0.737,0,1.723-0.285,2.955-0.857v-2.346h-2.136c-1.258,0-2.015,0.127-2.269,0.382
		c-0.216,0.216-0.324,0.585-0.324,1.106C22.651,25.95,23.242,26.521,24.425,26.521z"/>
	<path fill="#78B29A" d="M36.437,19.677c0-2.975,0.388-5.002,1.163-6.083c1.525-2.58,4.258-3.871,8.198-3.871
		c2.174,0,4.373,0.261,6.598,0.782v5.263c-2.44-0.47-4.393-0.706-5.854-0.706c-1.513,0-2.53,0.26-3.051,0.78
		c-0.433,0.267-0.648,1.358-0.648,3.274v2.646c0,1.751,0.19,2.778,0.572,3.083c0.482,0.596,1.487,0.895,3.013,0.895h0.477
		c1.004,0,2.821-0.247,5.453-0.742h0.038v5.18c0,0.128-1.145,0.364-3.433,0.709c-0.94,0.129-1.995,0.192-3.165,0.192
		c-4.398,0-7.283-1.602-8.656-4.806c-0.471-0.979-0.705-2.707-0.705-5.186V19.677z"/>
	<path fill="#78B29A" d="M55.198,17.618c0-3.673,1.522-6.107,4.567-7.302c1.366-0.445,2.824-0.667,4.375-0.667
		c4.296,0,7.093,1.418,8.389,4.253c0.496,1.091,0.744,2.668,0.744,4.734v3.733H61.604v0.608c0,1.363,0.426,2.192,1.277,2.486
		c0.75,0.185,1.519,0.276,2.308,0.276h0.515c2.313,0,4.652-0.239,7.017-0.719h0.038v5.203c0,0.076-1.094,0.285-3.279,0.627
		c-1.373,0.151-2.943,0.228-4.71,0.228c-4.562,0-7.506-1.544-8.832-4.634c-0.493-1.207-0.739-2.484-0.739-3.832V17.618z
		 M66.829,18.189v-0.332c0-1.4-0.312-2.229-0.935-2.486c-0.483-0.307-1.056-0.461-1.716-0.461c-0.89,0-1.542,0.19-1.954,0.571
		c-0.414,0.381-0.62,0.97-0.62,1.768v0.939H66.829z"/>
	<path fill="#78B29A" d="M75.944,1.563l6.388-1.125v10.029c1.563-0.521,3.102-0.782,4.614-0.782c3.686,0,5.981,0.966,6.883,2.898
		c0.48,0.789,0.723,2.803,0.723,6.044v2.079c0,3.394-0.242,5.484-0.723,6.272c-0.152,0.521-0.611,1.163-1.373,1.926
		c-1.564,1.449-4.232,2.174-8.008,2.174c-2.669,0-5.504-0.286-8.504-0.858V1.563z M84.236,25.816h0.496
		c1.855,0,2.937-0.598,3.242-1.792c0.113-0.343,0.172-0.763,0.172-1.259v-5.3c0-1.296-0.605-2.078-1.812-2.345h-0.973
		c-1.067,0-2.072,0.286-3.013,0.858v9.724L84.236,25.816z"/>
	<path fill="#78B29A" d="M96.343,18.075c0-4.067,1.754-6.667,5.258-7.798c1.346-0.394,2.596-0.591,3.752-0.591h0.609
		c4.381,0,7.207,1.666,8.477,4.996c0.342,1.042,0.514,2.307,0.514,3.794v3.833c0,3.991-1.438,6.615-4.312,7.874
		c-1.451,0.598-3.145,0.896-5.078,0.896c-4.232,0-7.008-1.392-8.324-4.176c-0.596-1.132-0.895-2.548-0.895-4.252V18.075z
		 M105.562,25.74h0.154c1.518,0,2.447-0.652,2.793-1.957c0-0.189,0.006-0.379,0.018-0.57c0.014-0.189,0.02-0.437,0.02-0.74v-4.237
		c0-1.659-0.471-2.622-1.416-2.888c-0.279-0.152-0.701-0.228-1.262-0.228h-0.498c-1.146,0-1.957,0.462-2.43,1.387
		c-0.127,0.368-0.191,0.811-0.191,1.33v5.206C102.75,24.842,103.687,25.74,105.562,25.74z"/>
	<path fill="#78B29A" d="M116.058,18.075c0-4.067,1.754-6.667,5.258-7.798c1.346-0.394,2.596-0.591,3.752-0.591h0.609
		c4.381,0,7.207,1.666,8.477,4.996c0.342,1.042,0.514,2.307,0.514,3.794v3.833c0,3.991-1.438,6.615-4.312,7.874
		c-1.451,0.598-3.145,0.896-5.078,0.896c-4.232,0-7.008-1.392-8.324-4.176c-0.596-1.132-0.895-2.548-0.895-4.252V18.075z
		 M125.277,25.74h0.154c1.518,0,2.447-0.652,2.793-1.957c0-0.189,0.006-0.379,0.018-0.57c0.014-0.189,0.02-0.437,0.02-0.74v-4.237
		c0-1.659-0.471-2.622-1.416-2.888c-0.279-0.152-0.701-0.228-1.262-0.228h-0.498c-1.146,0-1.957,0.462-2.43,1.387
		c-0.127,0.368-0.191,0.811-0.191,1.33v5.206C122.464,24.842,123.402,25.74,125.277,25.74z"/>
	<path fill="#78B29A" d="M136.632,1.563l6.406-1.125v18.743h0.039l5.814-9.19h6.902l-6.367,10.086l6.367,10.735h-6.902l-5.814-9.687
		h-0.039v9.687h-6.406V1.563z"/>
</g>
</svg>
