<?xml version="1.0" encoding="utf-8"?>
<!-- Generator: Adobe Illustrator 16.0.0, SVG Export Plug-In . SVG Version: 6.00 Build 0)  -->
<!DOCTYPE svg PUBLIC "-//W3C//DTD SVG 1.1//EN" "http://www.w3.org/Graphics/SVG/1.1/DTD/svg11.dtd">
<svg version="1.1" id="Layer_1" xmlns="http://www.w3.org/2000/svg" xmlns:xlink="http://www.w3.org/1999/xlink" x="0px" y="0px"
	 width="229px" height="59.563px" viewBox="0 0 229 59.563" enable-background="new 0 0 229 59.563" xml:space="preserve">
<path fill="#FFFFFF" d="M60.488,36.942c-0.216,0.217-0.324,0.586-0.324,1.106c0,1.144,0.591,1.716,1.773,1.716
	c0.737,0,1.723-0.286,2.955-0.857v-2.346h-2.136C61.499,36.561,60.742,36.688,60.488,36.942z M226,0H3C1.35,0,0,1.35,0,3v53.563
	c0,1.65,1.35,3,3,3h223c1.65,0,3-1.35,3-3V3C229,1.35,227.65,0,226,0z M51.335,28.629h-4.328v15.425h-6.368V28.629h-3.127v-5.358
	h3.127v-3.184c0-3.292,1.118-5.39,3.355-6.292c0.928-0.369,1.933-0.553,3.013-0.553h4.843v5.32h-2.879
	c-0.813,0-1.344,0.171-1.592,0.515s-0.372,0.935-0.372,1.773v2.421h4.919L51.335,28.629z M71.359,44.054h-5.301
	c-0.025-0.038-0.045-0.102-0.057-0.19c-0.013-0.025-0.026-0.055-0.038-0.086c-0.014-0.031-0.022-0.055-0.029-0.066
	c-0.006-0.014-0.009-0.025-0.009-0.039c-0.064-0.152-0.128-0.457-0.191-0.914c-1.97,1.017-3.883,1.525-5.739,1.525h-0.553
	c-1.906,0-3.423-0.738-4.548-2.213c-0.758-1.169-1.137-2.459-1.137-3.87v-0.152c0-2.517,0.886-4.188,2.657-5.015
	c0.711-0.482,2.542-0.725,5.491-0.725h3.012v-0.701c0-1.455-0.209-2.283-0.629-2.486c-0.483-0.341-1.29-0.512-2.421-0.512h-6.007
	l0.588-5.339h6.444c0.89,0,1.703,0.048,2.44,0.143s1.379,0.216,1.926,0.362s1.033,0.353,1.459,0.62s0.781,0.531,1.067,0.791
	c0.286,0.261,0.531,0.591,0.734,0.992s0.359,0.766,0.467,1.096c0.108,0.331,0.191,0.747,0.248,1.249
	c0.058,0.502,0.092,0.941,0.104,1.315c0.013,0.375,0.02,0.842,0.02,1.401V44.054z M89.908,29.011
	c-2.44-0.47-4.393-0.706-5.854-0.706c-1.513,0-2.53,0.26-3.051,0.78c-0.433,0.267-0.648,1.358-0.648,3.274v2.645
	c0,1.752,0.19,2.779,0.572,3.084c0.482,0.596,1.487,0.895,3.013,0.895h0.477c1.004,0,2.821-0.248,5.453-0.742h0.038v5.179
	c0,0.128-1.145,0.364-3.433,0.71c-0.94,0.128-1.995,0.191-3.165,0.191c-4.398,0-7.283-1.602-8.656-4.805
	c-0.471-0.979-0.705-2.707-0.705-5.186v-1.411c0-2.975,0.388-5.002,1.163-6.083c1.525-2.58,4.258-3.871,8.198-3.871
	c2.174,0,4.373,0.261,6.598,0.782V29.011z M110.786,35.612H99.117v0.607c0,1.363,0.426,2.192,1.277,2.486
	c0.75,0.186,1.519,0.277,2.308,0.277h0.515c2.313,0,4.652-0.24,7.017-0.719h0.038v5.203c0,0.075-1.094,0.284-3.279,0.626
	c-1.373,0.151-2.943,0.228-4.71,0.228c-4.562,0-7.506-1.544-8.832-4.633c-0.493-1.207-0.739-2.484-0.739-3.832V30.86
	c0-3.673,1.522-6.107,4.567-7.302c1.366-0.445,2.824-0.667,4.375-0.667c4.296,0,7.093,1.418,8.389,4.253
	c0.496,1.091,0.744,2.668,0.744,4.734V35.612z M132.064,33.949c0,3.394-0.241,5.485-0.723,6.272
	c-0.152,0.521-0.61,1.164-1.373,1.926c-1.563,1.449-4.232,2.174-8.008,2.174c-2.669,0-5.504-0.285-8.504-0.857V14.806l6.388-1.125
	V23.71c1.563-0.521,3.102-0.782,4.614-0.782c3.686,0,5.98,0.966,6.883,2.898c0.481,0.789,0.723,2.803,0.723,6.044V33.949z
	 M152.465,35.55c0,3.991-1.438,6.616-4.313,7.874c-1.451,0.598-3.144,0.896-5.077,0.896c-4.232,0-7.008-1.392-8.325-4.176
	c-0.596-1.131-0.894-2.548-0.894-4.252v-4.576c0-4.067,1.753-6.666,5.257-7.797c1.347-0.394,2.597-0.591,3.753-0.591h0.609
	c4.381,0,7.206,1.666,8.476,4.996c0.343,1.042,0.515,2.307,0.515,3.794V35.55z M172.18,35.55c0,3.991-1.438,6.616-4.313,7.874
	c-1.451,0.598-3.144,0.896-5.077,0.896c-4.232,0-7.008-1.392-8.325-4.176c-0.596-1.131-0.894-2.548-0.894-4.252v-4.576
	c0-4.067,1.753-6.666,5.257-7.797c1.347-0.394,2.597-0.591,3.753-0.591h0.609c4.381,0,7.206,1.666,8.476,4.996
	c0.343,1.042,0.515,2.307,0.515,3.794V35.55z M193.307,44.054h-6.902l-5.815-9.687h-0.038v9.687h-6.406V14.806l6.406-1.125v18.743
	h0.038l5.815-9.19h6.902l-6.368,10.086L193.307,44.054z M164.358,28.59c-0.28-0.152-0.701-0.228-1.263-0.228h-0.497
	c-1.147,0-1.958,0.462-2.43,1.387c-0.127,0.368-0.191,0.811-0.191,1.33v5.206c0,1.799,0.938,2.698,2.812,2.698h0.153
	c1.518,0,2.448-0.652,2.793-1.957c0-0.19,0.006-0.38,0.019-0.57c0.013-0.189,0.02-0.438,0.02-0.741v-4.236
	C165.774,29.819,165.302,28.856,164.358,28.59z M144.643,28.59c-0.28-0.152-0.701-0.228-1.263-0.228h-0.497
	c-1.147,0-1.958,0.462-2.43,1.387c-0.127,0.368-0.191,0.811-0.191,1.33v5.206c0,1.799,0.938,2.698,2.812,2.698h0.153
	c1.518,0,2.448-0.652,2.793-1.957c0-0.19,0.006-0.38,0.019-0.57c0.013-0.189,0.02-0.438,0.02-0.741v-4.236
	C146.059,29.819,145.587,28.856,144.643,28.59z M123.846,28.362h-0.973c-1.067,0-2.072,0.286-3.013,0.858v9.724l1.888,0.115h0.496
	c1.855,0,2.937-0.598,3.241-1.793c0.114-0.343,0.172-0.762,0.172-1.258v-5.301C125.658,29.411,125.053,28.629,123.846,28.362z
	 M103.407,28.613c-0.483-0.307-1.056-0.461-1.716-0.461c-0.89,0-1.542,0.19-1.954,0.571c-0.414,0.381-0.62,0.97-0.62,1.768v0.939
	h5.225V31.1C104.341,29.7,104.03,28.871,103.407,28.613z"/>
<g>
</g>
<g>
</g>
<g>
</g>
<g>
</g>
<g>
</g>
<g>
</g>
</svg>
