<?xml version="1.0" encoding="utf-8"?>
<!-- Generator: Adobe Illustrator 16.0.0, SVG Export Plug-In . SVG Version: 6.00 Build 0)  -->
<!DOCTYPE svg PUBLIC "-//W3C//DTD SVG 1.1//EN" "http://www.w3.org/Graphics/SVG/1.1/DTD/svg11.dtd">
<svg version="1.1" id="Layer_1" xmlns="http://www.w3.org/2000/svg" xmlns:xlink="http://www.w3.org/1999/xlink" x="0px" y="0px"
	 width="13.662px" height="13.662px" viewBox="0 0 13.662 13.662" enable-background="new 0 0 13.662 13.662" xml:space="preserve">
<path d="M13.662,6.831V5.937V5.928c0-0.002,0-0.005,0-0.005c-0.004-0.296-0.242-0.532-0.537-0.532l0,0h-0.002H9.875l0,0H8.272V3.788
	l0,0V0.539V0.538V0.537c0-0.294-0.237-0.532-0.53-0.536c0,0-0.005-0.001-0.008-0.001L7.726,0.001H6.831H5.936L5.928,0L5.92,0.001
	c-0.293,0.004-0.53,0.242-0.53,0.536v0.001v0.001v3.249l0,0v1.603H3.788l0,0H0.539H0.538H0.537C0.243,5.391,0.005,5.627,0,5.92
	c0,0,0,0.006,0,0.008l0,0.009v0.895v0.895c0,0.003,0,0.006,0,0.008c0,0,0,0.006,0,0.009c0.004,0.293,0.243,0.529,0.537,0.529h0.001
	h0.001h3.249l0,0H5.39v1.603l0,0v3.249v0.001v0.001c0,0.294,0.237,0.532,0.53,0.536l0.005,0.001c0.005,0,0.008-0.001,0.008-0.001
	h0.897h0.895l0.008,0.001c0.003,0,0.005-0.001,0.005-0.001c0.295-0.004,0.532-0.242,0.533-0.536v-0.001v-0.001V9.874l0,0V8.271
	h1.603l0,0h3.248h0.002l0,0c0.295,0,0.533-0.236,0.537-0.529c0-0.003,0-0.006,0-0.006c0-0.005,0-0.008,0-0.011V6.831z"/>
</svg>
