<?xml version="1.0" encoding="utf-8"?>
<!-- Generator: Adobe Illustrator 16.0.0, SVG Export Plug-In . SVG Version: 6.00 Build 0)  -->
<!DOCTYPE svg PUBLIC "-//W3C//DTD SVG 1.1//EN" "http://www.w3.org/Graphics/SVG/1.1/DTD/svg11.dtd">
<svg version="1.1" id="Layer_1" xmlns="http://www.w3.org/2000/svg" xmlns:xlink="http://www.w3.org/1999/xlink" x="0px" y="0px"
	 width="54.279px" height="73.56px" viewBox="0 0 54.279 73.56" enable-background="new 0 0 54.279 73.56" xml:space="preserve">
<path d="M38.939,0H2.044C0.92,0,0,0.92,0,2.044v69.472c0,1.124,0.92,2.044,2.044,2.044h50.19c1.125,0,2.045-0.92,2.045-2.044V15.34
	h-15.34V0z M5.691,15.821c0-0.564,0.457-1.021,1.021-1.021h23.685c0.564,0,1.021,0.457,1.021,1.021s-0.457,1.022-1.021,1.022H6.713
	C6.148,16.844,5.691,16.386,5.691,15.821z M47.136,65.889c-1.912,0.46-3.875,0.752-5.752,1.354
	c-0.975,0.314-1.936,0.666-2.885,1.052c-0.707,0.288-1.373,0.671-2.129,0.803c-0.439,0.077-0.666-0.449-0.3-0.709
	c1.524-1.08,3.177-1.953,4.813-2.847c0.223-0.121,0.445-0.238,0.67-0.354c-0.181-0.207-0.35-0.384-0.539-0.188
	c-0.3,0.312-0.566,0.725-0.943,0.948c-0.352,0.208-0.734,0.27-1.102,0.058c-0.57-0.327-1.166,0.722-1.666,0.988
	c-0.311,0.166-0.764,0.108-1.057-0.094c-0.266,0.569-0.623,1.083-1.183,1.409c-0.144,0.084-0.354,0.068-0.47-0.061
	c-0.655-0.732-0.183-2.588,0.926-2.661c0.143-0.01,0.274,0.024,0.398,0.08c0.104-0.332,0.191-0.661,0.283-0.954
	c0.401-1.28,0.65-2.593,0.906-3.908c0.096-0.49,0.844-0.282,0.748,0.207c-0.314,1.619-0.658,3.212-1.186,4.778
	c-0.031,0.093-0.062,0.187-0.096,0.281c0.265,0.147,0.53,0.191,0.85-0.155c0.316-0.342,0.797-0.914,1.328-0.837
	c0.315,0.046,0.671,0.445,0.977,0.157c0.222-0.207,0.406-0.443,0.616-0.66c0.265-0.274,0.692-0.667,1.12-0.517
	c0.494,0.173,0.635,0.589,0.953,0.682c0.705-0.364,1.404-0.738,2.068-1.173c0.225-0.17,0.453-0.335,0.693-0.484
	c0.436-0.273,0.775,0.375,0.391,0.67c-0.152,0.117-0.31,0.229-0.468,0.336c-0.786,0.615-1.72,1.504-2.685,1.519
	c-0.383,0.196-0.766,0.396-1.143,0.604c-0.387,0.213-0.772,0.424-1.158,0.636c0.472-0.17,0.947-0.328,1.428-0.465
	c1.773-0.505,3.592-0.812,5.383-1.242C47.416,65.023,47.623,65.771,47.136,65.889z M47.271,56.292H7.007
	c-0.395,0-0.715-0.32-0.715-0.715c0-0.396,0.32-0.716,0.715-0.716h40.264c0.395,0,0.715,0.32,0.715,0.716
	C47.986,55.972,47.666,56.292,47.271,56.292z M47.271,49.88H7.007c-0.395,0-0.715-0.319-0.715-0.715s0.32-0.716,0.715-0.716h40.264
	c0.395,0,0.715,0.32,0.715,0.716S47.666,49.88,47.271,49.88z M47.271,43.469H7.007c-0.395,0-0.715-0.32-0.715-0.716
	s0.32-0.716,0.715-0.716h40.264c0.395,0,0.715,0.32,0.715,0.716S47.666,43.469,47.271,43.469z M47.271,37.057H7.007
	c-0.395,0-0.715-0.32-0.715-0.716c0-0.395,0.32-0.715,0.715-0.715h40.264c0.395,0,0.715,0.32,0.715,0.715
	C47.986,36.736,47.666,37.057,47.271,37.057z M47.271,29.214c0.395,0,0.715,0.32,0.715,0.715c0,0.396-0.32,0.716-0.715,0.716H7.007
	c-0.395,0-0.715-0.32-0.715-0.716c0-0.395,0.32-0.715,0.715-0.715H47.271z M40.917,0v13.361h13.361L40.917,0z"/>
</svg>
