<?xml version="1.0" encoding="utf-8"?>
<!-- Generator: Adobe Illustrator 16.0.0, SVG Export Plug-In . SVG Version: 6.00 Build 0)  -->
<!DOCTYPE svg PUBLIC "-//W3C//DTD SVG 1.1//EN" "http://www.w3.org/Graphics/SVG/1.1/DTD/svg11.dtd">
<svg version="1.1" id="Layer_1" xmlns="http://www.w3.org/2000/svg" xmlns:xlink="http://www.w3.org/1999/xlink" x="0px" y="0px"
	 width="73.896px" height="73.896px" viewBox="0 0 73.896 73.896" enable-background="new 0 0 73.896 73.896" xml:space="preserve">
<g>
	<path d="M36.948,0C16.542,0,0,16.543,0,36.949c0,20.405,16.542,36.947,36.948,36.947c20.406,0,36.948-16.542,36.948-36.947
		C73.896,16.543,57.354,0,36.948,0z M39.747,61.527H32.39V54.17h7.357V61.527z M39.261,48.062c0,0.902,0.069,1.805,0.278,2.707
		h-6.803c-0.277-0.833-0.416-1.735-0.416-2.984c0-10.62,8.329-11.591,8.329-23.669c0-3.471-1.388-4.789-3.817-4.789
		c-2.429,0-3.817,1.318-3.817,4.789v5.275h-7.219v-4.789c0-7.774,3.818-12.217,11.245-12.217c7.427,0,11.244,4.442,11.244,12.217
		C48.284,37.234,39.261,39.178,39.261,48.062z"/>
</g>
</svg>
