<?xml version="1.0" encoding="utf-8"?>
<!-- Generator: Adobe Illustrator 16.0.0, SVG Export Plug-In . SVG Version: 6.00 Build 0)  -->
<!DOCTYPE svg PUBLIC "-//W3C//DTD SVG 1.1//EN" "http://www.w3.org/Graphics/SVG/1.1/DTD/svg11.dtd">
<svg version="1.1" id="Layer_1" xmlns="http://www.w3.org/2000/svg" xmlns:xlink="http://www.w3.org/1999/xlink" x="0px" y="0px"
	 width="22.549px" height="20.629px" viewBox="0 0 22.549 20.629" enable-background="new 0 0 22.549 20.629" xml:space="preserve">
<path fill="#B8B5A4" d="M12.235,0C8.066,0,4.468,2.486,2.843,6.054l0.949,0.838l0.904,0.798c1.088-3.116,4.056-5.357,7.539-5.357
	c4.401,0,7.982,3.58,7.982,7.982c0,4.401-3.581,7.982-7.982,7.982c-4.035,0-7.38-3.01-7.909-6.902l0.681,0.602l0.011,0.009
	c0.056,0.047,0.127,0.075,0.204,0.075c0.007,0,0.013,0,0.02,0c0.082-0.006,0.155-0.042,0.208-0.097l0.019-0.021l0.692-0.784
	l0.02-0.021c0.048-0.06,0.075-0.136,0.069-0.218c-0.005-0.087-0.045-0.163-0.105-0.217L6.141,10.72L4.34,9.13L4.202,9.008
	l-1.28-1.13L2.018,8.902L1.792,9.158l-1.711,1.938l-0.002,0.002C0.025,11.159-0.005,11.24,0,11.327
	c0.005,0.082,0.042,0.154,0.096,0.207l0.022,0.02l0.784,0.692l0.021,0.019c0.055,0.044,0.124,0.07,0.198,0.07
	c0.007,0,0.013,0,0.02-0.001c0.085-0.005,0.159-0.043,0.213-0.101l0.009-0.011l0.107-0.121l0.52-0.588v-0.001
	c0.596,5.125,4.962,9.116,10.244,9.116c5.688,0,10.314-4.627,10.314-10.314S17.922,0,12.235,0z"/>
</svg>
