<?xml version="1.0" encoding="utf-8"?>
<!-- Generator: Adobe Illustrator 16.0.0, SVG Export Plug-In . SVG Version: 6.00 Build 0)  -->
<!DOCTYPE svg PUBLIC "-//W3C//DTD SVG 1.1//EN" "http://www.w3.org/Graphics/SVG/1.1/DTD/svg11.dtd">
<svg version="1.1" id="Layer_1" xmlns="http://www.w3.org/2000/svg" xmlns:xlink="http://www.w3.org/1999/xlink" x="0px" y="0px"
	 width="18.904px" height="26.515px" viewBox="0 0 18.904 26.515" enable-background="new 0 0 18.904 26.515" xml:space="preserve">
<path d="M8.404,4.013L8.41,14.673h2.098L10.5,4.013l1.473,1.473l1.482-1.482l-2.521-2.521L9.451,0l-1.48,1.482L5.449,4.003
	l1.482,1.482L8.404,4.013z M18.902,25.289V8.806c0-0.004,0-0.01,0-0.01c0-0.008,0-0.012,0-0.012
	c-0.006-0.633-0.502-1.143-1.125-1.172c-0.018,0-0.037-0.002-0.057-0.002c-0.018,0-0.037,0.002-0.055,0.002h-4.432v2.096h3.574
	v14.713H2.096v-10.85H2.094V9.707h3.572V7.613H1.182C0.529,7.613,0,8.142,0,8.794v16.539c0,0.244,0.074,0.473,0.201,0.66
	l0.018,0.023c0.016,0.023,0.031,0.045,0.049,0.066c0.014,0.016,0.027,0.031,0.043,0.047c0.01,0.012,0.021,0.023,0.033,0.035
	c0.02,0.021,0.043,0.041,0.064,0.061c0.006,0.006,0.012,0.01,0.018,0.016c0.027,0.023,0.057,0.045,0.086,0.066h0.002
	c0.189,0.131,0.42,0.207,0.668,0.207h16.539c0.271,0,0.521-0.092,0.721-0.246c0.008-0.004,0.016-0.01,0.021-0.016
	c0.018-0.014,0.033-0.027,0.049-0.041c0.012-0.012,0.023-0.021,0.035-0.033s0.023-0.023,0.035-0.037
	c0.014-0.014,0.029-0.029,0.043-0.045c0.008-0.012,0.016-0.021,0.023-0.031c0.016-0.02,0.031-0.039,0.045-0.059
	c0.006-0.01,0.012-0.02,0.018-0.027c0.014-0.023,0.029-0.047,0.043-0.07l0.012-0.023c0.014-0.025,0.027-0.051,0.039-0.078
	c0.002-0.008,0.004-0.014,0.008-0.021c0.012-0.027,0.023-0.057,0.031-0.086c0.004-0.006,0.004-0.014,0.006-0.02
	c0.01-0.029,0.018-0.061,0.025-0.092l0.004-0.018c0.006-0.033,0.012-0.066,0.016-0.1c0-0.004,0.002-0.01,0.002-0.016
	c0.002-0.023,0.006-0.045,0.006-0.066c0.002-0.02,0.002-0.037,0.002-0.057C18.904,25.318,18.904,25.304,18.902,25.289z"/>
</svg>
