<?xml version="1.0" encoding="utf-8"?>
<!-- Generator: Adobe Illustrator 16.0.0, SVG Export Plug-In . SVG Version: 6.00 Build 0)  -->
<!DOCTYPE svg PUBLIC "-//W3C//DTD SVG 1.1//EN" "http://www.w3.org/Graphics/SVG/1.1/DTD/svg11.dtd">
<svg version="1.1" id="Layer_1" xmlns="http://www.w3.org/2000/svg" xmlns:xlink="http://www.w3.org/1999/xlink" x="0px" y="0px"
	 width="53.261px" height="53.261px" viewBox="0 0 53.261 53.261" enable-background="new 0 0 53.261 53.261" xml:space="preserve">
<path d="M1.483,5.828v4.453l-0.006,32.7v4.392c0,0.005-0.001,0.011-0.001,0.016c0,0.006,0.001,0.011,0.001,0.017v0.029
	c0.025,2.406,1.982,4.351,4.396,4.351h4.407V1.477H5.879C3.466,1.477,1.508,3.42,1.483,5.828z M51.784,5.889
	c0-0.005,0.001-0.011,0.001-0.016s-0.001-0.011-0.001-0.016V5.828h-0.001c-0.023-2.407-1.982-4.351-4.395-4.351H42.98v13.835
	l-2.516-2.047l-2.515,2.047V1.477H15.312v50.308h32.071c2.412,0,4.371-1.944,4.395-4.351h0.002V42.98l0.006-32.7h-0.001V5.889z"/>
</svg>
