<?xml version="1.0" encoding="utf-8"?>
<!-- Generator: Adobe Illustrator 16.0.0, SVG Export Plug-In . SVG Version: 6.00 Build 0)  -->
<!DOCTYPE svg PUBLIC "-//W3C//DTD SVG 1.1//EN" "http://www.w3.org/Graphics/SVG/1.1/DTD/svg11.dtd">
<svg version="1.1" xmlns="http://www.w3.org/2000/svg" xmlns:xlink="http://www.w3.org/1999/xlink" x="0px" y="0px"
	 width="53.262px" height="53.261px" viewBox="0 0 53.262 53.261" enable-background="new 0 0 53.262 53.261" xml:space="preserve">
<g id="Layer_1">
	<path fill="#2F251B" d="M20.018,21.563H14.25v5.769h5.769V21.563z M26.349,21.563h-5.768v5.769h5.768V21.563z M20.018,27.894H14.25
		v5.768h5.769V27.894z M26.349,27.894h-5.768v5.768h5.768V27.894z M20.018,34.224H14.25v5.77h5.769V34.224z M26.349,40.556h-5.768
		v5.768h5.768V40.556z M26.349,34.224h-5.768v5.77h5.768V34.224z M20.018,15.231H14.25V21h5.769V15.231z M15.234,8.9
		c0.771,0,1.396-0.625,1.396-1.396V2.704c0-0.771-0.625-1.396-1.396-1.396c-0.771,0-1.395,0.624-1.395,1.396v4.801
		C13.84,8.275,14.463,8.9,15.234,8.9z M13.687,40.556h-5.77v5.768h5.77V40.556z M38.027,8.9c0.771,0,1.396-0.625,1.396-1.396V2.704
		c0-0.771-0.625-1.396-1.396-1.396s-1.395,0.624-1.395,1.396v4.801C36.632,8.275,37.255,8.9,38.027,8.9z M20.018,40.556H14.25v5.768
		h5.769V40.556z M13.687,34.224h-5.77v5.77h5.77V34.224z M13.687,15.231h-5.77V21h5.77V15.231z M13.687,21.563h-5.77v5.769h5.77
		V21.563z M13.687,27.894h-5.77v5.768h5.77V27.894z M32.681,40.556h-5.769v5.768h5.769V40.556z M45.343,40.556h-5.768v5.768h5.768
		V40.556z M26.349,15.231h-5.768V21h5.768V15.231z M39.013,21.563h-5.77v5.769h5.77V21.563z M39.013,15.231h-5.77V21h5.77V15.231z
		 M45.343,27.894h-5.768v5.768h5.768V27.894z M51.954,10.161c-0.023-2.424-1.996-4.381-4.424-4.381h-6.549v1.725
		c0,1.629-1.326,2.954-2.955,2.954s-2.953-1.325-2.953-2.954V5.78H18.189v1.725c0,1.629-1.325,2.954-2.955,2.954
		c-1.629,0-2.953-1.325-2.953-2.954V5.78H5.738c-2.43,0-4.4,1.957-4.426,4.381v4.483L1.306,43.089v4.482
		c0.025,2.424,1.996,4.381,4.426,4.381h41.792c2.43,0,4.4-1.957,4.424-4.381h0.002v-4.482l0.006-28.445v-4.483H51.954z
		 M45.906,46.888H7.355v-32.22h38.55V46.888z M45.343,15.231h-5.768V21h5.768V15.231z M45.343,21.563h-5.768v5.769h5.768V21.563z
		 M45.343,34.224h-5.768v5.77h5.768V34.224z M32.681,21.563h-5.769v5.769h5.769V21.563z M32.681,27.894h-5.769v5.768h5.769V27.894z
		 M32.681,34.224h-5.769v5.77h5.769V34.224z M39.013,34.224h-5.77v5.77h5.77V34.224z M39.013,27.894h-5.77v5.768h5.77V27.894z
		 M39.013,40.556h-5.77v5.768h5.77V40.556z M32.681,15.231h-5.769V21h5.769V15.231z"/>
</g>
<g id="Layer_2">
</g>
</svg>
