<?xml version="1.0" encoding="utf-8"?>
<!-- Generator: Adobe Illustrator 16.0.0, SVG Export Plug-In . SVG Version: 6.00 Build 0)  -->
<!DOCTYPE svg PUBLIC "-//W3C//DTD SVG 1.1//EN" "http://www.w3.org/Graphics/SVG/1.1/DTD/svg11.dtd">
<svg version="1.1" id="Layer_1" xmlns="http://www.w3.org/2000/svg" xmlns:xlink="http://www.w3.org/1999/xlink" x="0px" y="0px"
	 width="53.262px" height="53.261px" viewBox="0 0 53.262 53.261" enable-background="new 0 0 53.262 53.261" xml:space="preserve">
<path fill="#2F251B" d="M10.045,14.535h9.247c2.258,0,4.089-1.828,4.095-4.084V10.26h-0.004c-0.094-2.178-1.89-3.915-4.091-3.915
	c-0.482,0-0.944,0.084-1.373,0.236c-0.729-1.328-2.14-2.229-3.762-2.229c-2.308,0-4.19,1.823-4.284,4.109
	C8.709,8.526,7.72,9.247,7.268,10.26c-0.168,0.378-0.263,0.796-0.263,1.236C7.005,13.174,8.366,14.535,10.045,14.535z M52.115,36.33
	c-0.293-6.781-5.882-12.188-12.735-12.188c-1.498,0-2.938,0.26-4.273,0.734c-2.268-4.135-6.661-6.938-11.71-6.938
	c-7.186,0-13.044,5.68-13.335,12.794c-3.625,0.201-6.705,2.443-8.11,5.598c-0.524,1.176-0.818,2.477-0.818,3.848
	c0,5.225,4.236,9.461,9.461,9.461H39.38c7.029,0,12.73-5.689,12.748-12.715V36.33H52.115z"/>
</svg>
