<?xml version="1.0" encoding="utf-8"?>
<!-- Generator: Adobe Illustrator 16.0.0, SVG Export Plug-In . SVG Version: 6.00 Build 0)  -->
<!DOCTYPE svg PUBLIC "-//W3C//DTD SVG 1.1//EN" "http://www.w3.org/Graphics/SVG/1.1/DTD/svg11.dtd">
<svg version="1.1" id="Layer_1" xmlns="http://www.w3.org/2000/svg" xmlns:xlink="http://www.w3.org/1999/xlink" x="0px" y="0px"
	 width="73.083px" height="73.083px" viewBox="0 0 73.083 73.083" enable-background="new 0 0 73.083 73.083" xml:space="preserve">
<g>
	<path d="M50.461,45.293l14.375,14.375c10.987-13.409,10.996-32.807,0.023-46.226L50.481,27.821
		C53.821,33.149,53.814,39.971,50.461,45.293z"/>
	<path d="M27.821,50.481L13.442,64.86c13.417,10.97,32.81,10.963,46.22-0.02L45.286,50.466
		C39.965,53.813,33.147,53.819,27.821,50.481z"/>
	<path d="M45.319,22.637L59.69,8.265C46.27-2.749,26.841-2.755,13.414,8.246l14.375,14.375
		C33.13,19.257,39.982,19.262,45.319,22.637z"/>
	<path d="M22.617,27.796L8.241,13.42C-2.755,26.847-2.747,46.272,8.265,59.69l14.372-14.372
		C19.263,39.984,19.257,33.136,22.617,27.796z"/>
</g>
</svg>
