<?xml version="1.0" encoding="utf-8"?>
<!-- Generator: Adobe Illustrator 16.0.0, SVG Export Plug-In . SVG Version: 6.00 Build 0)  -->
<!DOCTYPE svg PUBLIC "-//W3C//DTD SVG 1.1//EN" "http://www.w3.org/Graphics/SVG/1.1/DTD/svg11.dtd">
<svg version="1.1" id="Layer_1" xmlns="http://www.w3.org/2000/svg" xmlns:xlink="http://www.w3.org/1999/xlink" x="0px" y="0px"
	 width="39.316px" height="39.316px" viewBox="0 0 39.316 39.316" enable-background="new 0 0 39.316 39.316" xml:space="preserve">
<path fill="#77B199" d="M0,0v39.316h39.316V0H0z M28.232,12.169c0,0-7.083,1.99-12.11,3.546c-1.584,0.524-2.3,1.274-2.111,2.252
	c0.057,0.298,0.196,0.555,0.398,0.767c0.463,0.488,1.255,0.737,2.126,0.688c2.419-0.174,3.439-0.29,5.851-0.553
	c0.756-0.083,1.462,0.02,2.066,0.34c0.245,0.13,0.472,0.297,0.676,0.498c0.05,0.049,0.098,0.099,0.146,0.152
	c1.126,1.247,1.282,3.607,0.772,5.962c-0.969,4.079-2.097,6.189-4.635,5.094c-2.491-0.915-6.338-2.065-6.338-2.065l-0.021-0.049
	l-1.41-3.167c0,0,4.436,1.24,7.415,1.865c0.871,0.199,1.65-0.394,1.874-1.961c0.149-1.053-0.109-1.987-0.638-2.488
	c-0.26-0.247-0.583-0.389-0.957-0.388c-2.104-0.028-2.689-0.045-4.795-0.073c-1.441-0.023-2.742-0.535-3.091-0.706
	c-0.72-0.365-1.245-0.747-1.651-1.161c-0.499-0.508-0.817-1.065-1.09-1.699c-0.416-0.994-0.396-2.044,0.334-3.312
	c0.748-1.417,2.396-2.148,4.27-2.943c3.208-1.36,12.574-4.342,13.494-4.634c0.049-0.016,0.074-0.023,0.074-0.023L28.232,12.169z"/>
</svg>
