<?xml version="1.0" encoding="utf-8"?>
<!-- Generator: Adobe Illustrator 16.0.0, SVG Export Plug-In . SVG Version: 6.00 Build 0)  -->
<!DOCTYPE svg PUBLIC "-//W3C//DTD SVG 1.1//EN" "http://www.w3.org/Graphics/SVG/1.1/DTD/svg11.dtd">
<svg version="1.1" id="Layer_1" xmlns="http://www.w3.org/2000/svg" xmlns:xlink="http://www.w3.org/1999/xlink" x="0px" y="0px"
	 width="18.445px" height="23.092px" viewBox="0 0 18.445 23.092" enable-background="new 0 0 18.445 23.092" xml:space="preserve">
<g>
	<g>
		<path d="M5.687,7.604c5.026-1.557,12.11-3.547,12.11-3.547L18.445,0c0,0-0.025,0.008-0.074,0.023
			C17.451,0.315,8.085,3.298,4.877,4.658C3.003,5.452,1.355,6.184,0.607,7.6c-0.73,1.268-0.75,2.318-0.334,3.312
			c0.272,0.634,0.591,1.191,1.09,1.7c0.406,0.413,0.932,0.795,1.651,1.16c0.349,0.171,1.65,0.683,3.091,0.706
			c2.105,0.028,2.689,0.046,4.794,0.074c0.373-0.002,0.697,0.14,0.957,0.387c0.528,0.501,0.787,1.437,0.638,2.488
			c-0.224,1.567-1.003,2.16-1.874,1.961c-2.979-0.625-7.415-1.865-7.415-1.865l1.41,3.167l0.021,0.049c0,0,3.847,1.15,6.338,2.065
			c2.538,1.097,3.667-1.015,4.636-5.094c0.509-2.354,0.353-4.715-0.773-5.962c-0.047-0.053-0.096-0.104-0.146-0.152
			c-0.204-0.201-0.431-0.368-0.677-0.498c-0.604-0.32-1.31-0.423-2.065-0.34c-2.411,0.263-3.432,0.379-5.85,0.553
			c-0.872,0.05-1.664-0.2-2.126-0.688c-0.202-0.212-0.342-0.47-0.398-0.767C3.387,8.877,4.103,8.127,5.687,7.604z"/>
	</g>
</g>
</svg>
