<?xml version="1.0" encoding="utf-8"?>
<!-- Generator: Adobe Illustrator 16.0.0, SVG Export Plug-In . SVG Version: 6.00 Build 0)  -->
<!DOCTYPE svg PUBLIC "-//W3C//DTD SVG 1.1//EN" "http://www.w3.org/Graphics/SVG/1.1/DTD/svg11.dtd">
<svg version="1.1" id="Layer_1" xmlns="http://www.w3.org/2000/svg" xmlns:xlink="http://www.w3.org/1999/xlink" x="0px" y="0px"
	 width="74.458px" height="74.466px" viewBox="0 0 74.458 74.466" enable-background="new 0 0 74.458 74.466" xml:space="preserve">
<path d="M17.957,25.283h-4.951v23.851h3.042V38.746h1.909c2.05,0,3.592-0.604,4.628-1.812c0.971-1.122,1.457-2.772,1.457-4.952
	c0-2.136-0.485-3.774-1.457-4.919C21.528,25.877,19.985,25.283,17.957,25.283z M20.255,34.927c-0.086,0.108-0.281,0.259-0.583,0.453
	c-0.302,0.194-0.874,0.291-1.715,0.291h-1.909v-7.313h1.909c0.496,0,0.933,0.043,1.311,0.129c0.377,0.087,0.69,0.259,0.938,0.518
	c0.248,0.26,0.437,0.627,0.566,1.101c0.129,0.476,0.194,1.101,0.194,1.877C20.967,33.449,20.729,34.431,20.255,34.927z
	 M28.475,25.283h-3.042v23.851h10.389v-3.042h-7.347V25.283z M44.59,42.791c0,0.82-0.08,1.456-0.242,1.909s-0.361,0.782-0.599,0.987
	s-0.485,0.324-0.744,0.355c-0.259,0.033-0.497,0.049-0.712,0.049c-0.217,0-0.453-0.016-0.713-0.049
	c-0.258-0.031-0.506-0.15-0.744-0.355c-0.237-0.205-0.437-0.534-0.598-0.987c-0.162-0.453-0.243-1.089-0.243-1.909V25.283h-3.042
	v17.508c0,1.985,0.432,3.506,1.295,4.562c0.323,0.433,0.809,0.837,1.456,1.214c0.648,0.378,1.51,0.566,2.59,0.566
	c1.078,0,1.941-0.188,2.589-0.566c0.647-0.377,1.133-0.781,1.456-1.214c0.863-1.057,1.295-2.577,1.295-4.562V25.283H44.59V42.791z
	 M74.456,6.441C74.42,2.878,71.522,0,67.95,0H6.508C2.937,0,0.039,2.878,0.003,6.441H0.001v0.091L0,67.934c0,0.009,0,0.017,0,0.024
	c0,0,0,0.016,0,0.024v0.043h0.001c0.036,3.562,2.934,6.44,6.505,6.44H67.95c3.571,0,6.469-2.878,6.506-6.44v-0.092l0.002-61.401
	c0-0.009,0-0.017,0-0.017V6.441H74.456z M70.733,67.906l-0.001,0.081c-0.015,1.519-1.264,2.755-2.782,2.755H6.507
	c-1.519,0-2.767-1.236-2.783-2.755l0-0.077l0-61.331l0.001-0.101C3.741,4.96,4.989,3.724,6.508,3.724H67.95
	c1.52,0,2.768,1.236,2.783,2.755l0.001,0.098L70.733,67.906z M58.524,25.897c-0.68-0.409-1.603-0.614-2.768-0.614
	c-0.842,0-1.613,0.167-2.314,0.501c-0.701,0.335-1.305,0.799-1.812,1.392c-0.506,0.594-0.895,1.311-1.164,2.152
	c-0.271,0.842-0.404,1.77-0.404,2.783c0,1.941,0.646,3.539,1.941,4.789c0.518,0.497,1.041,0.88,1.569,1.149
	c0.528,0.271,0.966,0.48,1.311,0.631l0.583,0.259c0.345,0.151,0.689,0.318,1.035,0.502s0.658,0.41,0.938,0.68
	s0.507,0.599,0.68,0.987c0.173,0.388,0.259,0.862,0.259,1.424c0,0.323-0.027,0.695-0.08,1.116c-0.055,0.421-0.174,0.81-0.357,1.165
	c-0.183,0.356-0.447,0.658-0.792,0.906c-0.346,0.248-0.81,0.372-1.392,0.372c-0.604,0-1.047-0.08-1.327-0.242
	s-0.475-0.318-0.583-0.47c-0.496-0.604-0.744-1.606-0.744-3.01V40.85h-3.041v1.521c0,2.136,0.463,3.776,1.391,4.919
	c0.971,1.23,2.406,1.845,4.305,1.845c1.834,0,3.279-0.679,4.336-2.038c0.906-1.209,1.359-2.729,1.359-4.563
	c0-1.942-0.668-3.528-2.006-4.758c-0.518-0.496-1.041-0.868-1.57-1.116s-0.943-0.438-1.246-0.566l-0.518-0.227
	c-0.389-0.15-0.76-0.328-1.116-0.534c-0.356-0.204-0.675-0.452-0.954-0.744c-0.281-0.291-0.508-0.636-0.68-1.036
	c-0.174-0.398-0.26-0.879-0.26-1.439c0-0.216,0.021-0.534,0.064-0.955c0.043-0.42,0.156-0.842,0.34-1.262
	c0.184-0.421,0.448-0.782,0.793-1.084c0.346-0.303,0.831-0.453,1.457-0.453c0.215,0,0.475,0.021,0.777,0.064
	c0.301,0.043,0.592,0.178,0.873,0.404c0.28,0.227,0.512,0.599,0.695,1.117c0.184,0.518,0.275,1.24,0.275,2.168v1.521h3.074v-1.521
	c0-2.114-0.464-3.765-1.391-4.951C59.715,26.729,59.204,26.308,58.524,25.897z"/>
</svg>
