<?xml version="1.0" encoding="utf-8"?>
<!-- Generator: Adobe Illustrator 16.0.0, SVG Export Plug-In . SVG Version: 6.00 Build 0)  -->
<!DOCTYPE svg PUBLIC "-//W3C//DTD SVG 1.1//EN" "http://www.w3.org/Graphics/SVG/1.1/DTD/svg11.dtd">
<svg version="1.1" id="Layer_1" xmlns="http://www.w3.org/2000/svg" xmlns:xlink="http://www.w3.org/1999/xlink" x="0px" y="0px"
	 width="22.741px" height="25.958px" viewBox="0 0 22.741 25.958" enable-background="new 0 0 22.741 25.958" xml:space="preserve">
<path d="M2.328,9.661C2.056,9.079,1.965,8.437,2.065,7.804l0.004-0.025l0.005-0.025l0.014-0.074L2.83,3.685l-1.15,0.537
	C1.673,4.224,1.667,4.226,1.662,4.229C1.657,4.231,1.651,4.233,1.645,4.237C1.282,4.413,1.04,4.74,0.96,5.108L0.946,5.183
	l-0.918,4.939l-0.013,0.066c-0.037,0.24-0.007,0.494,0.104,0.73l6.672,14.308c0.295,0.634,1.048,0.907,1.681,0.612l1.15-0.537
	c-0.007-0.014-0.013-0.026-0.02-0.04L2.328,9.661z M15.392,3.503c-0.119-0.256-0.309-0.458-0.533-0.594l-0.064-0.036l-4.733-2.675
	L9.99,0.158C9.793,0.055,9.574,0,9.35,0c-0.188,0-0.378,0.039-0.56,0.12c-0.007,0.003-0.014,0.005-0.02,0.008L8.753,0.137
	L7.218,0.854L5.681,1.57C5.675,1.572,5.669,1.575,5.664,1.578S5.652,1.584,5.645,1.587C5.251,1.777,4.99,2.132,4.904,2.53
	L4.888,2.611L3.895,7.956L3.881,8.028c-0.041,0.26-0.008,0.534,0.112,0.79l7.22,15.485c0.232,0.498,0.726,0.79,1.241,0.79
	c0.194,0,0.391-0.041,0.578-0.128l4.459-2.08l4.459-2.078c0.686-0.32,0.981-1.135,0.662-1.82L15.392,3.503z M9.584,5.927
	C9.407,6.009,9.22,6.048,9.037,6.048c-0.489,0-0.957-0.277-1.178-0.75C7.556,4.648,7.837,3.876,8.487,3.573
	C8.665,3.49,8.851,3.451,9.035,3.451c0.488,0,0.957,0.277,1.178,0.75C10.515,4.851,10.234,5.623,9.584,5.927z"/>
</svg>
