<?xml version="1.0" encoding="utf-8"?>
<!-- Generator: Adobe Illustrator 16.0.0, SVG Export Plug-In . SVG Version: 6.00 Build 0)  -->
<!DOCTYPE svg PUBLIC "-//W3C//DTD SVG 1.1//EN" "http://www.w3.org/Graphics/SVG/1.1/DTD/svg11.dtd">
<svg version="1.1" id="Layer_1" xmlns="http://www.w3.org/2000/svg" xmlns:xlink="http://www.w3.org/1999/xlink" x="0px" y="0px"
	 width="32.107px" height="32.824px" viewBox="0 0 32.107 32.824" enable-background="new 0 0 32.107 32.824" xml:space="preserve">
<g>
	<g>
		<path fill="#E3D279" d="M29.952,0H2.156C0.97,0,0,0.97,0,2.156v28.513c0,1.186,0.97,2.155,2.156,2.155h27.796
			c1.186,0,2.155-0.97,2.155-2.155V2.156C32.107,0.97,31.138,0,29.952,0z M25.755,23.709c0,0.435-0.353,0.787-0.788,0.787H7.141
			c-0.436,0-0.788-0.353-0.788-0.787v-1.658c0-0.436,0.353-0.788,0.788-0.788h17.826c0.436,0,0.788,0.353,0.788,0.788V23.709z
			 M25.755,17.241c0,0.436-0.353,0.788-0.788,0.788H7.141c-0.436,0-0.788-0.353-0.788-0.788v-1.658c0-0.435,0.353-0.788,0.788-0.788
			h17.826c0.436,0,0.788,0.353,0.788,0.788V17.241z M25.755,10.774c0,0.435-0.353,0.788-0.788,0.788H7.141
			c-0.436,0-0.788-0.353-0.788-0.788V9.116c0-0.436,0.353-0.788,0.788-0.788h17.826c0.436,0,0.788,0.353,0.788,0.788V10.774z"/>
	</g>
</g>
<g>
</g>
<g>
</g>
<g>
</g>
<g>
</g>
<g>
</g>
<g>
</g>
</svg>
