<?xml version="1.0" encoding="utf-8"?>
<!-- Generator: Adobe Illustrator 16.0.0, SVG Export Plug-In . SVG Version: 6.00 Build 0)  -->
<!DOCTYPE svg PUBLIC "-//W3C//DTD SVG 1.1//EN" "http://www.w3.org/Graphics/SVG/1.1/DTD/svg11.dtd">
<svg version="1.1" id="Layer_1" xmlns="http://www.w3.org/2000/svg" xmlns:xlink="http://www.w3.org/1999/xlink" x="0px" y="0px"
	 width="11.313px" height="12.779px" viewBox="0 0 11.313 12.779" enable-background="new 0 0 11.313 12.779" xml:space="preserve">
<path d="M2.178,0.226l0.026,0.017V0.241l8.352,4.897c0.032,0.018,0.063,0.037,0.095,0.057c0.002,0.001,0.004,0.002,0.006,0.003
	l0.035,0.021c0.388,0.266,0.62,0.703,0.62,1.172s-0.231,0.906-0.628,1.176L10.662,7.58c-0.034,0.021-0.069,0.043-0.105,0.062
	l-8.352,4.897v0.001l-0.021,0.013c-0.231,0.148-0.496,0.228-0.768,0.228c-0.781,0-1.417-0.636-1.417-1.417V1.418
	c0-0.781,0.636-1.417,1.417-1.417C1.687,0.001,1.953,0.08,2.178,0.226z"/>
</svg>
