<?xml version="1.0" encoding="utf-8"?>
<!-- Generator: Adobe Illustrator 16.0.0, SVG Export Plug-In . SVG Version: 6.00 Build 0)  -->
<!DOCTYPE svg PUBLIC "-//W3C//DTD SVG 1.1//EN" "http://www.w3.org/Graphics/SVG/1.1/DTD/svg11.dtd">
<svg version="1.1" id="Layer_1" xmlns="http://www.w3.org/2000/svg" xmlns:xlink="http://www.w3.org/1999/xlink" x="0px" y="0px"
	 width="11.313px" height="12.779px" viewBox="0 0 11.313 12.779" enable-background="new 0 0 11.313 12.779" xml:space="preserve">
<path d="M9.133,12.555l-0.026-0.017v0.001L0.756,7.642C0.723,7.624,0.692,7.604,0.661,7.585C0.659,7.584,0.657,7.583,0.655,7.582
	L0.62,7.562C0.232,7.296,0,6.858,0,6.39s0.231-0.906,0.628-1.176L0.65,5.2c0.035-0.021,0.069-0.043,0.106-0.062l8.351-4.897V0.24
	l0.021-0.013C9.36,0.079,9.625,0,9.896,0c0.781,0,1.417,0.636,1.417,1.417v9.945c0,0.781-0.636,1.417-1.417,1.417
	C9.625,12.779,9.359,12.7,9.133,12.555z"/>
</svg>
