<?xml version="1.0" standalone="no"?>
<!DOCTYPE svg PUBLIC "-//W3C//DTD SVG 1.1//EN" "http://www.w3.org/Graphics/SVG/1.1/DTD/svg11.dtd" >
<svg xmlns="http://www.w3.org/2000/svg">
<metadata>
This is a custom SVG font generated by IcoMoon.
<iconset grid="18"></iconset>
</metadata>
<defs>
<font id="swipes" horiz-adv-x="576" >
<font-face units-per-em="576" ascent="544" descent="-32" />
<missing-glyph horiz-adv-x="576" />
<glyph class="hidden" unicode="&#xf000;" d="M0,544L 576 -32L0 -32 z" horiz-adv-x="0" />
<glyph unicode="&#xe000;" d="M 107.184,533.824l 1.152-0.768L 108.384,533.152 l 376.464-220.704c 1.44-0.816, 2.832-1.68, 4.272-2.592c 0.096-0.048, 0.192-0.096, 0.288-0.144
	l 1.584-0.96c 17.472-12, 27.936-31.68, 27.936-52.848s-10.416-40.848-28.32-52.992L 489.6,202.336c-1.536-0.96-3.12-1.92-4.752-2.784
	l-376.464-220.704l0-0.048 l-0.96-0.576c-10.416-6.672-22.368-10.272-34.608-10.272c-35.184,0-63.888,28.656-63.888,63.888L 8.976,480.064 
	c0,35.184, 28.656,63.888, 63.888,63.888C 85.056,543.952, 97.056,540.4, 107.184,533.824z" horiz-adv-x="528"  />
<glyph unicode="&#xe001;" d="M 420.672-21.92l-1.152,0.768l0-0.048 L 43.104,199.552C 41.616,200.368, 40.224,201.28, 38.832,202.096C 38.736,202.144, 38.64,202.192, 38.544,202.24
	L 36.96,203.152C 19.488,215.152, 9.024,234.88, 9.024,256s 10.416,40.848, 28.32,52.992L 38.304,309.616c 1.584,0.96, 3.12,1.92, 4.8,2.784l 376.416,220.704L 419.52,533.2 
	l 0.96,0.576C 430.896,540.448, 442.848,544, 455.088,544c 35.184,0, 63.888-28.656, 63.888-63.888l0-448.272 c0-35.184-28.656-63.888-63.888-63.888
	C 442.848-32, 430.848-28.448, 420.672-21.92z" horiz-adv-x="528"  />
<glyph unicode="&#xe002;" d="M 339.951,483.254l-90.521,0 C 249.408,516.795, 222.203,544, 188.64,544s-60.768-27.205-60.768-60.746L 36.687,483.254 C 18.321,483.254, 3.412,468.345, 3.412,449.979l0-45.26 l 369.814,0 
	L 373.226,449.979 C 373.226,468.345, 358.294,483.254, 339.951,483.254z M 157.935,483.254c0,16.948, 13.78,30.705, 30.727,30.705s 30.727-13.758, 30.727-30.705L 157.935,483.254 z M 3.412,1.275
	c0-18.388, 14.91-33.275, 33.275-33.275l 303.22,0 c 18.388,0, 33.275,14.91, 33.275,33.275L 373.204,360.167 L 3.412,360.167 L 3.412,1.275 z M 255.478,314.065l 44.551,0 l0-299.963 l-44.551,0 L 255.478,314.065 z
	 M 166.375,314.065l 44.574,0 l0-299.963 L 166.375,14.102 L 166.375,314.065 z M 77.295,314.065l 44.551,0 l0-299.963 l-44.551,0 L 77.295,314.065 z" horiz-adv-x="376.615"  />
<glyph unicode="&#xe003;" d="M 531.9,544L 44.136,544 C 23.328,544, 6.3,526.972, 6.3,506.164l0-500.346 c0-20.808, 17.028-37.818, 37.836-37.818l 487.764,0 
			c 20.808,0, 37.818,17.028, 37.818,37.818L 569.718,506.164 C 569.718,526.972, 552.708,544, 531.9,544z M 458.244,127.948c0-7.632-6.192-13.806-13.824-13.806L 131.616,114.142 
			c-7.65,0-13.824,6.192-13.824,13.806l0,29.088 c0,7.65, 6.192,13.824, 13.824,13.824l 312.822,0 c 7.65,0, 13.824-6.192, 13.824-13.824L 458.244,127.948 z
			 M 458.244,241.456c0-7.65-6.192-13.824-13.824-13.824L 131.616,227.632 c-7.65,0-13.824,6.192-13.824,13.824l0,29.088 c0,7.632, 6.192,13.824, 13.824,13.824
			l 312.822,0 c 7.65,0, 13.824-6.192, 13.824-13.824L 458.244,241.456 z M 458.244,354.928c0-7.632-6.192-13.824-13.824-13.824L 131.616,341.104 
			c-7.65,0-13.824,6.192-13.824,13.824L 117.792,384.034 c0,7.65, 6.192,13.824, 13.824,13.824l 312.822,0 c 7.65,0, 13.824-6.192, 13.824-13.824L 458.244,354.928 z"  />
<glyph unicode="&#xe004;" d="M 52.785,329.636C 46.748,342.538, 44.721,356.777, 46.956,370.831l 0.092,0.553l 0.115,0.553l 0.3,1.636L 63.936,462.231l-25.528-11.912
	C 38.246,450.273, 38.108,450.227, 38.016,450.158C 37.901,450.112, 37.763,450.066, 37.624,449.974C 29.583,446.080, 24.215,438.822, 22.441,430.666L 22.118,428.984
	l-20.367-109.601l-0.3-1.475c-0.829-5.322-0.161-10.967, 2.304-16.197l 148.055-317.491c 6.543-14.077, 23.247-20.137, 37.302-13.571l 25.528,11.912
	c-0.161,0.3-0.3,0.576-0.438,0.899L 52.785,329.636z M 342.674,466.263c-2.65,5.691-6.866,10.161-11.82,13.179l-1.428,0.806l-105.016,59.351
	L 222.797,540.498C 218.442,542.779, 213.581,544, 208.604,544c-4.17,0-8.387-0.876-12.419-2.673c-0.161-0.069-0.3-0.115-0.438-0.184L 195.356,540.959
	L 161.303,525.061L 127.181,509.164C 127.066,509.117, 126.927,509.048, 126.812,508.979S 126.536,508.841, 126.397,508.795C 117.642,504.579, 111.859,496.699, 109.947,487.852
	L 109.601,486.054L 87.552,367.468L 87.252,365.855c-0.899-5.76-0.184-11.843, 2.488-17.533l 160.22-343.619c 5.138-11.059, 16.105-17.533, 27.533-17.533
	c 4.308,0, 8.686,0.899, 12.833,2.834l 98.934,46.149l 98.934,46.103c 15.229,7.096, 21.773,25.183, 14.7,40.389L 342.674,466.263z M 213.788,412.488
	C 209.871,410.668, 205.724,409.792, 201.646,409.792c-10.852,0-21.243,6.152-26.15,16.635C 168.791,440.873, 175.035,457.992, 189.458,464.719
	C 193.398,466.563, 197.522,467.415, 201.623,467.415c 10.829,0, 21.243-6.152, 26.15-16.635C 234.455,436.357, 228.211,419.238, 213.788,412.488z" horiz-adv-x="506.88"  />
<glyph unicode="&#xe005;" d="M 138.933,348.432l-38.296,0 l0-184.491 l 23.53,0 L 124.167,244.293 l 14.766,0 c 15.856,0, 27.788,4.67, 35.798,14.019c 7.511,8.679, 11.271,21.444, 11.271,38.304
	c0,16.525-3.752,29.189-11.271,38.047C 166.55,343.84, 154.617,348.432, 138.933,348.432z M 156.703,273.84c-0.662-0.833-2.172-2-4.507-3.503
	c-2.335-1.502-6.764-2.25-13.264-2.25l-14.766,0 l0,56.565 l 14.766,0 c 3.837,0, 7.216-0.335, 10.142-0.996c 2.919-0.669, 5.34-2, 7.254-4.009
	c 1.915-2.008, 3.378-4.849, 4.374-8.515c 0.996-3.682, 1.502-8.515, 1.502-14.517C 162.214,285.267, 160.369,277.67, 156.703,273.84z
	 M 220.289,348.432l-23.53,0 l0-184.491 l 80.36,0 l0,23.53 l-56.829,0 L 220.289,348.432 z M 344.938,213.010c0-6.344-0.615-11.263-1.868-14.766s-2.794-6.048-4.631-7.636
	s-3.752-2.506-5.752-2.748c-2-0.257-3.845-0.381-5.511-0.381c-1.681,0-3.503,0.125-5.519,0.381
	c-1.993,0.241-3.915,1.16-5.752,2.748c-1.837,1.588-3.378,4.133-4.624,7.636c-1.253,3.503-1.876,8.422-1.876,14.766L 309.398,348.432 l-23.53,0 
	l0-135.422 c0-15.357, 3.339-27.119, 10.018-35.284c 2.499-3.347, 6.258-6.476, 11.263-9.387c 5.013-2.927, 11.683-4.374, 20.035-4.374
	c 8.336,0, 15.015,1.456, 20.028,4.374c 5.005,2.919, 8.765,6.040, 11.263,9.387c 6.678,8.173, 10.018,19.934, 10.018,35.284L 368.484,348.432 L 344.938,348.432 L 344.938,213.010 z
	 M 575.953,494.176C 575.673,521.738, 553.256,544, 525.631,544L 50.369,544 C 22.752,544, 0.335,521.738, 0.054,494.176L 0.039,494.176 l0-0.701 L 0.031,18.525c0-0.070,0-0.132,0-0.187
	c0,0,0-0.125,0-0.187l0-0.335 l 0.008,0 c 0.28-27.555, 22.698-49.816, 50.314-49.816L 525.631-31.992 c 27.625,0, 50.042,22.262, 50.322,49.816l0,0.708 l 0.016,474.943
	c0,0.070,0,0.132,0,0.132L 575.969,494.176 L 575.953,494.176 z M 547.153,18.742l-0.008-0.623c-0.117-11.746-9.776-21.312-21.522-21.312L 50.361-3.192 
	c-11.746,0-21.405,9.558-21.53,21.312l0,0.599l0,474.398l 0.008,0.778C 28.971,505.634, 38.623,515.192, 50.369,515.192L 525.631,515.192 
	c 11.754,0, 21.413-9.558, 21.53-21.312l 0.008-0.755L 547.153,18.742z M 452.72,343.684c-5.262,3.16-12.4,4.748-21.413,4.748
	c-6.515,0-12.477-1.292-17.903-3.876c-5.425-2.592-10.096-6.18-14.019-10.765c-3.915-4.592-6.92-10.142-9.006-16.65
	c-2.094-6.515-3.121-13.692-3.121-21.53c0-15.015, 4.997-27.376, 15.015-37.043c 4.009-3.845, 8.048-6.803, 12.135-8.889
	c 4.086-2.094, 7.472-3.713, 10.142-4.88l 4.507-2c 2.67-1.168, 5.332-2.46, 8.010-3.884s 5.091-3.168, 7.254-5.262
	s 3.923-4.631, 5.262-7.636c 1.339-3.005, 2-6.671, 2-11.014c0-2.499-0.21-5.379-0.615-8.632c-0.428-3.254-1.347-6.266-2.763-9.014
	c-1.417-2.755-3.456-5.091-6.126-7.005c-2.678-1.915-6.266-2.88-10.765-2.88c-4.67,0-8.095,0.615-10.267,1.868
	s-3.674,2.46-4.507,3.635c-3.837,4.67-5.752,12.423-5.752,23.281L 410.789,228.025 l-23.523,0 l0-11.761 c0-16.525, 3.581-29.205, 10.757-38.047
	c 7.511-9.512, 18.611-14.268, 33.299-14.268c 14.19,0, 25.36,5.254, 33.54,15.762c 7.005,9.348, 10.508,21.11, 10.508,35.292
	c0,15.023-5.168,27.29-15.513,36.802c-4.009,3.837-8.048,6.717-12.143,8.632s-7.293,3.386-9.636,4.374l-4.009,1.759
	c-3.012,1.16-5.877,2.538-8.632,4.133c-2.755,1.58-5.223,3.495-7.379,5.752c-2.172,2.25-3.931,4.919-5.262,8.017
	c-1.347,3.082-2.008,6.795-2.008,11.131c0,1.674, 0.163,4.133, 0.498,7.387c 0.335,3.246, 1.206,6.515, 2.631,9.761
	c 1.424,3.254, 3.464,6.048, 6.134,8.383c 2.678,2.343, 6.429,3.503, 11.271,3.503c 1.666,0, 3.674-0.163, 6.009-0.498
	c 2.327-0.335, 4.577-1.378, 6.756-3.121c 2.164-1.759, 3.962-4.631, 5.379-8.64c 1.424-4.009, 2.125-9.59, 2.125-16.766l0-11.761 l 23.779,0 l0,11.761 
	c0,16.354-3.588,29.119-10.757,38.296C 461.929,337.247, 457.982,340.509, 452.72,343.684z"  />
<glyph unicode="&#xe006;" d="M 137.188,354.321c 125.368,38.842, 302.074,88.479, 302.074,88.479L 455.441,544c0,0-0.626-0.2-1.853-0.576
			C 430.623,536.136, 197.017,461.732, 117.003,427.823C 70.247,408.014, 29.151,389.757, 10.493,354.421c-18.207-31.63-18.707-57.825-8.339-82.618
			c 6.787-15.802, 14.751-29.702, 27.197-42.399c 10.118-10.293, 23.24-19.834, 41.171-28.925c 8.715-4.257, 41.146-17.030, 77.109-17.606
			c 52.516-0.701, 67.066-1.152, 119.583-1.853c 9.316,0.050, 17.38-3.481, 23.866-9.642c 13.173-12.497, 19.634-35.837, 15.903-62.058
			c-5.585-39.093-25.018-53.869-46.756-48.91c-74.304,15.602-184.946,46.531-184.946,46.531l 35.161-78.987l 0.526-1.227c0,0, 95.967-28.675, 158.099-51.514
			c 63.31-27.373, 91.459,25.319, 115.651,127.071c 12.697,58.727, 8.815,117.604-19.283,148.708c-1.177,1.327-2.404,2.605-3.631,3.782
			c-5.084,5.009-10.744,9.191-16.879,12.422c-15.076,7.989-32.682,10.543-51.514,8.49c-60.129-6.561-85.599-9.441-145.928-13.799
			c-21.763-1.252-41.497,4.984-53.042,17.155c-5.034,5.284-8.54,11.72-9.917,19.133C 79.839,322.566, 97.695,341.273, 137.188,354.321z" horiz-adv-x="450.783"  />
<glyph unicode="&#xe007;" d="M0,544l0-576 l 576,0 L 576,544 L0,544 z M 413.612,365.721c0,0-103.769-29.154-177.423-51.943c-23.202-7.68-33.703-18.668-30.927-32.994
	c 0.842-4.372, 2.865-8.138, 5.834-11.239c 6.779-7.148, 18.388-10.796, 31.148-10.073c 35.446,2.555, 50.378,4.254, 85.721,8.108
	c 11.077,1.211, 21.415-0.295, 30.262-4.977c 3.589-1.905, 6.912-4.357, 9.91-7.296c 0.738-0.724, 1.433-1.447, 2.142-2.23
	c 16.497-18.27, 18.786-52.844, 11.313-87.345c-14.193-59.756-30.72-90.668-67.909-74.629c-36.495,13.41-92.854,30.247-92.854,30.247l-0.31,0.724
	l-20.662,46.405c0,0, 64.985-18.166, 108.628-27.323c 12.761-2.91, 24.177,5.775, 27.456,28.726c 2.186,15.434-1.595,29.11-9.349,36.45
	c-3.81,3.618-8.537,5.701-14.016,5.686c-30.823,0.414-39.39,0.665-70.242,1.063c-21.105,0.34-40.172,7.842-45.282,10.338
	c-10.545,5.346-18.24,10.944-24.192,17.014c-7.311,7.444-11.963,15.596-15.966,24.886c-6.1,14.562-5.804,29.952, 4.889,48.517
	c 10.959,20.766, 35.106,31.473, 62.562,43.111c 46.996,19.924, 184.217,63.611, 197.701,67.894c 0.724,0.236, 1.078,0.34, 1.078,0.34L 413.612,365.721z"  />
<glyph unicode="&#xe008;" d="M 397.708,187.022l 113.298-113.298c 86.597,105.684, 86.668,258.569, 0.181,364.332L 397.866,324.733
		C 424.188,282.741, 424.133,228.967, 397.708,187.022zM 219.267,146.134L 105.945,32.812c 105.747-86.463, 258.592-86.408, 364.284,0.158L 356.923,146.252
		C 314.985,119.875, 261.244,119.827, 219.267,146.134zM 357.183,365.59L 470.442,478.857C 364.671,565.667, 211.55,565.714, 105.724,479.007l 113.298-113.298
		C 261.109,392.228, 315.119,392.188, 357.183,365.59zM 178.252,324.931L 64.954,438.229C-21.714,332.403-21.651,179.313, 65.143,73.558l 113.275,113.275
		C 151.819,228.865, 151.772,282.843, 178.252,324.931z"  />
<glyph unicode="&#xe009;" d="M 108.636,386.806l 100.007,0 c 24.42,0, 44.222,19.769, 44.287,44.167L 252.918,433.038 l-0.043,0 c-1.022,23.551-20.443,42.341-44.243,42.341
	c-5.217,0-10.205-0.913-14.846-2.554c-7.879,14.357-23.138,24.105-40.679,24.105c-24.964,0-45.308-19.714-46.33-44.439
	C 94.181,451.797, 83.487,443.993, 78.597,433.038c-1.815-4.086-2.847-8.607-2.847-13.368C 75.76,401.532, 90.475,386.806, 108.636,386.806z M 563.6,151.114
	c-3.173,73.337-63.61,131.806-137.718,131.806c-16.204,0-31.778-2.815-46.21-7.934c-24.529,44.722-72.033,75.032-126.633,75.032
	c-77.717,0-141.066-61.426-144.206-138.36c-39.201-2.174-72.511-26.42-87.704-60.534c-5.662-12.715-8.846-26.789-8.846-41.613
	c0-56.502, 45.808-102.311, 102.311-102.311L 425.87,7.179 c 76.010,0, 137.664,61.523, 137.86,137.501L 563.741,151.114 L 563.6,151.114 z"  />
<glyph unicode="&#xe00a;" d="M 90.389,256.011c0,8.586-6.977,15.552-15.563,15.552L 21.323,271.563 c-8.597,0-15.563-6.966-15.563-15.552c0-8.618, 6.977-15.563, 15.563-15.563
	l 53.503,0 C 83.422,240.459, 90.389,247.393, 90.389,256.011z M 288,453.622c 8.597,0, 15.563,6.966, 15.563,15.552L 303.563,522.688 
	c0,8.597-6.977,15.552-15.563,15.552c-8.607,0-15.552-6.966-15.552-15.552l0-53.514 C 272.448,460.589, 279.393,453.622, 288,453.622z M 126.264,116.271
	l-37.831-37.831c-6.075-6.075-6.075-15.932,0-22.008s 15.932-6.075, 21.986,0l 37.853,37.853c 6.075,6.064, 6.075,15.911,0,21.986
	S 132.339,122.357, 126.264,116.271z M 449.736,395.74l 37.853,37.842c 6.064,6.075, 6.064,15.922,0,21.997c-6.075,6.075-15.932,6.075-22.008,0
	l-37.853-37.842c-6.064-6.075-6.064-15.922, 0.022-22.008C 433.804,389.665, 443.65,389.665, 449.736,395.74z M 110.418,455.579
	c-6.064,6.075-15.911,6.075-21.986,0c-6.075-6.075-6.075-15.932,0-22.008l 37.831-37.842c 6.075-6.075, 15.932-6.075, 22.008,0
	c 6.075,6.075, 6.075,15.932,0,22.008L 110.418,455.579z M 554.699,271.563l-53.525,0 c-8.597,0-15.552-6.966-15.552-15.552
	c0-8.597, 6.955-15.563, 15.552-15.563l 53.525,0 c 8.597,0, 15.552,6.977, 15.552,15.563C 570.251,264.607, 563.295,271.563, 554.699,271.563z
	 M 449.736,116.271c-6.075,6.075-15.932,6.075-22.008,0c-6.064-6.075-6.064-15.932,0-21.986l 37.853-37.853c 6.075-6.075, 15.932-6.075, 21.986,0
	c 6.075,6.075, 6.075,15.932, 0.022,22.008L 449.736,116.271z M 288,383.046c-70.152,0-127.035-56.872-127.035-127.024
	c0-70.163, 56.883-127.046, 127.035-127.046c 70.163,0, 127.024,56.883, 127.024,127.046C 415.035,326.163, 358.174,383.046, 288,383.046z M 288,58.399
	c-8.607,0-15.552-6.977-15.552-15.552l0-53.525 c0-8.597, 6.955-15.563, 15.552-15.563c 8.597,0, 15.563,6.977, 15.563,15.563L 303.563,42.847 
	C 303.563,51.422, 296.607,58.399, 288,58.399z"  />
<glyph unicode="&#xe00b;" d="M 566.806,303.765c0,30.898-10.748,59.263-28.68,81.629L 392.549,385.394 c-2.087-11.368-5.119-22.442-8.999-33.115
	c 3.782,0.174, 7.673-0.109, 11.835-1.022c 12.607-2.728, 23.953-10.314, 37.19-10.314c 22.877,0, 39.179,16.378, 62.958,8.977
	c 10.944-3.391, 21.562-9.107, 33.267-8.944c 3.989-9.901, 6.358-20.399, 6.988-31.267c 0.109-1.978, 0.174-3.956, 0.174-5.945
	c0-55.024-44.765-99.789-99.768-99.789c-46.96,0-86.411,32.615-96.974,76.369c-7.771-8.249-16.204-15.856-25.224-22.768
	c 16.813-44.461, 57.154-77.347, 105.864-83.433l0-164.921 c-37.255-3.021-65.305-16.204-65.305-31.995l 163.258,0 c0,15.802-28.028,28.985-65.284,31.995l0,164.921 
	C 516.965,182.207, 566.806,237.166, 566.806,303.765z M 306.302,290.136c 11.064,9.868, 20.921,21.040, 29.235,33.365
	c 1.565,2.304, 3.043,4.651, 4.499,7.021c 0.598,0.956, 1.119,1.934, 1.685,2.913c 1.728,2.989, 3.391,5.999, 4.988,9.086
	c 2.684,5.282, 5.141,10.694, 7.314,16.269c 3.315,8.564, 5.956,17.476, 7.912,26.626c 0.337,1.532, 0.696,3.054, 1,4.597
	c 2.032,10.781, 3.086,21.899, 3.086,33.278c0,10.553-0.913,20.888-2.663,30.93c-0.891,5.021-1.989,9.966-3.282,14.835
	c-1.543,5.793-3.391,11.466-5.499,17.019c-6.673,17.758-16.095,34.18-27.746,48.71L 48.384,534.773 C 23.877,504.234, 9.194,465.479, 9.194,423.279
	c0-90.986, 68.098-166.062, 156.118-177.028l0-225.314 c-50.905-4.119-89.215-22.116-89.215-43.7l 223.032,0 c0,13.498-14.976,25.572-38.625,33.756
	c0,0-0.011,0-0.022,0c-2.25,0.782-4.597,1.522-6.999,2.239c-0.272,0.087-0.543,0.152-0.826,0.228c-12.542,3.608-27.039,6.206-42.754,7.477
	L 209.925,246.251 C 246.702,250.838, 280.001,266.661, 306.302,290.136z M 187.613,286.974c-75.152,0-136.295,61.132-136.295,136.295
	c0,2.956, 0.098,5.901, 0.283,8.825c 0.956,15.063, 4.336,29.604, 10.009,43.265C 70.294,476.891, 78.727,479.999, 87.552,483.15
	c 15.182,5.445, 28.289,8.477, 44.309,5.010c 17.215-3.728, 32.712-14.096, 50.797-14.096c 31.245,0, 53.525,22.366, 86.020,12.259
	c 14.933-4.651, 29.452-12.444, 45.45-12.205c 5.456-13.52, 8.683-27.865, 9.531-42.722c 0.174-2.695, 0.25-5.412, 0.25-8.118
	C 323.897,348.127, 262.754,286.974, 187.613,286.974z"  />
<glyph unicode="&#xe00c;" d="M 301.161,256.109c-46.297,72.641-47.243,161.215-10.183,232.53c-39.516-1.685-79.118-13.487-114.874-36.266
	C 67.696,383.318, 35.821,239.459, 104.875,131.051c 69.066-108.386, 212.935-140.272, 321.332-71.207c 35.745,22.768, 63.154,53.698, 81.379,88.78
	C 427.316,145.191, 347.437,183.457, 301.161,256.109z"  />
<glyph unicode="&#xe00d;" d="M 288,528.709c-150.608,0-272.698-122.101-272.698-272.709c0-150.608, 122.101-272.698, 272.698-272.698
	c 150.629,0, 272.709,122.101, 272.709,272.698C 560.709,406.608, 438.619,528.709, 288,528.709z M 288,133.279c-67.772,0-122.721,54.937-122.721,122.71
	c0,67.783, 54.948,122.721, 122.721,122.721c 67.783,0, 122.721-54.937, 122.721-122.721C 410.721,188.228, 355.772,133.279, 288,133.279z"  />
<glyph unicode="&#xe00e;" d="M 288,529.883c-116.135,0-210.273-94.149-210.273-210.273c0-116.146, 210.273-337.493, 210.273-337.493
	s 210.262,221.358, 210.262,337.493C 498.262,435.734, 404.124,529.883, 288,529.883z M 288,294.136c-30.571,0-55.361,24.79-55.361,55.361
	s 24.79,55.361, 55.361,55.361c 30.561,0, 55.361-24.79, 55.361-55.361S 318.561,294.136, 288,294.136z"  />
<glyph unicode="&#xe00f;" d="M 217.174,452.546C 215.5,447.395, 216.728,443.211, 221.901,443.211c 5.162,0, 12.313,4.184, 13.976,9.357c 9.053,27.365-18.291,54.731-9.238,82.096
	C 228.302,539.816, 227.085,544, 221.901,544c-5.162,0-12.313-4.184-13.976-9.357C 198.883,507.288, 226.205,479.923, 217.174,452.546z M 284.207,452.546
	c-1.652-5.173-0.456-9.357, 4.738-9.357c 5.162,0, 12.313,4.184, 13.987,9.357c 9.042,27.365-18.291,54.731-9.238,82.096
	C 295.347,539.816, 294.13,544, 288.946,544c-5.162,0-12.313-4.184-13.976-9.357C 265.927,507.288, 293.26,479.923, 284.207,452.546z M 351.251,452.546
	c-1.663-5.173-0.456-9.357, 4.738-9.357c 5.162,0, 12.313,4.184, 13.987,9.357c 9.042,27.365-18.291,54.731-9.249,82.096
	C 362.391,539.816, 361.163,544, 355.99,544c-5.162,0-12.313-4.184-13.976-9.357C 332.961,507.288, 360.293,479.923, 351.251,452.546z M 474.418,388.523L 101.561,388.523 
	l0-43.7 l 372.857,0 L 474.418,388.523 z M 287.989,68.8c 164.008,0, 183.733,41.418, 186.102,141.87c 14.063,0, 26.213,0, 26.213,0c 34.853,0, 63.099,28.246, 63.099,63.088
	c0,34.853-28.246,63.088-63.099,63.088c0,0-10.085,0-22.497,0l-3.369,0 l0-31.55 l 8.781,0 c 9.803,0, 17.084,0, 17.084,0c 17.421,0, 31.56-14.128, 31.56-31.55
	c0-17.421-14.139-31.55-31.56-31.55c0,0-11.976,0-25.887,0c 0.011,4.26, 0.011,8.586, 0.011,13.009l0,42.994 L 101.561,298.211 l0-42.994 l0,0 
	C 101.572,122.303, 101.572,68.8, 287.989,68.8z M0,18.395c0-27.811, 22.529-50.362, 50.329-50.395l 475.33,0 c 27.8,0.033, 50.329,22.584, 50.329,50.395L0,18.395 z"  />
<glyph unicode="&#xe010;" d="M 16.041,480.977l0-48.156 l-0.065-353.642l0-47.493 c0-0.054-0.011-0.12-0.011-0.174c0-0.065, 0.011-0.12, 0.011-0.185l0-0.315 
	c 0.272-26.018, 21.432-47.058, 47.536-47.058l 47.656,0 L 111.179,528.024 L 63.577,528.024 C 37.483,528.024, 16.313,507.016, 16.041,480.977z M 560.024,480.314
	c0,0.054, 0.011,0.12, 0.011,0.174s-0.011,0.12-0.011,0.174L 560.024,480.977 l-0.011,0 c-0.25,26.029-21.432,47.058-47.525,47.058L 464.81,528.024 l0-149.619 
	l-27.213,22.138l-27.202-22.138L 410.405,528.024 L 165.595,528.024 l0-544.059 l 346.839,0 c 26.083,0, 47.275,21.019, 47.525,47.058l 0.022,0 L 559.981,79.19 l 0.065,353.642l-0.011,0 L 560.035,480.314 z"  />
<glyph unicode="&#xe011;" d="M 216.489,310.807L 154.107,310.807 l0-62.393 l 62.393,0 L 216.5,310.807 z M 284.946,310.807l-62.382,0 l0-62.393 l 62.382,0 L 284.946,310.807 z M 216.489,242.339L 154.107,242.339 
		l0-62.382 l 62.393,0 L 216.5,242.339 z M 284.946,242.339l-62.382,0 l0-62.382 l 62.382,0 L 284.946,242.339 z M 216.489,173.882L 154.107,173.882 l0-62.404 l 62.393,0 L 216.5,173.882 z M 284.946,105.403l-62.382,0 
		l0-62.382 l 62.382,0 L 284.946,105.403 z M 284.946,173.882l-62.382,0 l0-62.404 l 62.382,0 L 284.946,173.882 z M 216.489,379.286L 154.107,379.286 L 154.107,316.893 l 62.393,0 L 216.5,379.286 z M 164.747,447.754
		c 8.336,0, 15.096,6.76, 15.096,15.096L 179.842,514.754 c0,8.336-6.76,15.096-15.096,15.096c-8.336,0-15.085-6.749-15.085-15.096l0-51.916 
		C 149.673,454.514, 156.411,447.754, 164.747,447.754z M 148.021,105.403l-62.404,0 l0-62.382 l 62.404,0 L 148.021,105.403 z M 411.242,447.754c 8.336,0, 15.096,6.76, 15.096,15.096L 426.338,514.754 
		c0,8.336-6.76,15.096-15.096,15.096s-15.085-6.749-15.085-15.096l0-51.916 C 396.158,454.514, 402.896,447.754, 411.242,447.754z M 216.489,105.403L 154.107,105.403 l0-62.382 
		l 62.393,0 L 216.5,105.403 z M 148.021,173.882l-62.404,0 l0-62.404 l 62.404,0 L 148.021,173.882 z M 148.021,379.286l-62.404,0 L 85.618,316.893 l 62.404,0 L 148.021,379.286 z M 148.021,310.807l-62.404,0 l0-62.393 l 62.404,0 
		L 148.021,310.807 z M 148.021,242.339l-62.404,0 l0-62.382 l 62.404,0 L 148.021,242.339 z M 353.425,105.403l-62.393,0 l0-62.382 l 62.393,0 L 353.425,105.403 z M 490.361,105.403l-62.382,0 l0-62.382 l 62.382,0 
		L 490.361,105.403 z M 284.946,379.286l-62.382,0 L 222.575,316.893 l 62.382,0 L 284.946,379.286 z M 421.904,310.807l-62.404,0 l0-62.393 l 62.404,0 L 421.904,310.807 z M 421.904,379.286l-62.404,0 L 359.5,316.893 l 62.404,0 L 421.904,379.286 z
		 M 490.361,242.339l-62.382,0 l0-62.382 l 62.382,0 L 490.361,242.339 z M 561.85,434.114c-0.25,26.213-21.584,47.373-47.841,47.373l-70.826,0 l0-18.66 
		c0-17.617-14.335-31.941-31.952-31.941s-31.93,14.324-31.93,31.941L 379.291,481.488 L 196.709,481.488 l0-18.66 c0-17.617-14.324-31.941-31.952-31.941
		c-17.617,0-31.93,14.324-31.93,31.941L 132.817,481.488 L 62.056,481.488 c-26.279,0-47.58-21.16-47.862-47.373l0-48.482 L 14.128,78.016l0-48.471 
		c 0.272-26.213, 21.584-47.373, 47.862-47.373l 451.954,0 c 26.279,0, 47.58,21.16, 47.841,47.373l 0.022,0 l0,48.471 l 0.065,307.617l0,48.482 L 561.85,434.114 z
		 M 496.447,36.935L 79.542,36.935 l0,348.447 l 416.894,0 L 496.436,36.935 z M 490.361,379.286l-62.382,0 L 427.979,316.893 l 62.382,0 L 490.361,379.286 z M 490.361,310.807l-62.382,0 l0-62.393 l 62.382,0 L 490.361,310.807 z
		 M 490.361,173.882l-62.382,0 l0-62.404 l 62.382,0 L 490.361,173.882 z M 353.425,310.807l-62.393,0 l0-62.393 l 62.393,0 L 353.425,310.807 z M 353.425,242.339l-62.393,0 l0-62.382 l 62.393,0 L 353.425,242.339 z
		 M 353.425,173.882l-62.393,0 l0-62.404 l 62.393,0 L 353.425,173.882 z M 421.904,173.882l-62.404,0 l0-62.404 l 62.404,0 L 421.904,173.882 z M 421.904,242.339l-62.404,0 l0-62.382 l 62.404,0 L 421.904,242.339 z
		 M 421.904,105.403l-62.404,0 l0-62.382 l 62.404,0 L 421.904,105.403 z M 353.425,379.286l-62.393,0 L 291.043,316.893 l 62.393,0 L 353.425,379.286 z"  />
<glyph unicode="&#xe012;" d="M 176.633,456.825L 176.766,225.25l 45.57,0 L 222.159,456.825l 31.99-31.99l 32.19,32.19l-54.764,54.764L 199.362,544l-32.145-32.19L 112.431,457.046
	l 32.19-32.19L 176.633,456.825z M 404.684-5.371L 404.684,352.702 c0,0.089,0,0.222,0,0.222c0,0.177,0,0.266,0,0.266
	c-0.133,13.758-10.9,24.834-24.436,25.455c-0.399,0-0.798,0.044-1.241,0.044c-0.399,0-0.798-0.044-1.196-0.044l-96.281,0 l0-45.526 l 77.649,0 
	l0-319.614 L 39.589,13.482 l0,235.695 L 39.545,249.199 L 39.545,333.14 l 77.605,0 L 117.15,378.622 L 19.739,378.622 C 5.561,378.622,-5.937,367.124,-5.937,352.967l0-359.291 c0-5.295, 1.617-10.279, 4.364-14.334
	l 0.399-0.51c 0.354-0.51, 0.665-0.975, 1.063-1.44c 0.31-0.354, 0.576-0.665, 0.93-1.019c 0.222-0.266, 0.465-0.51, 0.709-0.753
	c 0.443-0.465, 0.93-0.886, 1.396-1.329c 0.133-0.133, 0.266-0.222, 0.399-0.354c 0.576-0.51, 1.241-0.975, 1.861-1.44l 0.044,0 
	c 4.098-2.836, 9.127-4.497, 14.511-4.497l 359.291,0 c 5.893,0, 11.321,1.994, 15.663,5.339c 0.177,0.089, 0.354,0.222, 0.465,0.354
	c 0.399,0.31, 0.709,0.576, 1.063,0.886c 0.266,0.266, 0.51,0.465, 0.753,0.709s 0.51,0.51, 0.753,0.798
	c 0.31,0.31, 0.62,0.62, 0.93,0.975c 0.177,0.266, 0.354,0.465, 0.51,0.665c 0.354,0.443, 0.665,0.842, 0.975,1.285
	c 0.133,0.222, 0.266,0.443, 0.399,0.576c 0.31,0.51, 0.62,1.019, 0.93,1.529l 0.266,0.51c 0.31,0.554, 0.576,1.108, 0.842,1.684
	c 0.044,0.177, 0.089,0.31, 0.177,0.465c 0.266,0.576, 0.51,1.241, 0.665,1.861c 0.089,0.133, 0.089,0.31, 0.133,0.443
	c 0.222,0.62, 0.399,1.329, 0.554,1.994l 0.089,0.399c 0.133,0.709, 0.266,1.44, 0.354,2.171c0,0.089, 0.044,0.222, 0.044,0.354
	c 0.044,0.51, 0.133,0.975, 0.133,1.44c 0.044,0.443, 0.044,0.798, 0.044,1.241C 404.729-5.991, 404.729-5.703, 404.684-5.371z" horiz-adv-x="398.769"  />
<glyph unicode="&#xe013;" d="M 288,544C 128.944,544,0,415.056,0,256c0-159.056, 128.944-288, 288-288
	c 159.056,0, 288,128.944, 288,288C 576,415.056, 447.056,544, 288,544z M 398.528,185.984l-13.248-24.336
	c-3.488-6.384-11.472-8.752-17.856-5.28l-112.112,61.040c-0.448,0.24-0.848,0.48-1.264,0.752l-0.112,0.080
	c-0.32,0.24-0.624,0.448-0.912,0.704c-0.128,0.112-0.256,0.224-0.368,0.336c-0.192,0.176-0.384,0.336-0.56,0.528
	c-0.144,0.128-0.272,0.288-0.4,0.432c-0.16,0.16-0.32,0.336-0.464,0.512c-0.112,0.144-0.224,0.304-0.32,0.448
	c-0.16,0.192-0.304,0.384-0.448,0.608c-0.080,0.112-0.16,0.24-0.224,0.352c-0.16,0.256-0.304,0.512-0.432,0.752
	c0,0-0.096,0.192-0.144,0.288c-0.144,0.304-0.288,0.592-0.416,0.896l-0.064,0.192c-0.128,0.336-0.256,0.672-0.352,1.008
	c0,0-0.016,0.112-0.032,0.16c-0.096,0.352-0.192,0.72-0.256,1.056c0,0-0.032,0.192-0.048,0.288
	c-0.048,0.336-0.112,0.656-0.144,0.976c-0.032,0.288-0.032,0.56-0.048,0.848c0,0.128-0.016,0.288-0.016,0.416L 248.32,418.944 
	c0,7.264, 5.888,13.168, 13.168,13.168l 27.712,0 c 7.28,0, 13.168-5.904, 13.168-13.168l0-165.6 l 90.896-49.472
	C 399.648,200.368, 402.016,192.368, 398.528,185.984z"  />
<glyph unicode="&#xe014;" d="M 343.786,545.814C 226.656,545.814, 125.539,475.974, 79.891,375.693l 26.669-23.558l 25.402-22.435c 30.586,87.552, 113.962,150.538, 211.824,150.538
	c 123.667,0, 224.294-100.598, 224.294-224.294c0-123.667-100.627-224.294-224.294-224.294c-113.386,0-207.36,84.586-222.221,193.939l 19.123-16.906l 0.317-0.259
	c 1.584-1.325, 3.571-2.102, 5.731-2.102c 0.202,0, 0.374,0, 0.576,0c 2.304,0.173, 4.349,1.181, 5.846,2.736l 0.547,0.576l 19.44,22.032
	l 0.576,0.576c 1.354,1.699, 2.102,3.83, 1.93,6.134c-0.144,2.448-1.267,4.579-2.938,6.106L 172.541,244.595L 121.939,289.264L 118.080,292.691
	l-35.971,31.738L 56.707,295.686L 50.342,288.486l-48.067-54.461l-0.058-0.058C 0.691,232.269-0.144,229.994,0,227.546
	c 0.144-2.304, 1.181-4.32, 2.707-5.818l 0.605-0.576l 22.032-19.44l 0.576-0.547c 1.555-1.238, 3.485-1.958, 5.558-1.958
	c 0.202,0, 0.374,0, 0.576,0.029c 2.39,0.144, 4.464,1.21, 5.99,2.851l 0.259,0.317l 2.995,3.398l 14.602,16.531l0,0.029 
	c 16.733-144, 139.421-256.147, 287.856-256.147c 159.84,0, 289.814,130.003, 289.814,289.814S 503.597,545.814, 343.786,545.814z" horiz-adv-x="633.6"  />
<glyph unicode="&#xe015;" d="M 288,544C 128.937,544,0,415.055,0,255.992c0-159.055, 128.937-287.992, 288-287.992c 159.063,0, 288,128.937, 288,287.992
		C 576,415.055, 447.063,544, 288,544z M 309.817,64.413L 252.469,64.413 L 252.469,121.76 l 57.348,0 L 309.817,64.413 z M 306.030,169.371c0-7.030, 0.537-14.069, 2.17-21.099
		l-53.031,0 c-2.162,6.494-3.243,13.524-3.243,23.261c0,82.778, 64.922,90.345, 64.922,184.494c0,27.056-10.818,37.33-29.755,37.33
		c-18.937,0-29.755-10.273-29.755-37.33l0-41.117 l-56.267,0 l0,37.33 c0,60.598, 29.763,95.229, 87.655,95.229c 57.892,0, 87.647-34.623, 87.647-95.229
		C 376.365,253.767, 306.030,238.617, 306.030,169.371z"  />
<glyph unicode="&#xe016;" d="M 305.438,544L 16.53,544 C 7.733,544, 0.529,536.796, 0.529,527.998l0-543.989 c0-8.798, 7.204-16.002, 16.002-16.002l 393.006,0 c 8.806,0, 16.010,7.204, 16.010,16.002L 425.554,423.884 
	l-120.116,0 L 305.438,544 z M 45.094,420.113c0,4.419, 3.582,7.993, 7.993,7.993l 185.464,0 c 4.419,0, 7.993-3.582, 7.993-7.993s-3.582-8.001-7.993-8.001L 53.095,412.112 
	C 48.668,412.104, 45.094,415.694, 45.094,420.113z M 369.618,28.070c-14.968-3.598-30.347-5.886-45.038-10.605
	c-7.638-2.462-15.157-5.216-22.59-8.238c-5.539-2.257-10.755-5.255-16.672-6.289c-3.44-0.6-5.216,3.519-2.351,5.555
	c 11.93,8.459, 24.878,15.292, 37.685,22.29c 1.744,0.947, 3.488,1.862, 5.247,2.77c-1.42,1.618-2.738,3.006-4.221,1.476
	c-2.351-2.446-4.434-5.673-7.385-7.425c-2.754-1.625-5.744-2.115-8.632-0.458c-4.466,2.564-9.129-5.657-13.043-7.733
	c-2.438-1.302-5.981-0.844-8.277,0.734c-2.083-4.458-4.876-8.482-9.263-11.031c-1.128-0.655-2.77-0.529-3.677,0.481
	c-5.129,5.728-1.436,20.263, 7.251,20.839c 1.12,0.079, 2.146-0.189, 3.117-0.623c 0.813,2.596, 1.499,5.176, 2.217,7.472
	c 3.14,10.021, 5.089,20.302, 7.093,30.599c 0.75,3.835, 6.612,2.209, 5.855-1.618c-2.462-12.68-5.152-25.155-9.287-37.416
	c-0.245-0.726-0.489-1.468-0.75-2.201c 2.075-1.152, 4.15-1.499, 6.66,1.215c 2.478,2.675, 6.241,7.157, 10.4,6.557
	c 2.47-0.363, 5.255-3.488, 7.654-1.231c 1.736,1.618, 3.18,3.472, 4.821,5.168c 2.075,2.146, 5.421,5.223, 8.766,4.048
	c 3.866-1.357, 4.971-4.616, 7.464-5.342c 5.523,2.848, 10.991,5.776, 16.191,9.184c 1.76,1.333, 3.551,2.62, 5.429,3.787
	c 3.417,2.138, 6.068-2.935, 3.061-5.247c-1.191-0.915-2.43-1.791-3.661-2.628c-6.155-4.813-13.469-11.78-21.028-11.891
	c-2.998-1.539-5.997-3.101-8.948-4.726c-3.030-1.665-6.044-3.322-9.066-4.979c 3.693,1.333, 7.417,2.572, 11.181,3.637
	c 13.887,3.953, 28.129,6.36, 42.151,9.729C 371.812,34.848, 373.429,28.993, 369.618,28.070z M 370.676,103.218L 55.399,103.218 
	c-3.093,0-5.602,2.509-5.602,5.602c0,3.101, 2.509,5.61, 5.602,5.61l 315.277,0 c 3.093,0, 5.602-2.509, 5.602-5.61
	C 376.278,105.719, 373.769,103.218, 370.676,103.218z M 370.676,153.425L 55.399,153.425 c-3.093,0-5.602,2.501-5.602,5.602s 2.509,5.61, 5.602,5.61l 315.277,0 
	c 3.093,0, 5.602-2.509, 5.602-5.61S 373.769,153.425, 370.676,153.425z M 370.676,203.623L 55.399,203.623 c-3.093,0-5.602,2.509-5.602,5.61
	s 2.509,5.61, 5.602,5.61l 315.277,0 c 3.093,0, 5.602-2.509, 5.602-5.61S 373.769,203.623, 370.676,203.623z M 370.676,253.83L 55.399,253.83 
	c-3.093,0-5.602,2.509-5.602,5.61c0,3.093, 2.509,5.602, 5.602,5.602l 315.277,0 c 3.093,0, 5.602-2.509, 5.602-5.602
	C 376.278,256.347, 373.769,253.83, 370.676,253.83z M 370.676,315.241c 3.093,0, 5.602-2.509, 5.602-5.602c0-3.101-2.509-5.61-5.602-5.61L 55.399,304.037 
	c-3.093,0-5.602,2.509-5.602,5.61c0,3.093, 2.509,5.602, 5.602,5.602L 370.676,315.241 z M 320.927,544l0-104.619 l 104.619,0 L 320.927,544z" horiz-adv-x="426.082"  />
<glyph unicode="&#xe017;" d="M 576,256L 576,293.706 L 576,294.060 c0,0.089,0,0.222,0,0.222c-0.177,12.495-10.191,22.42-22.641,22.42l0,0l-0.089,0 L 416.359,316.702 l0,0L 348.746,316.702 L 348.746,384.315 
	l0,0L 348.746,521.27 L 348.746,521.314 L 348.746,521.359 c0,12.406-10.014,22.42-22.331,22.597c0,0-0.222,0.044-0.354,0.044L 325.75,543.956L 288,543.956 L 250.25,543.956 L 249.94,544L 249.585,543.956
	c-12.362-0.177-22.331-10.191-22.331-22.597l0-0.044 l0-0.044 l0-136.999 l0,0l0-67.569 L 159.685,316.702 l0,0L 22.73,316.702 L 22.686,316.702 L 22.641,316.702 C 10.235,316.702, 0.222,306.777,0,294.415
	c0,0,0-0.266,0-0.354l0-0.399l0-37.75 l0-37.75 c0-0.133,0-0.266,0-0.354c0,0,0-0.266,0-0.399c 0.177-12.362, 10.235-22.287, 22.641-22.287l 0.044,0 
	l 0.044,0 l 136.999,0 l0,0L 227.254,195.21 l0-67.569 l0,0l0-136.999 l0-0.044 l0-0.044 c0-12.406, 10.014-22.42, 22.331-22.597l 0.222-0.044c 0.222,0, 0.354,0.044, 0.354,0.044
	l 37.839,0 l 37.75,0 l 0.354-0.044c 0.133,0, 0.222,0.044, 0.222,0.044c 12.45,0.177, 22.42,10.191, 22.464,22.597l0,0.044 l0,0.044 L 348.702,127.685 l0,0L 348.702,195.298 
	l 67.569,0 l0,0l 136.955,0 l 0.089,0 l0,0c 12.45,0, 22.464,9.969, 22.641,22.287c0,0.133,0,0.266,0,0.266c0,0.222,0,0.354,0,0.443L 575.956,256 z"  />
<glyph unicode="&#xe018;" d="M 177.959,475.381L 26.296,404.658l 154.093-330.424l 151.638,70.698L 177.959,475.381z M 154.819,525.017C 147.13,541.471, 127.597,548.583, 111.143,540.895
	L 19.058,497.97C 2.605,490.307-4.508,470.748, 3.155,454.319l 4.633-9.917l 151.663,70.698L 154.819,525.017z M 198.895,34.566l 123.339-66.541l 28.299,137.238
	L 198.895,34.566z" horiz-adv-x="350.609"  />
<glyph unicode="&#xe019;" d="M 281.993,544L 3.662,414.194l 208.059-446.215l 278.331,129.785L 281.993,544z M 257.513,454.679L 276.727,413.454l-169.653-79.118L 87.819,375.541
	L 257.513,454.679z M 106.395,264.99l 223.879,104.379l 15.017-32.215L 121.413,232.795L 106.395,264.99z M 133.2,207.493l 223.879,104.4l 15.017-32.215L 148.217,175.298
	L 133.2,207.493z M 175.022,117.801l-15.017,32.215l 223.879,104.379l 15.017-32.215L 175.022,117.801z" horiz-adv-x="493.714"  />
<glyph unicode="&#xe01a;" d="M 451.56,223.96l0,64.512 L 123.384,288.28l 45.432,45.288L 123.192,379.168l-77.568-77.568L0,256.024l 45.624-45.648l 77.568-77.568
	l 45.624,45.648L 123.384,223.768L 451.56,223.96z M 808.464,532.648c-0.168,0.216-0.336,0.48-0.504,0.672c-0.432,0.504-0.888,0.984-1.32,1.464
	c-0.36,0.384-0.672,0.768-1.032,1.152c-0.36,0.36-0.744,0.696-1.128,1.032c-0.48,0.48-0.936,0.912-1.416,1.344L 802.128,539.056
	c-0.576,0.48-1.2,0.936-1.776,1.368L 799.512,540.952c-0.696,0.456-1.392,0.888-2.136,1.32c-0.24,0.144-0.504,0.264-0.744,0.384
	c-0.792,0.432-1.56,0.84-2.4,1.2c-0.216,0.096-0.456,0.168-0.672,0.264c-0.864,0.384-1.704,0.696-2.616,1.008
	c-0.216,0.072-0.408,0.12-0.6,0.192c-0.936,0.288-1.872,0.528-2.832,0.768c-0.192,0.024-0.384,0.048-0.576,0.096
	c-0.984,0.216-1.968,0.384-3,0.504c-0.168,0.024-0.36,0.024-0.528,0.048c-0.648,0.072-1.368,0.168-2.016,0.216
	C 780.768,546.88, 780.216,546.904, 779.64,546.904c-0.48,0-0.912-0.024-1.392-0.048L 270.192,546.856 c-19.32-0.216-35.016-15.456-35.904-34.632
	C 234.264,511.696, 234.24,511.096, 234.24,510.52s 0.024-1.176, 0.048-1.704l0-136.344 l 64.464,0 L 298.728,482.392 l 452.808,0 l0-452.808 L 417.696,29.584 l0-0.024 l-118.968,0 l0,109.944 L 234.264,139.528 l0-138.048 
	c0-20.088, 16.272-36.36, 36.36-36.36l 509.040,0 c 7.512,0, 14.52,2.304, 20.328,6.24c 0.264,0.168, 0.504,0.36, 0.744,0.528
	c 0.672,0.504, 1.392,0.984, 2.016,1.488c 0.504,0.432, 0.96,0.864, 1.416,1.296c 0.384,0.36, 0.768,0.672, 1.152,1.032
	c 0.624,0.648, 1.248,1.344, 1.824,2.016c 0.168,0.168, 0.336,0.336, 0.48,0.504c 0.72,0.864, 1.416,1.752, 2.040,2.688
	c 0.024,0, 0.024,0.024, 0.024,0.048c 4.032,5.856, 6.384,12.912, 6.384,20.544L 816.048,510.52 C 816,518.848, 813.168,526.528, 808.464,532.648z" horiz-adv-x="816"  />
<glyph unicode="&#xe01b;" d="M 780.387,302.582l 26.515,0 L 806.902,329.542 c0,27.89, 9.513,45.671, 28.41,53.234C 843.153,385.972, 851.662,387.495, 860.767,387.495l 41.026,0 l0-45.077 l-24.378,0 
		c-6.931,0-11.409-1.486-13.508-4.292S 860.767,330.155, 860.767,323.095l0-20.513 l 41.658,0 l-4.942-45.337L 860.767,257.245 l0-130.585 L 806.902,126.623 L 806.902,257.245 L 780.387,257.245 L 780.387,302.582 zM 917.884,177.478c0,21.349, 7.544,35.452, 22.501,42.513c 6.020,4.125, 21.479,6.169, 46.507,6.169l 25.474,0 l0,5.927 
		c0,12.282-1.728,19.361-5.314,21.033c-4.125,2.936-10.87,4.292-20.513,4.292l-50.855,0 l 4.942,45.17l 54.516,0 c 7.581,0, 14.419-0.353, 20.717-1.189
		s 11.631-1.821, 16.277-3.029s 8.789-2.954, 12.319-5.24s 6.596-4.459, 8.993-6.708c 2.397-2.248, 4.459-4.942, 6.262-8.361
		s 2.991-6.466, 3.958-9.29c 0.966-2.843, 1.654-6.262, 2.118-10.591c 0.465-4.292, 0.818-7.953, 0.91-11.111
		c 0.13-3.159, 0.204-7.098, 0.204-11.873l0-108.492 l-44.891,0 c-0.242,0.316-0.334,0.892-0.446,1.654c-0.13,0.242-0.26,0.427-0.316,0.725
		c-0.13,0.316-0.223,0.427-0.297,0.557c-0.037,0.13-0.093,0.242-0.093,0.316c-0.539,1.282-1.041,3.865-1.654,7.711
		c-16.723-8.64-32.869-12.858-48.551-12.858L 966.045,124.709 c-16.147,0-28.986,6.262-38.555,18.785c-6.392,9.922-9.569,20.773-9.569,32.721L 917.884,177.478 z
		 M 987.153,162.967c 6.262,0, 14.604,2.378, 25.010,7.284l0,19.863 l-18.135,0 c-10.684,0-17.057-1.041-19.212-3.214
		c-1.821-1.821-2.769-4.942-2.769-9.402C 972.177,167.835, 977.23,162.967, 987.153,162.967zM 1088.882,220.92c0,25.233, 3.27,42.382, 9.829,51.524c 12.858,21.851, 36.028,32.721, 69.436,32.721
		c 18.413,0, 37.068-2.248, 55.835-6.615l0-44.519 c-20.717,3.976-37.254,6.002-49.573,6.002c-12.858,0-21.423-2.248-25.827-6.596
		c-3.623-2.304-5.518-11.539-5.518-27.704l0-22.427 c0-14.846, 1.654-23.486, 4.887-26.050c 4.125-4.998, 12.598-7.581, 25.474-7.581l 4.051,0 
		c 8.473,0, 23.913,2.1, 46.173,6.262l 0.316,0 l0-43.869 c0-1.041-9.662-3.029-29.060-6.002c-7.953-1.041-16.853-1.654-26.756-1.654
		c-37.254,0-61.651,13.508-73.319,40.654c-3.995,8.231-5.983,22.891-5.983,43.869L 1088.882,220.92 zM 1247.727,238.386c0,31.104, 12.858,51.766, 38.629,61.818c 11.539,3.735, 23.95,5.593, 37.068,5.593
		c 36.381,0, 60.053-12.040, 70.997-35.954c 4.236-9.235, 6.262-22.613, 6.262-40.041l0-31.624 L 1302.002,198.158 l0-5.147 c0-11.539, 3.623-18.599, 10.851-21.052
		c 6.317-1.598, 12.858-2.304, 19.51-2.304l 4.292,0 c 19.528,0, 39.354,2.025, 59.439,6.094l 0.316,0 l0-44.036 c0-0.632-9.253-2.378-27.778-5.314
		c-11.594-1.263-24.898-1.914-39.893-1.914c-38.592,0-63.62,13.062-74.843,39.242c-4.218,10.219-6.262,21.015-6.262,32.46L 1247.727,238.386 z
		 M 1346.242,233.517l0,2.843 c0,11.873-2.638,18.822-7.915,21.052c-4.125,2.601-8.9,3.883-14.511,3.883c-7.581,0-13.044-1.654-16.555-4.887
		c-3.549-3.196-5.24-8.231-5.24-14.939l0-7.953 L 1346.242,233.536 zM 1423.426,374.303l 54.088,9.569l0-84.895 c 13.229,4.366, 26.254,6.615, 39.112,6.615c 31.253,0, 50.614-8.231, 58.343-24.564
		c 4.088-6.689, 6.169-23.727, 6.169-51.115l0-17.559 c0-28.689-2.081-46.489-6.169-53.085c-1.282-4.366-5.147-9.829-11.594-16.277
		c-13.229-12.207-35.879-18.413-67.782-18.413c-22.613,0-46.582,2.397-72.037,7.284L 1423.426,374.303 z M 1493.679,168.95l 4.236,0 
		c 15.701,0, 24.824,5.035, 27.406,15.199c 0.985,2.954, 1.486,6.429, 1.486,10.684l0,44.891 c0,10.925-5.091,17.559-15.385,19.863l-8.231,0 
		c-8.993,0-17.484-2.397-25.474-7.284l0-82.331 L 1493.679,168.95zM 1596.152,234.484c0,34.449, 14.846,56.392, 44.519,66.036c 11.446,3.363, 22.018,4.942, 31.791,4.942l 5.147,0 
		c 37.143,0, 61-14.177, 71.777-42.345c 2.936-8.882, 4.292-19.491, 4.292-32.107l0-32.479 c0-33.835-12.207-56.002-36.548-66.686
		c-12.245-5.035-26.682-7.581-43.014-7.581c-35.879,0-59.347,11.78-70.476,35.322c-4.998,9.569-7.581,21.554-7.581,35.954L 1596.152,234.484 z
		 M 1674.246,169.6l 1.319,0 c 12.858,0, 20.773,5.574, 23.616,16.574c0,1.654, 0.037,3.196, 0.186,4.868c 0.13,1.654, 0.204,3.66, 0.204,6.262l0,35.916 
		c0,14.084-3.995,22.167-12.022,24.471c-2.304,1.282-5.909,1.914-10.702,1.914l-4.255,0 c-9.662,0-16.574-3.902-20.606-11.706
		c-1.041-3.084-1.654-6.931-1.654-11.278l0-44.036 C 1650.426,177.125, 1658.36,169.6, 1674.246,169.6zM 1763.099,234.484c0,34.449, 14.846,56.392, 44.519,66.036c 11.446,3.363, 22.018,4.942, 31.791,4.942l 5.147,0 
		c 37.143,0, 61-14.177, 71.777-42.345c 2.936-8.882, 4.292-19.491, 4.292-32.107l0-32.479 c0-33.835-12.207-56.002-36.548-66.686
		c-12.245-5.035-26.682-7.581-43.014-7.581c-35.879,0-59.347,11.78-70.476,35.322c-4.998,9.569-7.581,21.554-7.581,35.954L 1763.117,234.484 z
		 M 1841.212,169.6l 1.319,0 c 12.858,0, 20.773,5.574, 23.616,16.574c0,1.654, 0.037,3.196, 0.186,4.868c 0.13,1.654, 0.204,3.66, 0.204,6.262l0,35.916 
		c0,14.084-3.995,22.167-12.022,24.471c-2.304,1.282-5.909,1.914-10.702,1.914l-4.255,0 c-9.662,0-16.574-3.902-20.606-11.706
		c-1.041-3.084-1.654-6.931-1.654-11.278l0-44.036 C 1817.373,177.125, 1825.307,169.6, 1841.212,169.6zM 1937.33,374.303l 54.274,9.569l0-158.66 l 0.316,0 l 49.183,77.834l 58.399,0 l-53.902-85.397l 53.902-90.859l-58.399,0 l-49.183,82.089
		l-0.316,0 l0-82.089 l-54.274,0 L 1937.33,374.303 z" horiz-adv-x="2880"  />
<glyph unicode="&#xe01c;" d="M 794.314,213.122c-1.289-1.298-1.923-3.505-1.923-6.619c0-6.863, 3.544-10.28, 10.632-10.28
	c 4.413,0, 10.319,1.708, 17.7,5.145l0,14.058 l-12.799,0 C 800.386,215.387, 795.827,214.635, 794.314,213.122z M 1785.698,434.404L 449.983,434.404 C 440.084,434.404, 432,426.311, 432,416.421l0-320.832 
	c0-9.89, 8.084-17.963, 17.963-17.963l 1335.724,0 c 9.89,0, 17.963,8.084, 17.963,17.963L 1803.661,416.421 C 1803.661,426.311, 1795.577,434.404, 1785.698,434.404z M 739.486,262.922l-25.93,0 l0-92.394 l-38.143,0 L 675.423,262.922 l-18.725,0 l0,32.1 
	l 18.725,0 l0,19.076 c0,19.721, 6.697,32.285, 20.101,37.694c 5.565,2.216, 11.579,3.319, 18.051,3.319l 29.005,0 l0-31.865 l-17.241,0 
	c-4.852,0-8.054-1.025-9.538-3.085s-2.226-5.594-2.226-10.632l0-14.498 l 29.464,0 L 739.486,262.922z M 859.431,170.518l-31.748,0 
	c-0.156,0.225-0.264,0.615-0.342,1.132c-0.078,0.156-0.156,0.332-0.225,0.517c-0.078,0.185-0.127,0.332-0.156,0.4
	c-0.029,0.078-0.059,0.156-0.059,0.234c-0.4,0.898-0.761,2.734-1.132,5.457c-11.793-6.092-23.265-9.128-34.394-9.128l-3.319,0 
	c-11.422,0-20.502,4.423-27.238,13.258c-4.54,6.99-6.805,14.722-6.805,23.186l0,0.898 c0,15.093, 5.311,25.090, 15.933,30.040
	c 4.247,2.89, 15.22,4.354, 32.891,4.354l 18.041,0 l0,4.217 c0,8.728-1.25,13.678-3.768,14.908c-2.9,2.040-7.732,3.065-14.498,3.065l-35.976,0 
	l 3.505,31.973l 38.602,0 c 5.33,0, 10.212-0.293, 14.615-0.869s 8.259-1.289, 11.54-2.167s 6.19-2.109, 8.738-3.71s 4.667-3.192, 6.385-4.735
	c 1.708-1.552, 3.192-3.544, 4.403-5.936s 2.167-4.588, 2.802-6.57c 0.644-1.982, 1.132-4.481, 1.484-7.478
	c 0.342-3.007, 0.547-5.643, 0.635-7.888c 0.078-2.245, 0.107-5.038, 0.107-8.386L 859.431,170.518 z M 970.531,260.628
	c-14.615,2.821-26.311,4.227-35.068,4.227c-9.060,0-15.152-1.552-18.276-4.667c-2.587-1.611-3.876-8.132-3.876-19.604l0-15.825 
	c0-10.475, 1.132-16.645, 3.427-18.491c 2.89-3.563, 8.913-5.379, 18.051-5.379l 2.851,0 c 6.014,0, 16.909,1.484, 32.656,4.432l 0.225,0 l0-31.026 
	c0-0.761-6.863-2.177-20.57-4.247c-5.633-0.761-11.95-1.132-18.94-1.132c-26.35,0-43.63,9.607-51.85,28.78
	c-2.821,5.867-4.217,16.196-4.217,31.065l0,8.445 c0,17.836, 2.324,29.962, 6.961,36.425c 9.128,15.454, 25.51,23.186, 49.106,23.186
	c 13.023,0, 26.193-1.552, 39.519-4.667L 970.531,260.628 z M 1095.591,221.059L 1025.71,221.059 l0-3.641 c0-8.152, 2.548-13.141, 7.654-14.908
	c 4.481-1.113, 9.099-1.66, 13.824-1.66l 3.085,0 c 13.853,0, 27.882,1.435, 42.028,4.296l 0.225,0 l0-31.182 c0-0.449-6.551-1.689-19.652-3.749
	c-8.22-0.898-17.631-1.367-28.195-1.367c-27.326,0-44.957,9.245-52.885,27.746c-2.958,7.224-4.432,14.878-4.432,22.952L 987.342,249.547 
	c0,22.005, 9.118,36.561, 27.355,43.737c 8.181,2.665, 16.909,3.993, 26.193,3.993c 25.744,0, 42.468-8.494, 50.249-25.471
	c 2.968-6.541, 4.452-15.982, 4.452-28.351L 1095.591,221.059 z M 1223.043,231.047c0-20.336-1.445-32.842-4.335-37.567
	c-0.898-3.124-3.641-6.971-8.22-11.54c-9.362-8.679-25.354-13.023-47.954-13.023c-15.982,0-32.969,1.689-50.932,5.145L 1111.582,345.71 l 38.26,6.736
	L 1149.852,292.376 c 9.362,3.124, 18.569,4.667, 27.648,4.667c 22.073,0, 35.819-5.78, 41.228-17.358c 2.88-4.725, 4.335-16.792, 4.335-36.19L 1223.043,231.047 z
	 M 1345.233,221.45c0-23.909-8.63-39.646-25.822-47.164c-8.689-3.583-18.832-5.379-30.411-5.379c-25.354,0-41.97,8.337-49.878,25.012
	c-3.563,6.756-5.36,15.269-5.36,25.451l0,27.404 c0,24.358, 10.495,39.91, 31.495,46.715c 8.074,2.343, 15.562,3.544, 22.474,3.544l 3.641,0 
	c 26.242,0, 43.18-9.968, 50.766-29.913c 2.060-6.248, 3.085-13.824, 3.085-22.708L 1345.243,221.45 z M 1463.333,221.45c0-23.909-8.63-39.646-25.822-47.164
	c-8.689-3.583-18.832-5.379-30.411-5.379c-25.354,0-41.97,8.337-49.878,25.012c-3.563,6.756-5.36,15.269-5.36,25.451l0,27.404 
	c0,24.358, 10.495,39.91, 31.495,46.715c 8.074,2.343, 15.562,3.544, 22.474,3.544l 3.641,0 c 26.242,0, 43.18-9.968, 50.766-29.913
	c 2.060-6.248, 3.085-13.824, 3.085-22.708L 1463.333,221.45 z M 1589.867,170.518l-41.345,0 l-34.833,58.020l-0.225,0 l0-58.020 l-38.377,0 L 1475.097,345.71 l 38.377,6.736l0-112.261 
	l 0.225,0 l 34.833,55.042l 41.345,0 l-38.143-60.431L 1589.867,170.518z M 1416.472,263.156c-1.679,0.898-4.217,1.367-7.547,1.367l-2.978,0 
	c-6.863,0-11.735-2.773-14.556-8.308c-0.761-2.216-1.132-4.852-1.132-7.966l0-31.182 c0-10.759, 5.614-16.167, 16.86-16.167l 0.898,0 
	c 9.099,0, 14.664,3.905, 16.724,11.725c0,1.132, 0.029,2.275, 0.107,3.427c 0.078,1.132, 0.107,2.636, 0.107,4.432l0,25.373 
	C 1424.956,255.785, 1422.144,261.545, 1416.472,263.156z M 1298.382,263.156c-1.679,0.898-4.217,1.367-7.547,1.367l-2.978,0 
	c-6.863,0-11.735-2.773-14.556-8.308c-0.761-2.216-1.132-4.852-1.132-7.966l0-31.182 c0-10.759, 5.614-16.167, 16.86-16.167l 0.898,0 
	c 9.099,0, 14.664,3.905, 16.724,11.725c0,1.132, 0.029,2.275, 0.107,3.427c 0.078,1.132, 0.107,2.636, 0.107,4.432l0,25.373 
	C 1306.876,255.785, 1304.035,261.545, 1298.382,263.156z M 1173.81,264.503l-5.828,0 c-6.385,0-12.408-1.708-18.051-5.145l0-58.244 l 11.315-0.683l 2.968,0 
	c 11.11,0, 17.592,3.583, 19.418,10.739c 0.683,2.060, 1.035,4.569, 1.035,7.537l0,31.748 C 1184.676,258.226, 1181.054,262.922, 1173.81,264.503z
	 M 1051.385,263c-2.9,1.845-6.326,2.773-10.28,2.773c-5.33,0-9.236-1.132-11.686-3.427c-2.48-2.284-3.71-5.809-3.71-10.573l0-5.623 
	l 31.299,0 L 1056.999,248.102 C 1056.999,256.508, 1055.134,261.467, 1051.385,263z" horiz-adv-x="2235.661"  />
<glyph unicode="&#xe01d;" d="M 463.644,535.972L 463.644,535.972l-117.612-117.612l-0.036,0 L 288,360.292L 229.968,418.36l0,0L 112.392,535.936L 112.356,535.972L 112.284,536.008
	C 101.664,546.592, 84.456,546.664, 73.728,536.188C 73.62,536.116, 73.512,536.044, 73.44,535.972S 73.224,535.756, 73.152,535.648L 40.752,503.248l-32.4-32.364
	C 8.28,470.776, 8.136,470.704, 8.028,470.56C 7.956,470.524, 7.884,470.38, 7.812,470.272c-10.476-10.728-10.404-27.9, 0.252-38.592l 0.036-0.036
	l 0.036-0.036L 125.676,314.032l0,0l 57.996-57.996l-57.996-58.032l0,0l-117.612-117.576l-0.036-0.072L 7.992,80.356 c-10.62-10.656-10.692-27.828-0.252-38.592
	c 0.072-0.144, 0.18-0.252, 0.288-0.324c 0.108-0.072, 0.216-0.18, 0.324-0.288l 32.4-32.4l 32.4-32.364
	c 0.108-0.108, 0.18-0.216, 0.288-0.324s 0.216-0.216, 0.324-0.288c 10.764-10.476, 27.936-10.404, 38.592,0.252l 0.036,0.036l 0.036,0.036
	l 117.612,117.612l0,0l 57.996,57.996l 57.996-57.996l 0.036,0 l 117.576-117.612l0-0.036 l 0.072-0.036c 10.62-10.62, 27.792-10.656, 38.592-0.252
	c 0.108,0.072, 0.216,0.18, 0.324,0.288s 0.18,0.216, 0.324,0.324l 32.364,32.364l 32.364,32.4c 0.144,0.108, 0.216,0.216, 0.324,0.288
	c 0.072,0.108, 0.18,0.216, 0.288,0.324c 10.476,10.728, 10.404,27.9-0.288,38.592l0,0l-0.072,0.072l-117.576,117.576l0,0l-57.996,58.032
	l 57.996,57.996l0,0l 117.576,117.576l 0.036,0.036l 0.036,0.036c 10.62,10.656, 10.692,27.828, 0.288,38.592c-0.108,0.108-0.216,0.252-0.288,0.324
	c-0.144,0.144-0.216,0.216-0.324,0.324l-32.364,32.364l-32.364,32.4c-0.144,0.108-0.216,0.216-0.324,0.324s-0.216,0.18-0.324,0.288
	C 491.472,546.664, 474.3,546.592, 463.644,535.972L 463.644,535.972z"  />
<glyph unicode="&#xe01e;" d="M 563.684,284.851l-42.302,0 c-2.711,22.040-8.386,43.166-16.738,62.92l 36.542,21.092c 5.862,3.371, 7.878,10.927, 4.506,16.789
		l-16.552,28.664c-3.371,5.879-10.927,7.895-16.789,4.523l-36.61-21.143c-13.129,17.382-28.648,32.883-46.012,46.012l 21.143,36.61
		c 3.371,5.879, 1.338,13.417-4.523,16.806l-28.664,16.552c-5.862,3.371-13.417,1.338-16.806-4.506L 379.753,472.644
		c-19.736,8.369-40.862,14.061-62.92,16.738l0,42.319 C 316.834,538.46, 311.311,544, 304.552,544l-33.12,0 c-6.76,0-12.299-5.54-12.299-12.299l0-42.319 
		c-22.057-2.694-43.183-8.386-62.92-16.738l-21.092,36.559c-3.388,5.845-10.927,7.878-16.789,4.506L 129.668,497.141
		C 123.806,493.752, 121.773,486.214, 125.161,480.335l 21.143-36.61C 128.905,430.579, 113.404,415.078, 100.275,397.696L 63.648,418.839c-5.862,3.371-13.417,1.355-16.789-4.523
		L 30.291,385.651c-3.388-5.862-1.355-13.417, 4.506-16.789l 36.542-21.092c-8.386-19.753-14.061-40.879-16.755-62.92L 12.299,284.851 
		C 5.523,284.851, 0,279.311, 0,272.552l0-33.103 c0-6.776, 5.523-12.299, 12.299-12.299l 42.302,0 c 2.711-22.040, 8.386-43.183, 16.755-62.92l-36.542-21.092
		c-5.862-3.371-7.895-10.927-4.506-16.789l 16.568-28.664c 3.371-5.879, 10.927-7.895, 16.789-4.523l 36.61,21.143c 13.146-17.382, 28.648-32.9, 46.029-46.012
		l-21.143-36.627c-3.371-5.862-1.355-13.417, 4.506-16.789l 28.664-16.552c 5.862-3.371, 13.417-1.355, 16.789,4.506l 21.092,36.559
		c 19.736-8.386, 40.862-14.061, 62.92-16.738l0-42.319 c0-6.76, 5.54-12.299, 12.299-12.299l 33.12,0 c 6.76,0, 12.282,5.54, 12.282,12.299l0,42.319 
		c 22.057,2.694, 43.183,8.369, 62.92,16.738l 21.092-36.559c 3.388-5.862, 10.944-7.878, 16.806-4.506l 28.664,16.552c 5.862,3.371, 7.895,10.927, 4.523,16.789
		l-21.143,36.627c 17.365,13.112, 32.883,28.631, 46.012,46.012l 36.61-21.143c 5.862-3.371, 13.417-1.355, 16.789,4.523l 16.552,28.664
		c 3.371,5.862, 1.355,13.417-4.506,16.789l-36.542,21.092c 8.369,19.736, 14.044,40.879, 16.738,62.92l 42.302,0 c 6.776,0, 12.299,5.523, 12.299,12.299l0,33.103 
		C 575.983,279.311, 570.46,284.851, 563.684,284.851z M 288,87.012c-93.329,0-168.971,75.659-168.971,168.988S 194.654,424.988, 288,424.988
		c 93.329,0, 168.971-75.659, 168.971-168.988S 381.329,87.012, 288,87.012z"  />
<glyph unicode="&#xe01f;" d="M 288,544C 128.946,544, 0,415.054, 0,256c0-159.054, 128.946-287.992, 288-287.992c 159.062,0, 287.992,128.946, 287.992,287.992
	C 575.992,415.054, 447.062,544, 288,544z M 457.71,86.29c-45.333-45.333-105.595-70.295-169.71-70.295c-64.107,0-124.377,24.963-169.702,70.295
	c-45.333,45.333-70.295,105.595-70.295,169.71s 24.963,124.377, 70.295,169.71c 45.325,45.333, 105.595,70.295, 169.702,70.295
	c 64.107,0, 124.377-24.963, 169.71-70.295s 70.288-105.595, 70.288-169.71S 503.035,131.623, 457.71,86.29z M 378.23,204.168l-80.126,43.62L 298.103,393.773 
	c0,6.414-5.2,11.613-11.613,11.613l-24.433,0 c-6.414,0-11.613-5.2-11.613-11.613l0-167.406 c0-0.125, 0.008-0.249, 0.016-0.374
	c 0.008-0.249, 0.008-0.49, 0.039-0.747c 0.023-0.288, 0.070-0.568, 0.125-0.848c 0.016-0.086, 0.039-0.249, 0.039-0.249
	c 0.062-0.319, 0.148-0.63, 0.234-0.942c 0.016-0.047, 0.039-0.148, 0.039-0.148c 0.093-0.304, 0.195-0.599, 0.311-0.895l 0.062-0.163
	c 0.109-0.272, 0.234-0.529, 0.366-0.794C 251.712,221.129, 251.79,220.973, 251.79,220.973c 0.117-0.226, 0.257-0.444, 0.389-0.662
	c 0.062-0.109, 0.132-0.218, 0.195-0.327c 0.125-0.187, 0.257-0.366, 0.389-0.529c 0.093-0.14, 0.187-0.265, 0.288-0.389
	c 0.132-0.163, 0.272-0.311, 0.405-0.459c 0.117-0.14, 0.234-0.265, 0.35-0.389c 0.163-0.163, 0.327-0.311, 0.49-0.459
	c 0.117-0.109, 0.218-0.202, 0.327-0.304c 0.257-0.218, 0.522-0.413, 0.802-0.607l 0.101-0.070c 0.358-0.241, 0.724-0.467, 1.121-0.669
	l 98.823-53.802c 5.635-3.059, 12.688-0.989, 15.747,4.647l 11.691,21.46C 385.943,194.049, 383.865,201.093, 378.23,204.168z"  />
<glyph unicode="&#xe020;" d="M 541.224,492.592L 433.944,542.596c-7.398,3.456-16.2,0.252-19.638-7.164l-175.158-375.696L 79.308,234.436
	c-7.398,3.438-16.2,0.252-19.656-7.164L 9.63,119.992c-3.456-7.398-0.27-16.2, 7.164-19.656l 159.822-74.664l 120.69-56.286
	c 7.398-3.438, 16.2-0.252, 19.656,7.164l 56.286,120.672L 548.37,472.918C 551.826,480.334, 548.64,489.136, 541.224,492.592z" horiz-adv-x="558"  />
<glyph unicode="&#xe021;" d="M 471.623-30.242l 0.212,0.212l 172.285,172.254l 113.745,113.775l-113.745,113.775l-172.285,172.254l-0.212,0.212
	C 466.227,547.608, 458.829,550.882, 450.644,550.882c-7.731,0-14.764-3.001-20.069-7.821l-1.91-1.94L 358.969,471.454l-1.91-1.88
	c-4.851-5.336-7.821-12.339-7.821-20.069c0-8.034, 3.153-15.249, 8.276-20.645l 0.94-0.909l 91.463-91.463L 29.922,336.488c0,0-0.061,0-0.091,0
	L 29.77,336.488 C 13.46,336.458, 0.212,323.331,0,307.082c0-0.121,0-0.303,0-0.455c0-0.182,0-0.303,0-0.485l0-50.173 l0-50.173 c0-0.152,0-0.303,0-0.455
	s0-0.273,0-0.455c 0.243-16.249, 13.43-29.406, 29.74-29.437l 0.061,0 c 0.030,0, 0.091,0, 0.091,0l 420.056,0 l-91.463-91.432l-0.94-0.94
	c-5.154-5.366-8.276-12.611-8.276-20.615c0-7.731, 3.001-14.764, 7.821-20.069l 1.91-1.91l 69.635-69.635l 1.91-1.94
	c 5.336-4.82, 12.339-7.821, 20.069-7.821C 458.829-38.912, 466.227-35.608, 471.623-30.242z" horiz-adv-x="757.895"  />
<glyph unicode="&#xe022;" d="M 833.912,540.171l 0.203-0.203l 171.072-171.072l 112.964-112.93l-112.964-112.998l-171.072-171.038l-0.203-0.203c-5.353-5.286-12.706-8.572-20.872-8.572
	c-7.657,0-14.637,2.982-19.923,7.725l-1.931,1.931l-69.188,69.188l-1.897,1.897c-4.811,5.286-7.759,12.265-7.759,19.957
	c0,7.928, 3.151,15.112, 8.2,20.465l 0.949,0.915l 90.805,90.805L 29.647,176.648L 29.647,176.648 L 29.579,176.648 c-16.196,0.034-29.342,13.045-29.545,29.173
	C 0.034,205.99,0,206.125,0,206.125c0,0.305, 0.034,0.474, 0.034,0.474l0,49.434 L 0.034,305.299 L0,305.739c0,0, 0.034,0.305, 0.034,0.44
	c 0.237,16.162, 13.35,29.207, 29.545,29.24l 0.034,0 L 29.647,335.386 L 812.363,335.861l-90.805,90.805l-0.949,0.949c-5.048,5.32-8.2,12.503-8.2,20.431
	c0,7.691, 2.982,14.705, 7.759,19.957l 1.897,1.864l 69.188,69.188l 1.931,1.897C 798.404,545.796, 805.384,548.777, 813.041,548.777
	C 821.207,548.777, 828.559,545.491, 833.912,540.171z" horiz-adv-x="1118.118"  />
<glyph unicode="&#xe023;" d="M 286.242,542.242L 286.029,542.029L 113.745,369.775L0,256l 113.745-113.775l 172.285-172.254l 0.212-0.212
	c 5.396-5.366, 12.793-8.64, 20.979-8.64c 7.731,0, 14.794,3.001, 20.069,7.821l 1.94,1.94l 69.635,69.635l 1.91,1.91
	c 4.851,5.336, 7.821,12.339, 7.821,20.069c0,8.003-3.153,15.249-8.276,20.615l-0.97,0.94l-91.463,91.463l 420.056-0.030c0,0, 0.030,0, 0.061,0
	l 0.061,0 c 16.31,0.030, 29.558,13.157, 29.77,29.406c0,0.152,0,0.303,0,0.455c0,0.182,0,0.303,0,0.485L 757.864,256 L 757.864,306.173 c0,0.152,0,0.303,0,0.455
	s0,0.273,0,0.455c-0.243,16.249-13.46,29.376-29.77,29.406l-0.061,0 c-0.030,0-0.061,0-0.061,0l-420.056,0 l 91.463,91.463l 0.97,0.94
	c 5.123,5.366, 8.276,12.611, 8.276,20.615c0,7.731-3.001,14.764-7.821,20.069L 398.895,471.454l-69.635,69.635l-1.94,1.94
	C 322.014,547.88, 314.981,550.882, 307.22,550.882C 299.035,550.882, 291.638,547.577, 286.242,542.242z" horiz-adv-x="757.895"  />
<glyph unicode="&#xe024;" d="M 284.205-28.171l-0.203,0.203l-171.072,171.072L0,256l 112.964,112.998l 171.072,171.038L 284.205,540.205C 289.559,545.491, 296.911,548.777, 305.043,548.777
	C 312.734,548.777, 319.714,545.796, 324.966,541.052l 1.931-1.931l 69.188-69.188l 1.897-1.897c 4.811-5.286, 7.759-12.265, 7.759-19.957
	c0-7.928-3.117-15.112-8.2-20.465l-0.949-0.915L 305.754,335.895l 782.682-0.542l 0.034,0 l 0.068,0 c 16.196-0.034, 29.342-13.045, 29.545-29.173
	c0-0.203, 0.034-0.339, 0.034-0.339c0-0.305-0.034-0.474-0.034-0.474l0-49.434 l0-49.299 l 0.034-0.44c0,0-0.034-0.305-0.034-0.44
	c-0.237-16.162-13.35-29.207-29.545-29.24l-0.034,0 l-0.068,0 L 305.754,176.139l 90.805-90.805l 0.949-0.949c 5.082-5.32, 8.2-12.503, 8.2-20.431
	c0-7.691-2.982-14.705-7.759-19.957l-1.897-1.864l-69.188-69.188L 324.966-28.984c-5.286-4.811-12.265-7.793-19.923-7.793
	C 296.911-36.777, 289.559-33.491, 284.205-28.171z" horiz-adv-x="1118.118"  />
<glyph unicode="&#x20;" horiz-adv-x="288" />
</font>
</defs>
</svg>
